<?xml version="1.0" encoding="utf-8"?>
<!-- Generator: Adobe Illustrator 22.1.0, SVG Export Plug-In . SVG Version: 6.00 Build 0)  -->
<svg version="1.1" id="Layer_1" xmlns="http://www.w3.org/2000/svg" xmlns:xlink="http://www.w3.org/1999/xlink" x="0px" y="0px"
	 viewBox="0 0 1308 764" style="enable-background:new 0 0 1308 764;" xml:space="preserve">
<polyline style="fill:#E6E6E6;" points="109,763 0,763 0,0 "/>
<polyline style="fill:#E6E6E6;" points="0,0 109,0 109,763 "/>
<polyline style="fill:#E6E6E6;" points="218,763 109,763 109,0 "/>
<polyline style="fill:#E6E6E6;" points="109,0 218,0 218,763 "/>
<polyline style="fill:#E6E6E6;" points="327,763 218,763 218,0 "/>
<polyline style="fill:#E6E6E6;" points="218,0 327,0 327,763 "/>
<polyline style="fill:#E6E6E6;" points="436,763 327,763 327,0 "/>
<polyline style="fill:#E6E6E6;" points="327,0 436,0 436,763 "/>
<polyline style="fill:#E6E6E6;" points="545,763 436,763 436,0 "/>
<polyline style="fill:#E6E6E6;" points="436,0 545,0 545,763 "/>
<polyline style="fill:#E6E6E6;" points="654,763 545,763 545,0 "/>
<polyline style="fill:#E6E6E6;" points="545,0 654,0 654,763 "/>
<polyline style="fill:#E6E6E6;" points="763,764 654,764 654,1 "/>
<polyline style="fill:#E6E6E6;" points="654,1 763,1 763,764 "/>
<polyline style="fill:#E6E6E6;" points="872,764 763,764 763,1 "/>
<polyline style="fill:#E6E6E6;" points="763,1 872,1 872,764 "/>
<polyline style="fill:#E6E6E6;" points="981,764 872,764 872,1 "/>
<polyline style="fill:#E6E6E6;" points="872,1 981,1 981,764 "/>
<polyline style="fill:#E6E6E6;" points="1090,764 981,764 981,1 "/>
<polyline style="fill:#E6E6E6;" points="981,1 1090,1 1090,764 "/>
<polyline style="fill:#E6E6E6;" points="1199,764 1090,764 1090,1 "/>
<polyline style="fill:#E6E6E6;" points="1090,1 1199,1 1199,764 "/>
<polyline style="fill:#E6E6E6;" points="1308,764 1199,764 1199,1 "/>
<polyline style="fill:#E6E6E6;" points="1199,1 1308,1 1308,764 "/>
</svg>
