<?xml version="1.0" encoding="utf-8"?>
<!-- Generator: Adobe Illustrator 22.1.0, SVG Export Plug-In . SVG Version: 6.00 Build 0)  -->
<svg version="1.1" xmlns="http://www.w3.org/2000/svg" xmlns:xlink="http://www.w3.org/1999/xlink" x="0px" y="0px"
	 viewBox="0 0 2832 4240" style="enable-background:new 0 0 2832 4240;" xml:space="preserve">
<g id="Layer_1">
	<rect style="fill:#2F2C2A;" width="2832" height="4240"/>
	<path style="fill:#AB5C46;fill-opacity:0.502;" d="M1468.1,4525.1L2066,1701.8L470.2,3320.3L1468.1,4525.1z"/>
	<path style="fill:#DB967E;fill-opacity:0.502;" d="M-66.2,1623.1L1287.6,583.8l-1072.4,443L-66.2,1623.1z"/>
	<path style="fill:#476B6E;fill-opacity:0.502;" d="M2575.3,1354l-418.2-790.9L894.3,513.4L2575.3,1354z"/>
	<path style="fill:#100D0F;fill-opacity:0.502;" d="M2894.1,1672.8l-74.5,2629.3l-1507.1-977.2L2894.1,1672.8z"/>
	<path style="fill:#B47A69;fill-opacity:0.502;" d="M1163.4,3378.7l-459.6-281.6l881.9-443L1163.4,3378.7z"/>
	<path style="fill:#814E3A;fill-opacity:0.502;" d="M2194.4,3153.3l-464.5,1140.5l-289-700.2L2194.4,3153.3z"/>
	<path style="fill:#AB867A;fill-opacity:0.502;" d="M140.8,1436.8l376.8,53.8l-563.1,236L140.8,1436.8z"/>
	<path style="fill:#8B6052;fill-opacity:0.502;" d="M2144.7,1677l161.5-795l211.2,608.7L2144.7,1677z"/>
	<path style="fill:#0B1418;fill-opacity:0.502;" d="M1643.7,882l-650,1689.4L-66.2,1838.4L1643.7,882z"/>
	<path style="fill:#8E3821;fill-opacity:0.502;" d="M1743.1,2091l-861.2,604.5L1917,2968.8L1743.1,2091z"/>
	<path style="fill:#14333A;fill-opacity:0.502;" d="M385.8,2590L2061.9,157.3l-223.6,1925.4L385.8,2590z"/>
	<path style="fill:#0D1F1F;fill-opacity:0.502;" d="M-66.2-49.7l1834.2,770.2L2894.1,4.1L-66.2-49.7z"/>
	<path style="fill:#AF795C;fill-opacity:0.502;" d="M1084.8,3552.7l633.5,173.9l202.9-169.8L1084.8,3552.7z"/>
	<path style="fill:#5EA6B0;fill-opacity:0.502;" d="M1175.9,612.8l107.6-161.5l165.6,352L1175.9,612.8z"/>
	<path style="fill:#67AAB2;fill-opacity:0.502;" d="M2206.8,902.7L1946,521.7l190.5,87L2206.8,902.7z"/>
	<path style="fill:#153A40;fill-opacity:0.502;" d="M58,2832.2l558.9-501l-683.2-670.8L58,2832.2z"/>
	<path style="fill:#513628;fill-opacity:0.502;" d="M663.6,3364.3l135.3,937.9l1031.1-112L663.6,3364.3z"/>
	<path style="fill:#462420;fill-opacity:0.502;" d="M1954.2,3581.6L1813.5,2650l-749.4,778.4L1954.2,3581.6z"/>
	<path style="fill:#AB4228;fill-opacity:0.502;" d="M2380.7,2546.5l-165.6-99.4l149.1-223.6L2380.7,2546.5z"/>
	<path style="fill:#B76D56;fill-opacity:0.502;" d="M1275.2,3080.6l-343.6-298.1l679-33.1L1275.2,3080.6z"/>
	<path style="fill:#BF8C75;fill-opacity:0.502;" d="M165.6,1084.8l501-219.5l-414,501L165.6,1084.8z"/>
	<path style="fill:#70A4AB;fill-opacity:0.502;" d="M2124,811.6l-281.5,95.2l438.9,4.1L2124,811.6z"/>
	<path style="fill:#0B191C;fill-opacity:0.502;" d="M-66.2,1287.7V977.2l376.8,505.2L-66.2,1287.7z"/>
	<path style="fill:#0C0E10;fill-opacity:0.502;" d="M1904.6,1995.8l728.7,401.6l260.8-625.2L1904.6,1995.8z"/>
	<path style="fill:#19100F;fill-opacity:0.502;" d="M1461.5,782.6l16.6,985.5L857.1,939.9L1461.5,782.6z"/>
	<path style="fill:#12201E;fill-opacity:0.502;" d="M-66.2,1180.1L1209,559L0-66.2L-66.2,1180.1z"/>
	<path style="fill:#676264;fill-opacity:0.502;" d="M2438.7,1768l-132.5,178l-190.5-240.2L2438.7,1768z"/>
	<path style="fill:#111E27;fill-opacity:0.502;" d="M310.5,1258.7l70.4,53.8l186.3-269.1L310.5,1258.7z"/>
	<path style="fill:#AE5D45;fill-opacity:0.502;" d="M1660.3,2161.4l66.2,202.9l-708,277.4L1660.3,2161.4z"/>
	<path style="fill:#5A2011;fill-opacity:0.502;" d="M1830,2674.8l-786.7-12.4l782.5-285.7L1830,2674.8z"/>
	<path style="fill:#7EB3B9;fill-opacity:0.502;" d="M1618.9,753.6L1490.5,795l223.6,82.8L1618.9,753.6z"/>
	<path style="fill:#312629;fill-opacity:0.502;" d="M1080.6,1474.1L679,935.8L339.5,1590L1080.6,1474.1z"/>
	<path style="fill:#675046;fill-opacity:0.502;" d="M654.2,3192.4l737,525.9l-248.4,438.9L654.2,3192.4z"/>
	<path style="fill:#442E22;fill-opacity:0.502;" d="M1010.2,4202.7l645.9-600.4l66.2,674.9L1010.2,4202.7z"/>
	<path style="fill:#102223;fill-opacity:0.502;" d="M2716.1,66.2l178,629.4L1946,559L2716.1,66.2z"/>
	<path style="fill:#112024;fill-opacity:0.502;" d="M1825.9,1813.6l231.9-799.1l240.1,335.4L1825.9,1813.6z"/>
	<path style="fill:#335A61;fill-opacity:0.502;" d="M1138.6,2186.2l310.5,29l8.3-331.2L1138.6,2186.2z"/>
	<path style="fill:#1E2E2F;fill-opacity:0.502;" d="M1854.9,260.9l-505.1,443l720.4,165.6L1854.9,260.9z"/>
	<path style="fill:#69979A;fill-opacity:0.502;" d="M2538,600.4l86.9,37.3l-45.5,144.9L2538,600.4z"/>
	<path style="fill:#7D5447;fill-opacity:0.502;" d="M2099.2,1130.4l546.5,120.1l-455.4-281.6L2099.2,1130.4z"/>
	<path style="fill:#AB6754;fill-opacity:0.502;" d="M985.4,894.4l128.4-285.7l-683.2,438.9L985.4,894.4z"/>
	<path style="fill:#471C14;fill-opacity:0.502;" d="M2140.6,2248.4l356.1,178l-144.9-153.2L2140.6,2248.4z"/>
	<path style="fill:#987366;fill-opacity:0.502;" d="M2190.2,1643.8l4.1-202.9l289.8,53.8L2190.2,1643.8z"/>
	<path style="fill:#262C2A;fill-opacity:0.502;" d="M351.9,902.7l409.9-45.5l472-832.3L351.9,902.7z"/>
	<path style="fill:#7F5C54;fill-opacity:0.502;" d="M1320.8,3324.9l-476.1,74.5l140.8-795L1320.8,3324.9z"/>
	<path style="fill:#080F13;fill-opacity:0.502;" d="M1879.7,1892.3l-62.1,223.6l-347.8,12.4L1879.7,1892.3z"/>
	<path style="fill:#172F34;fill-opacity:0.502;" d="M691.4,1846.7l-20.7,368.5l-463.7-207L691.4,1846.7z"/>
	<path style="fill:#271F1D;fill-opacity:0.502;" d="M2894.1,1763.9V178L2389,1407.8L2894.1,1763.9z"/>
	<path style="fill:#BC8875;fill-opacity:0.502;" d="M248.4,1635.5L414,1449.2l-207,58L248.4,1635.5z"/>
	<path style="fill:#112224;fill-opacity:0.502;" d="M2223.4,894.4L2041.2-66.2l558.9,910.9L2223.4,894.4z"/>
	<path style="fill:#65463B;fill-opacity:0.502;" d="M2475.9,1039.3l-294,124.2l372.6,240.2L2475.9,1039.3z"/>
	<path style="fill:#243439;fill-opacity:0.502;" d="M124.2,1362.3L8.3,1585.9l128.4,33.1L124.2,1362.3z"/>
	<path style="fill:#111315;fill-opacity:0.502;" d="M1382.9,1850.9l-414,289.8l-132.5-563.1L1382.9,1850.9z"/>
	<path style="fill:#2A727F;fill-opacity:0.502;" d="M1449.1,1726.6l128.4-136.6l99.4,103.5L1449.1,1726.6z"/>
	<path style="fill:#747C7E;fill-opacity:0.502;" d="M1275.2,2264.9l-186.3,111.8l58,29L1275.2,2264.9z"/>
	<path style="fill:#1C2A2F;fill-opacity:0.502;" d="M2128.1,2231.8l140.8-120.1l-149.1-488.6L2128.1,2231.8z"/>
	<path style="fill:#D98562;fill-opacity:0.502;" d="M952.3,2832.2h223.6l178-107.7L952.3,2832.2z"/>
	<path style="fill:#190E0C;fill-opacity:0.502;" d="M-66.2,1797l857.1,74.5l194.6-418.2L-66.2,1797z"/>
	<path style="fill:#3D4044;fill-opacity:0.502;" d="M2360,1925.4l78.7-414.1l318.8,169.8L2360,1925.4z"/>
	<path style="fill:#5D3B39;fill-opacity:0.502;" d="M1196.6,645.9l-525.8,364.4L1122,848.8L1196.6,645.9z"/>
	<path style="fill:#0F1A1D;fill-opacity:0.502;" d="M2165.4,2062l-310.5,33.1l306.4-621.1L2165.4,2062z"/>
	<path style="fill:#245A65;fill-opacity:0.502;" d="M906.7,2231.8l231.9-136.6l-260.8,364.4L906.7,2231.8z"/>
	<path style="fill:#A3715C;fill-opacity:0.502;" d="M906.7,3548.5l443-4.1v132.5L906.7,3548.5z"/>
	<path style="fill:#371C18;fill-opacity:0.502;" d="M1759.6,3184.1l-339.5,360.2L1146.9,3416L1759.6,3184.1z"/>
	<path style="fill:#0B0D0F;fill-opacity:0.502;" d="M1531.9,2223.5l-538.2,347.8l302.2-335.4L1531.9,2223.5z"/>
	<path style="fill:#E09470;fill-opacity:0.502;" d="M136.6,1598.3l-173.9,111.8l-24.8-82.8L136.6,1598.3z"/>
	<path style="fill:#36595D;fill-opacity:0.502;" d="M1552.6,542.4L1362.2,588l-227.7-186.3L1552.6,542.4z"/>
	<path style="fill:#352524;fill-opacity:0.502;" d="M2237.6,3476.7l-275.8-719L1602.3,3388L2237.6,3476.7z"/>
	<path style="fill:#5B4743;fill-opacity:0.502;" d="M1064.1,2886l-343.6,227.7l41.4-190.5L1064.1,2886z"/>
	<path style="fill:#050D0F;fill-opacity:0.502;" d="M563.1,2409.8l49.7-124.2l-82.8,78.7L563.1,2409.8z"/>
	<path style="fill:#130E0E;fill-opacity:0.502;" d="M459.6,1399.5l227.7-314.7l269.1-82.8L459.6,1399.5z"/>
	<path style="fill:#345A5D;fill-opacity:0.502;" d="M2115.7,732.9l-310.5-149.1l132.5-70.4L2115.7,732.9z"/>
	<path style="fill:#6E443B;fill-opacity:0.502;" d="M1035.1,3196.6l252.6-409.9l-215.3,74.5L1035.1,3196.6z"/>
	<path style="fill:#503F3C;fill-opacity:0.502;" d="M650,3353.9l70.4-285.7l356.1,372.7L650,3353.9z"/>
	<path style="fill:#0E1011;fill-opacity:0.502;" d="M1519.5,1710.1l70.4,455.5l-132.5,91.1L1519.5,1710.1z"/>
	<path style="fill:#605C5C;fill-opacity:0.502;" d="M2418,1896.4L2302,1772.2l-343.6,37.3L2418,1896.4z"/>
	<path style="fill:#1C4047;fill-opacity:0.502;" d="M269.1,2654.1l343.6-153.2l-248.4-165.6L269.1,2654.1z"/>
	<path style="fill:#1A242A;fill-opacity:0.502;" d="M314.7,1333.3l-149.1,37.3l103.5,124.2L314.7,1333.3z"/>
	<path style="fill:#633229;fill-opacity:0.502;" d="M1345.6,3358l12.4-488.6l534.1,49.7L1345.6,3358z"/>
	<path style="fill:#4E4649;fill-opacity:0.502;" d="M467.9,1337.4l310.5-356.1l-269.1,178L467.9,1337.4z"/>
	<path style="fill:#B47E70;fill-opacity:0.502;" d="M1308.4,2765.9l41.4,285.7l-202.9,178L1308.4,2765.9z"/>
	<path style="fill:#3B3F40;fill-opacity:0.502;" d="M1987.4,869.5v447.2l-322.9-178L1987.4,869.5z"/>
	<path style="fill:#B68370;fill-opacity:0.502;" d="M2239.9,1188.4l33.1-128.4l-99.4,78.7L2239.9,1188.4z"/>
	<path style="fill:#D08971;fill-opacity:0.502;" d="M939.9,757.7l-78.7,169.8l190.5-207L939.9,757.7z"/>
	<path style="fill:#CFA897;fill-opacity:0.502;" d="M1055.8,3254.5l-107.6,33.1l24.8-82.8L1055.8,3254.5z"/>
	<path style="fill:#3D2E2A;fill-opacity:0.502;" d="M2554.6,2629.3l339.5-215.3l-202.9-186.3L2554.6,2629.3z"/>
	<path style="fill:#BA9E91;fill-opacity:0.502;" d="M877.8,3175.9l-37.3-157.3l-49.7,107.7L877.8,3175.9z"/>
	<path style="fill:#2F494B;fill-opacity:0.502;" d="M1482.2,815.7l645.9,140.8l-666.6,37.3L1482.2,815.7z"/>
	<path style="fill:#CB9176;fill-opacity:0.502;" d="M554.8,869.5l-91.1,186.3l178-62.1L554.8,869.5z"/>
	<path style="fill:#733220;fill-opacity:0.502;" d="M1242.1,2401.6l-310.5,252.6l658.3,124.2L1242.1,2401.6z"/>
	<path style="fill:#BD7E5C;fill-opacity:0.502;" d="M1606.5,3639.6l-215.3-74.5l472,12.4L1606.5,3639.6z"/>
	<path style="fill:#7F5E53;fill-opacity:0.502;" d="M2716.1,1349.8l-58,24.8l24.8-157.3L2716.1,1349.8z"/>
	<path style="fill:#644C3E;fill-opacity:0.502;" d="M1933.5,3623l-720.4-20.7l-173.9,443L1933.5,3623z"/>
	<path style="fill:#8C5C4F;fill-opacity:0.502;" d="M1010.2,3606.5l-132.5-186.3l310.5,20.7L1010.2,3606.5z"/>
	<path style="fill:#2D474C;fill-opacity:0.502;" d="M1838.3,1440.9L1710,1697.7l294-12.4L1838.3,1440.9z"/>
	<path style="fill:#1F2928;fill-opacity:0.502;" d="M1614.7,927.5l505.1-207l-248.4-70.4L1614.7,927.5z"/>
	<path style="fill:#52382F;fill-opacity:0.502;" d="M2670.5,898.5l-190.5,488.6l244.3-289.8L2670.5,898.5z"/>
	<path style="fill:#575656;fill-opacity:0.502;" d="M45.5,1718.4l111.8,29l86.9-401.6L45.5,1718.4z"/>
	<path style="fill:#16191B;fill-opacity:0.502;" d="M1950.1,1821.9l244.3-178l-120.1-252.6L1950.1,1821.9z"/>
	<path style="fill:#B06C57;fill-opacity:0.502;" d="M1287.6,670.8l-356.1,53.8l165.6-87L1287.6,670.8z"/>
	<path style="fill:#742612;fill-opacity:0.502;" d="M1834.2,2103.4l33.1,240.2l-231.9-219.5L1834.2,2103.4z"/>
	<path style="fill:#736761;fill-opacity:0.502;" d="M136.6,1345.7l111.8-310.5l-111.8,95.2V1345.7z"/>
	<path style="fill:#0C1C1E;fill-opacity:0.502;" d="M2819.6,480.3l58,401.6l-322.9-95.2L2819.6,480.3z"/>
	<path style="fill:#442F27;fill-opacity:0.502;" d="M786.7,3598.2l285.7,4.1l78.7,269.1L786.7,3598.2z"/>
	<path style="fill:#232D2C;fill-opacity:0.502;" d="M1502.9,368.5L351.9,352l347.8,509.3L1502.9,368.5z"/>
	<path style="fill:#171E1D;fill-opacity:0.502;" d="M41.4,1420.2l-8.3-256.7h132.5L41.4,1420.2z"/>
	<path style="fill:#7B625D;fill-opacity:0.502;" d="M343.6,1300.2l-99.4-24.8l136.6-182.2L343.6,1300.2z"/>
	<path style="fill:#263E3E;fill-opacity:0.502;" d="M2745.1-66.2l132.5,530l-285.7-347.8L2745.1-66.2z"/>
	<path style="fill:#C69B88;fill-opacity:0.502;" d="M236,1068.3L194.6,1325l74.5,12.4L236,1068.3z"/>
	<path style="fill:#71A9B5;fill-opacity:0.502;" d="M1213.1,670.8l169.8,16.6l-169.8-66.2V670.8z"/>
	<path style="fill:#0D2026;fill-opacity:0.502;" d="M2306.2,1453.4l24.8-70.4l219.4-12.4L2306.2,1453.4z"/>
	<path style="fill:#262626;fill-opacity:0.502;" d="M2045.3,1739.1l190.5,368.5l136.6-140.8L2045.3,1739.1z"/>
	<path style="fill:#3A2C2A;fill-opacity:0.502;" d="M786.7,968.9l8.3-70.4l132.5-78.7L786.7,968.9z"/>
	<path style="fill:#CB9583;fill-opacity:0.502;" d="M1030.9,2836.3l-62.1-29l-49.7,95.2L1030.9,2836.3z"/>
	<path style="fill:#5D1F11;fill-opacity:0.502;" d="M2442.8,2335.3l-194.6-62.1l140.8,277.4L2442.8,2335.3z"/>
	<path style="fill:#D4916E;fill-opacity:0.502;" d="M-49.7,1449.2l153.2-12.4l-169.8,103.5L-49.7,1449.2z"/>
	<path style="fill:#8D6B5D;fill-opacity:0.502;" d="M2355.9,1279.5l-41.4-219.5l-49.7,252.6L2355.9,1279.5z"/>
	<path style="fill:#7F5950;fill-opacity:0.502;" d="M1204.8,3374.6l207-190.5l-596.2,157.3L1204.8,3374.6z"/>
	<path style="fill:#8E4630;fill-opacity:0.502;" d="M1006.1,2604.5l451.3,136.6l-488.6,74.5L1006.1,2604.5z"/>
	<path style="fill:#231C1B;fill-opacity:0.502;" d="M2658.1,1233.9l-451.3-405.8l426.5,202.9L2658.1,1233.9z"/>
	<path style="fill:#222223;fill-opacity:0.502;" d="M1995.6,1068.3l248.4-140.8l-231.9,240.2L1995.6,1068.3z"/>
	<path style="fill:#031419;fill-opacity:0.502;" d="M2372.4,1122.1l-41.4,49.7l99.4-16.6L2372.4,1122.1z"/>
	<path style="fill:#3F261D;fill-opacity:0.502;" d="M1295.9,4302.1l173.9-87l-91.1-596.2L1295.9,4302.1z"/>
	<path style="fill:#0D2428;fill-opacity:0.502;" d="M650,1975.1l-236,103.5L530,2331.2L650,1975.1z"/>
	<path style="fill:#141E20;fill-opacity:0.502;" d="M1482.2,1233.9L1291.8,1648l285.7,24.8L1482.2,1233.9z"/>
	<path style="fill:#20110F;fill-opacity:0.502;" d="M2596,2650l-252.6-91.1l211.2-438.9L2596,2650z"/>
	<path style="fill:#212528;fill-opacity:0.502;" d="M1825.9,2041.3l124.2-306.4l-318.8-62.1L1825.9,2041.3z"/>
	<path style="fill:#244446;fill-opacity:0.502;" d="M2297.9,745.3l-178-120.1l74.5,236L2297.9,745.3z"/>
	<path style="fill:#121212;fill-opacity:0.502;" d="M2339.3,2335.3l447.2-559l-227.7,24.8L2339.3,2335.3z"/>
	<path style="fill:#1C1514;fill-opacity:0.502;" d="M1502.9,1387.1l-219.4-691.5L919.2,1838.4L1502.9,1387.1z"/>
	<path style="fill:#122527;fill-opacity:0.502;" d="M1374.6,670.8l95.2-103.5L1652,753.6L1374.6,670.8z"/>
	<path style="fill:#1D2524;fill-opacity:0.502;" d="M2140.6,828.1l-202.9-128.4h144.9L2140.6,828.1z"/>
	<path style="fill:#2C1A18;fill-opacity:0.502;" d="M1792.8,3548.5l-136.6-33.1l103.5-505.2L1792.8,3548.5z"/>
	<path style="fill:#232D2D;fill-opacity:0.502;" d="M1142.7,633.5l240.1-380.9l-799.1,501L1142.7,633.5z"/>
	<path style="fill:#AD634D;fill-opacity:0.502;" d="M1283.5,2455.4l165.6-136.6l265,74.5L1283.5,2455.4z"/>
	<path style="fill:#376E76;fill-opacity:0.502;" d="M1362.2,645.9l53.8-132.5l-285.7,128.4L1362.2,645.9z"/>
	<path style="fill:#3A373A;fill-opacity:0.502;" d="M393.3,1428.5l70.4,161.5l289.8-343.7L393.3,1428.5z"/>
	<path style="fill:#913A21;fill-opacity:0.502;" d="M2474.8,2351.9l9.1,401.6l-264.7-182.6L2474.8,2351.9z"/>
	<path style="fill:#B25F41;fill-opacity:0.502;" d="M1478.1,2931.6l-322.9-82.8l215.3-144.9L1478.1,2931.6z"/>
	<path style="fill:#7A5446;fill-opacity:0.502;" d="M2161.3,1776.3l16.6-285.7l136.6-49.7L2161.3,1776.3z"/>
	<path style="fill:#D89B87;fill-opacity:0.502;" d="M509.3,1163.5l49.7-87l66.2-29L509.3,1163.5z"/>
	<path style="fill:#1D1513;fill-opacity:0.502;" d="M2297.9,1345.7l-111.8,91.1v-269.1L2297.9,1345.7z"/>
	<path style="fill:#44231D;fill-opacity:0.502;" d="M1834.2,2981.2l-16.6-405.8l-269.1,824L1834.2,2981.2z"/>
	<path style="fill:#451913;fill-opacity:0.502;" d="M2210.9,2198.7l12.4-111.8l194.6,186.3L2210.9,2198.7z"/>
	<path style="fill:#5A423F;fill-opacity:0.502;" d="M1888,3188.3l-70.4,289.8l99.4,140.8L1888,3188.3z"/>
	<path style="fill:#1A2022;fill-opacity:0.502;" d="M447.2,1196.6l144.9-161.5l-86.9,37.3L447.2,1196.6z"/>
	<path style="fill:#23272A;fill-opacity:0.502;" d="M2244.1,1871.6l335.4-219.5l-86.9,178L2244.1,1871.6z"/>
	<path style="fill:#876B62;fill-opacity:0.502;" d="M202.9,1420.2l12.4,219.5l91.1-37.3L202.9,1420.2z"/>
	<path style="fill:#2A2C2D;fill-opacity:0.502;" d="M2119.9,898.5l161.5,165.6l4.1-132.5L2119.9,898.5z"/>
	<path style="fill:#B88268;fill-opacity:0.502;" d="M53.8,1387.1l20.7,33.1l74.5-111.8L53.8,1387.1z"/>
	<path style="fill:#353B3D;fill-opacity:0.502;" d="M2293.8,1064.1l-78.7,165.6l91.1-37.3L2293.8,1064.1z"/>
	<path style="fill:#B08272;fill-opacity:0.502;" d="M1072.4,2927.4l-161.5,161.5l66.2-140.8L1072.4,2927.4z"/>
	<path style="fill:#12252C;fill-opacity:0.502;" d="M2194.4,1697.7l128.4-136.6l215.3,41.4L2194.4,1697.7z"/>
	<path style="fill:#264C53;fill-opacity:0.502;" d="M1478.1,2248.4l-298.1-294l-4.1,223.6L1478.1,2248.4z"/>
	<path style="fill:#395051;fill-opacity:0.502;" d="M2095,1002l-78.7-265l-86.9,132.5L2095,1002z"/>
	<path style="fill:#87726A;fill-opacity:0.502;" d="M2322.7,1122.1l-45.5-190.5l82.8,45.5L2322.7,1122.1z"/>
	<path style="fill:#785B4E;fill-opacity:0.502;" d="M1155.2,3594.1l194.6,29l-33.1,364.4L1155.2,3594.1z"/>
	<path style="fill:#B68375;fill-opacity:0.502;" d="M790.8,2948.1l49.7-16.6l-70.4-20.7L790.8,2948.1z"/>
	<path style="fill:#12191B;fill-opacity:0.502;" d="M2442.8,1954.4l-430.6-140.8l-107.6,120.1L2442.8,1954.4z"/>
	<path style="fill:#1D1F20;fill-opacity:0.502;" d="M2496.6,3113.7l-244.3-202.9l-12.4,447.2L2496.6,3113.7z"/>
	<path style="fill:#462522;fill-opacity:0.502;" d="M2082.6,3213.1l-149.1,281.6l82.8-376.8L2082.6,3213.1z"/>
	<path style="fill:#20272A;fill-opacity:0.502;" d="M2890,2546.5l-281.5,45.5l281.5-372.7V2546.5z"/>
	<path style="fill:#151414;fill-opacity:0.502;" d="M2832,2794.9l-356.1-256.7l318.8,115.9L2832,2794.9z"/>
	<path style="fill:#272220;fill-opacity:0.502;" d="M2604.3,2720.4l107.6-161.5l-149.1,82.8L2604.3,2720.4z"/>
	<path style="fill:#2E1E1B;fill-opacity:0.502;" d="M2115.7,2811.5l-63.8,443l-329.5-165.6L2115.7,2811.5z"/>
	<path style="fill:#4E4344;fill-opacity:0.502;" d="M2223.4,2318.7l45.5,33.1l-29,124.2L2223.4,2318.7z"/>
	<path style="fill:#2C2C2B;fill-opacity:0.502;" d="M2003.9,2563l12.4-78.7l-53.8,99.4L2003.9,2563z"/>
	<path style="fill:#1D2F31;fill-opacity:0.502;" d="M575.5,2405.7L-29,2778.4L-66.2,2414L575.5,2405.7z"/>
	<path style="fill:#152427;fill-opacity:0.502;" d="M161.5,2260.8l318.8,231.9l-78.7,66.2L161.5,2260.8z"/>
	<path style="fill:#284A50;fill-opacity:0.502;" d="M393.3,2447.1l74.5-323l24.8,318.8L393.3,2447.1z"/>
	<path style="fill:#1B333A;fill-opacity:0.502;" d="M641.8,2339.5l-82.8,157.3l66.2-24.8L641.8,2339.5z"/>
	<path style="fill:#2B3336;fill-opacity:0.502;" d="M695.6,2132.4l-95.2,87l8.3-107.7L695.6,2132.4z"/>
	<path style="fill:#131E23;fill-opacity:0.502;" d="M679,1933.7l115.9-161.5l-136.6,49.7L679,1933.7z"/>
	<path style="fill:#131313;fill-opacity:0.502;" d="M728.7,1544.5l-447.2,356.1l703.9-41.4L728.7,1544.5z"/>
	<path style="fill:#111719;fill-opacity:0.502;" d="M749.4,2455.4l194.6,207l-86.9-298.1L749.4,2455.4z"/>
	<path style="fill:#26464F;fill-opacity:0.502;" d="M964.7,2770.1l-16.6,78.7l-107.6,62.1L964.7,2770.1z"/>
	<path style="fill:#282F33;fill-opacity:0.502;" d="M844.6,2935.7l53.8-58l-103.5,24.8L844.6,2935.7z"/>
	<path style="fill:#161D20;fill-opacity:0.502;" d="M658.3,2476.1l157.3,58l107.6-45.5L658.3,2476.1z"/>
	<path style="fill:#182225;fill-opacity:0.502;" d="M898.5,2144.8l-260.8-33.1l144.9-312.6L898.5,2144.8z"/>
	<path style="fill:#292426;fill-opacity:0.502;" d="M869.5,919.2l58,939.9l207-1014.5L869.5,919.2z"/>
	<path style="fill:#251C1B;fill-opacity:0.502;" d="M1519.5,1262.9l-496.8-265l434.7-194.6L1519.5,1262.9z"/>
	<path style="fill:#262224;fill-opacity:0.502;" d="M1035.1,1026.9l161.5,202.9L650,1449.2L1035.1,1026.9z"/>
	<path style="fill:#2D292C;fill-opacity:0.502;" d="M997.8,939.9l-202.9,182.2l95.2,550.7L997.8,939.9z"/>
	<path style="fill:#453536;fill-opacity:0.502;" d="M724.6,1175.9l-157.3,265l335.4-327.1L724.6,1175.9z"/>
	<path style="fill:#322A2B;fill-opacity:0.502;" d="M782.5,1312.6l-409.9,227.7l306.4,58L782.5,1312.6z"/>
	<path style="fill:#11191C;fill-opacity:0.502;" d="M592.1,1374.7l-236,24.8l327.1-211.2L592.1,1374.7z"/>
	<path style="fill:#1B252A;fill-opacity:0.502;" d="M616.9,1345.7L207,1366.4l41.4,107.7L616.9,1345.7z"/>
	<path style="fill:#857F7D;fill-opacity:0.502;" d="M368.5,1478.2l-24.8-16.6l91.1-41.4L368.5,1478.2z"/>
	<path style="fill:#322C2C;fill-opacity:0.502;" d="M1051.6,1337.4l-434.7,248.4l-260.8-70.4L1051.6,1337.4z"/>
	<path style="fill:#1E1B1A;fill-opacity:0.502;" d="M749.4,1490.6L857.1,1677l202.9-252.6L749.4,1490.6z"/>
	<path style="fill:#443839;fill-opacity:0.502;" d="M600.4,1449.2l53.8-178l99.4-62.1L600.4,1449.2z"/>
	<path style="fill:#251E1D;fill-opacity:0.502;" d="M794.9,1536.2l-62.1-294l190.5,12.4L794.9,1536.2z"/>
	<path style="fill:#302C2F;fill-opacity:0.502;" d="M840.5,1122.1L737,1320.9l376.8-289.8L840.5,1122.1z"/>
	<path style="fill:#191515;fill-opacity:0.502;" d="M1130.3,1080.7l-41.4-120.1l389.2,53.8L1130.3,1080.7z"/>
	<path style="fill:#241C1B;fill-opacity:0.502;" d="M1320.8,1147L1300.1,708l252.6,356.1L1320.8,1147z"/>
	<path style="fill:#507479;fill-opacity:0.502;" d="M1229.7,625.2l173.9,173.9l132.5-20.7L1229.7,625.2z"/>
	<path style="fill:#231F20;fill-opacity:0.502;" d="M1030.9,1424.4l-49.7-430.6l256.7,53.8L1030.9,1424.4z"/>
	<path style="fill:#1C2C2E;fill-opacity:0.502;" d="M1747.2,1002l-256.7-223.6l-161.5,37.3L1747.2,1002z"/>
	<path style="fill:#5C3C39;fill-opacity:0.502;" d="M1180,708l-49.7-70.4l173.9,62.1L1180,708z"/>
	<path style="fill:#271B1B;fill-opacity:0.502;" d="M1478.1,935.8l-78.7-161.5l-322.9,62.1L1478.1,935.8z"/>
	<path style="fill:#513A38;fill-opacity:0.502;" d="M1142.7,795l-49.7-95.2L819.8,968.9L1142.7,795z"/>
	<path style="fill:#322220;fill-opacity:0.502;" d="M1022.7,985.5l-111.8-78.7l302.2-58L1022.7,985.5z"/>
	<path style="fill:#2B292D;fill-opacity:0.502;" d="M1026.8,1147L886,1254.6l8.3-215.3L1026.8,1147z"/>
	<path style="fill:#1F1716;fill-opacity:0.502;" d="M989.5,919.2l-331.2,314.7l136.6-240.2L989.5,919.2z"/>
	<path style="fill:#353032;fill-opacity:0.502;" d="M1064.1,1316.7l-198.7,194.6l-45.5-111.8L1064.1,1316.7z"/>
	<path style="fill:#181514;fill-opacity:0.502;" d="M869.5,1532l670.7-120.1L1209,1188.4L869.5,1532z"/>
	<path style="fill:#2B2425;fill-opacity:0.502;" d="M1105.5,1171.8L964.7,1412l140.8-107.7V1171.8z"/>
	<path style="fill:#252323;fill-opacity:0.502;" d="M823.9,1238l124.2,12.4l-29,157.3L823.9,1238z"/>
	<path style="fill:#373335;fill-opacity:0.502;" d="M915,1469.9l-58-8.3L973,1358.1L915,1469.9z"/>
	<path style="fill:#191515;fill-opacity:0.502;" d="M1130.3,1233.9l-132.5,240.2l513.4-236L1130.3,1233.9z"/>
	<path style="fill:#2B2525;fill-opacity:0.502;" d="M1374.6,1043.4l53.8,33.1l-132.5,66.2L1374.6,1043.4z"/>
	<path style="fill:#21292A;fill-opacity:0.502;" d="M1552.6,952.3l29,302.3l289.8-335.4L1552.6,952.3z"/>
	<path style="fill:#202627;fill-opacity:0.502;" d="M1983.2,1548.6l-128.4-393.4l-389.2,37.3L1983.2,1548.6z"/>
	<path style="fill:#182628;fill-opacity:0.502;" d="M1751.4,1354l-356.1,447.2l4.1-356.1L1751.4,1354z"/>
	<path style="fill:#1C282A;fill-opacity:0.502;" d="M1697.5,1490.6l-219.4,190.5l256.7-418.2L1697.5,1490.6z"/>
	<path style="fill:#1B2122;fill-opacity:0.502;" d="M1743.1,1548.6l95.2-12.4l99.4,277.4L1743.1,1548.6z"/>
	<path style="fill:#1C3236;fill-opacity:0.502;" d="M1730.7,1457.5l-178,153.2l364.4-70.4L1730.7,1457.5z"/>
	<path style="fill:#172629;fill-opacity:0.502;" d="M1349.8,2057.9l66.2-521.7l91.1,215.3L1349.8,2057.9z"/>
	<path style="fill:#1D4147;fill-opacity:0.502;" d="M1656.1,1681.1l-8.3,53.8l-161.5-8.3L1656.1,1681.1z"/>
	<path style="fill:#2B474E;fill-opacity:0.502;" d="M1722.4,1801.2l-29,41.4l-74.5-82.8L1722.4,1801.2z"/>
	<path style="fill:#32727F;fill-opacity:0.502;" d="M1618.9,1705.9l-120.1-4.1l-8.3-45.5L1618.9,1705.9z"/>
	<path style="fill:#334A4F;fill-opacity:0.502;" d="M1838.3,1871.6l24.8,74.5l-219.4-29L1838.3,1871.6z"/>
	<path style="fill:#151C1E;fill-opacity:0.502;" d="M1747.2,1685.2l-285.7-157.3l161.5,37.3L1747.2,1685.2z"/>
	<path style="fill:#283234;fill-opacity:0.502;" d="M1846.6,745.3l128.4,716.3l-211.2-211.2L1846.6,745.3z"/>
	<path style="fill:#354346;fill-opacity:0.502;" d="M2119.9,1238l-219.4,49.7l-82.8-91.1L2119.9,1238z"/>
	<path style="fill:#232B2D;fill-opacity:0.502;" d="M1983.2,1035.2l-33.1,451.3l219.4-339.5L1983.2,1035.2z"/>
	<path style="fill:#272628;fill-opacity:0.502;" d="M1921.1,1233.9l62.1-45.5l-161.5-4.1L1921.1,1233.9z"/>
	<path style="fill:#32393B;fill-opacity:0.502;" d="M1970.8,1031l49.7,248.4l-343.6-285.7L1970.8,1031z"/>
	<path style="fill:#2E3334;fill-opacity:0.502;" d="M1888,1209.1L1767.9,1089l248.4-182.2L1888,1209.1z"/>
	<path style="fill:#475D60;fill-opacity:0.502;" d="M1896.3,1312.6l-4.1-70.4l33.1,24.8L1896.3,1312.6z"/>
	<path style="fill:#1C2426;fill-opacity:0.502;" d="M2053.6,1254.6l-314.7,103.5l472,339.5L2053.6,1254.6z"/>
	<path style="fill:#212E30;fill-opacity:0.502;" d="M1974.9,1610.7l-37.3-82.8l-190.5-41.4L1974.9,1610.7z"/>
	<path style="fill:#1F3236;fill-opacity:0.502;" d="M1598.2,1759.8l178-397.5l12.4,165.6L1598.2,1759.8z"/>
	<path style="fill:#202C2D;fill-opacity:0.502;" d="M1900.4,1701.8l-29-389.2l231.9-103.5L1900.4,1701.8z"/>
	<path style="fill:#404B4B;fill-opacity:0.502;" d="M1979.1,1018.6l-33.1,161.5L1859,869.5L1979.1,1018.6z"/>
	<path style="fill:#2A3B3B;fill-opacity:0.502;" d="M1974.9,757.7l-4.1,178L1875.6,766L1974.9,757.7z"/>
	<path style="fill:#263B3C;fill-opacity:0.502;" d="M2057.8,521.7L1519.5,766l182.2-310.5L2057.8,521.7z"/>
	<path style="fill:#202F30;fill-opacity:0.502;" d="M1672.7,832.3L1987.4,617L1917,865.4L1672.7,832.3z"/>
	<path style="fill:#1E2B2B;fill-opacity:0.502;" d="M1639.6,749.5l169.8-149.1l302.2,173.9L1639.6,749.5z"/>
	<path style="fill:#292E30;fill-opacity:0.502;" d="M2024.6,1060l-252.6-24.8l53.8-74.5L2024.6,1060z"/>
	<path style="fill:#1E292A;fill-opacity:0.502;" d="M1896.3,1449.2l-144.9,58l-4.1-87L1896.3,1449.2z"/>
	<path style="fill:#1A2122;fill-opacity:0.502;" d="M1846.6,1461.6l-95.2-120.1l190.5,49.7L1846.6,1461.6z"/>
	<path style="fill:#182325;fill-opacity:0.502;" d="M1883.9,1482.3l29,82.8l248.4-215.3L1883.9,1482.3z"/>
	<path style="fill:#1C1F21;fill-opacity:0.502;" d="M2003.9,1498.9l4.1-173.9l-74.5-58L2003.9,1498.9z"/>
	<path style="fill:#262C2D;fill-opacity:0.502;" d="M1788.6,1345.7L1461.5,1031l422.3,227.7L1788.6,1345.7z"/>
	<path style="fill:#415C5F;fill-opacity:0.502;" d="M1850.7,977.2l95.2-12.4l16.6-62.1L1850.7,977.2z"/>
	<path style="fill:#243637;fill-opacity:0.502;" d="M1784.5,703.9L1668.6,530l91.1,294L1784.5,703.9z"/>
	<path style="fill:#213333;fill-opacity:0.502;" d="M1743.1,716.3l-91.1-62.1l-29,149.1L1743.1,716.3z"/>
	<path style="fill:#344B4D;fill-opacity:0.502;" d="M1859,538.3l107.6,16.6l-161.5-91.1L1859,538.3z"/>
	<path style="fill:#171C1C;fill-opacity:0.502;" d="M1399.4,277.4L2041.2,58l-86.9,463.7L1399.4,277.4z"/>
	<path style="fill:#1C2929;fill-opacity:0.502;" d="M1854.9,679.1l95.2,149.1l49.7-173.9L1854.9,679.1z"/>
	<path style="fill:#354E50;fill-opacity:0.502;" d="M1796.9,919.2l-132.5,37.3l12.4-161.5L1796.9,919.2z"/>
	<path style="fill:#313537;fill-opacity:0.502;" d="M1966.7,1113.8l-99.4-153.2l-12.4,140.8L1966.7,1113.8z"/>
	<path style="fill:#213132;fill-opacity:0.502;" d="M1830,1101.4l95.2,16.6l-120.1,103.5L1830,1101.4z"/>
	<path style="fill:#222E30;fill-opacity:0.502;" d="M1792.8,1171.8l128.4,153.2l-149.1,33.1L1792.8,1171.8z"/>
	<path style="fill:#293234;fill-opacity:0.502;" d="M2020.5,1333.3l111.8-111.8l-153.2-144.9L2020.5,1333.3z"/>
	<path style="fill:#9F6E5E;fill-opacity:0.502;" d="M2173.7,1072.4l-41.4,41.4l-12.4-82.8L2173.7,1072.4z"/>
	<path style="fill:#222729;fill-opacity:0.502;" d="M2008.1,1209.1l-78.7-33.1l-41.4,49.7L2008.1,1209.1z"/>
	<path style="fill:#424343;fill-opacity:0.502;" d="M1685.1,1196.6l111.8-111.8l-49.7-103.5L1685.1,1196.6z"/>
	<path style="fill:#312E2B;fill-opacity:0.502;" d="M2090.9,960.6l149.1,136.6l-194.6-53.8L2090.9,960.6z"/>
	<path style="fill:#1B2829;fill-opacity:0.502;" d="M2057.8,583.8l-153.2-190.5l380.9-49.7L2057.8,583.8z"/>
	<path style="fill:#161B1A;fill-opacity:0.502;" d="M2500.8,103.5L2302,463.7l-322.9-240.2L2500.8,103.5z"/>
	<path style="fill:#1D2F30;fill-opacity:0.502;" d="M2165.4,107.7l-165.6,190.5l4.1,140.8L2165.4,107.7z"/>
	<path style="fill:#181C1B;fill-opacity:0.502;" d="M2169.5,173.9l-467.9,107.7l360.2,24.8L2169.5,173.9z"/>
	<path style="fill:#1A2626;fill-opacity:0.502;" d="M2066,517.6l463.7,426.5l24.8-372.7L2066,517.6z"/>
	<path style="fill:#2E3E3E;fill-opacity:0.502;" d="M2492.5,658.4l227.7-29l-314.7-169.8L2492.5,658.4z"/>
	<path style="fill:#1A2120;fill-opacity:0.502;" d="M2782.3,219.5l-666.6-178L2252.4,588L2782.3,219.5z"/>
	<path style="fill:#1A2020;fill-opacity:0.502;" d="M1734.8,8.3l393.3,95.2l-356.1,422.3L1734.8,8.3z"/>
	<path style="fill:#1E2C2D;fill-opacity:0.502;" d="M1291.8,231.9l260.8,352l397.5,8.3L1291.8,231.9z"/>
	<path style="fill:#2A494C;fill-opacity:0.502;" d="M1358,467.9L1192.4,559l66.2-136.6L1358,467.9z"/>
	<path style="fill:#324748;fill-opacity:0.502;" d="M1300.1,513.4l190.5,107.7l53.8-107.7H1300.1z"/>
	<path style="fill:#203334;fill-opacity:0.502;" d="M1531.9,517.6L1180,393.4l107.6,111.8L1531.9,517.6z"/>
	<path style="fill:#324B4E;fill-opacity:0.502;" d="M1378.7,625.2l-95.2-8.3l-8.3,37.3L1378.7,625.2z"/>
	<path style="fill:#1A201F;fill-opacity:0.502;" d="M1585.8,484.5L1345.6-66.2l409.9,339.5L1585.8,484.5z"/>
	<path style="fill:#2F5659;fill-opacity:0.502;" d="M2248.2,650.1l-24.8-53.8l-70.4,29L2248.2,650.1z"/>
	<path style="fill:#1B2525;fill-opacity:0.502;" d="M2066,306.4l-58,165.6l658.3,132.5L2066,306.4z"/>
	<path style="fill:#1F2D2D;fill-opacity:0.502;" d="M2268.9,376.8l-190.5,58l103.5-87L2268.9,376.8z"/>
	<path style="fill:#192222;fill-opacity:0.502;" d="M2562.9,782.6l-269.1,82.8l-8.3-571.4L2562.9,782.6z"/>
	<path style="fill:#1D2728;fill-opacity:0.502;" d="M2438.7,1018.6l-339.5-608.7l227.7,107.7L2438.7,1018.6z"/>
	<path style="fill:#171E1F;fill-opacity:0.502;" d="M1921.1,265l447.2,99.4l-41.4-252.6L1921.1,265z"/>
	<path style="fill:#1C2728;fill-opacity:0.502;" d="M1382.9,463.7l385.1-302.3L1639.6-29L1382.9,463.7z"/>
	<path style="fill:#253B3C;fill-opacity:0.502;" d="M1233.8,107.7L1445,178l-294-16.6L1233.8,107.7z"/>
	<path style="fill:#20201B;fill-opacity:0.502;" d="M823.9-66.2l376.8,99.4l-144.9,397.5L823.9-66.2z"/>
	<path style="fill:#201F1A;fill-opacity:0.502;" d="M989.5,285.7l-592.1-352L107.6,49.7L989.5,285.7z"/>
	<path style="fill:#283B3B;fill-opacity:0.502;" d="M695.6,132.5l-12.4,29L650,144.9L695.6,132.5z"/>
	<path style="fill:#34423F;fill-opacity:0.502;" d="M587.9,236l41.4,20.7l12.4-41.4L587.9,236z"/>
	<path style="fill:#292926;fill-opacity:0.502;" d="M492.7,575.5l289.8,153.2L414,960.6L492.7,575.5z"/>
	<path style="fill:#222A27;fill-opacity:0.502;" d="M1117.9,95.2L567.2,298.1l306.4,107.7L1117.9,95.2z"/>
	<path style="fill:#1F1E1B;fill-opacity:0.502;" d="M1440.8,447.2l-409.9-132.5l-74.5-211.2L1440.8,447.2z"/>
	<path style="fill:#1C2323;fill-opacity:0.502;" d="M1767.9,347.8L1122,78.7l472,372.7L1767.9,347.8z"/>
	<path style="fill:#1B2B2B;fill-opacity:0.502;" d="M1863.2,418.2l37.3,169.8h-49.7L1863.2,418.2z"/>
	<path style="fill:#172020;fill-opacity:0.502;" d="M1999.8,530l-62.1-198.7l-136.6,49.7L1999.8,530z"/>
	<path style="fill:#1C1F1F;fill-opacity:0.502;" d="M1676.8,501l182.2-70.4l16.6-380.9L1676.8,501z"/>
	<path style="fill:#202C2B;fill-opacity:0.502;" d="M989.5,91.1l244.3,244.3l302.2,8.3L989.5,91.1z"/>
	<path style="fill:#1C1C1A;fill-opacity:0.502;" d="M596.2,732.9l-662.5-58V194.6L596.2,732.9z"/>
	<path style="fill:#1E221F;fill-opacity:0.502;" d="M513.4,335.4L252.6-58L-37.3,828.1L513.4,335.4z"/>
	<path style="fill:#111416;fill-opacity:0.502;" d="M1681,1842.6l-244.3,99.4l53.8,132.5L1681,1842.6z"/>
	<path style="fill:#1F2B2E;fill-opacity:0.502;" d="M1469.8,2215.2L1217.3,1913l111.8-4.1L1469.8,2215.2z"/>
	<path style="fill:#304E55;fill-opacity:0.502;" d="M1391.2,2132.4l91.1-277.4l-82.8,41.4L1391.2,2132.4z"/>
	<path style="fill:#395257;fill-opacity:0.502;" d="M1258.7,2016.5l240.1,45.5l-207,115.9L1258.7,2016.5z"/>
	<path style="fill:#212C2E;fill-opacity:0.502;" d="M1411.9,1913l-103.5,74.5l70.4,87L1411.9,1913z"/>
	<path style="fill:#223539;fill-opacity:0.502;" d="M1498.8,2194.5l-29-103.5l-132.5-8.3L1498.8,2194.5z"/>
	<path style="fill:#192F34;fill-opacity:0.502;" d="M944,2041.3l364.4,66.2L981.3,1913L944,2041.3z"/>
	<path style="fill:#151617;fill-opacity:0.502;" d="M1287.6,2182.1l-78.7,211.2l215.3-58L1287.6,2182.1z"/>
	<path style="fill:#183E45;fill-opacity:0.502;" d="M1291.8,2194.5l-120.1-207l-33.1,260.9L1291.8,2194.5z"/>
	<path style="fill:#646767;fill-opacity:0.502;" d="M1093.1,2422.3l136.6-153.2l16.6,53.8L1093.1,2422.3z"/>
	<path style="fill:#493C38;fill-opacity:0.502;" d="M1254.5,2219.4v95.2l-49.7-12.4L1254.5,2219.4z"/>
	<path style="fill:#1D3338;fill-opacity:0.502;" d="M1142.7,2422.3l-95.2-248.4l-99.4,376.8L1142.7,2422.3z"/>
	<path style="fill:#262222;fill-opacity:0.502;" d="M1039.2,2351.9l215.3-128.4l-49.7,91.1L1039.2,2351.9z"/>
	<path style="fill:#162C31;fill-opacity:0.502;" d="M1068.2,2020.6l37.3,144.9l302.2-323L1068.2,2020.6z"/>
	<path style="fill:#0A2125;fill-opacity:0.502;" d="M1030.9,2215.2l86.9-49.7l-12.4,186.3L1030.9,2215.2z"/>
	<path style="fill:#152124;fill-opacity:0.502;" d="M1146.9,2198.7l-153.2-198.7l173.9,124.2L1146.9,2198.7z"/>
	<path style="fill:#1D4B52;fill-opacity:0.502;" d="M948.1,2240.1l132.5,4.1l-111.8,99.4L948.1,2240.1z"/>
	<path style="fill:#182426;fill-opacity:0.502;" d="M948.1,2414l194.6-198.7l-120.1,240.2L948.1,2414z"/>
	<path style="fill:#1A2A2E;fill-opacity:0.502;" d="M939.9,2529.9l107.6-144.9l-78.7-219.5L939.9,2529.9z"/>
	<path style="fill:#172629;fill-opacity:0.502;" d="M1122,2376.7l-95.2-190.5l120.1,128.4L1122,2376.7z"/>
	<path style="fill:#274348;fill-opacity:0.502;" d="M944,2335.3l124.2,37.3l-115.9-82.8L944,2335.3z"/>
	<path style="fill:#1F2324;fill-opacity:0.502;" d="M1180,2293.9l-120.1,41.4v74.5L1180,2293.9z"/>
	<path style="fill:#5A5D5E;fill-opacity:0.502;" d="M1171.7,2380.9l-8.3-62.1l-153.2,157.3L1171.7,2380.9z"/>
	<path style="fill:#0D0E0F;fill-opacity:0.502;" d="M1014.4,2496.8l-8.3,107.7l194.6-215.3L1014.4,2496.8z"/>
	<path style="fill:#2C383B;fill-opacity:0.502;" d="M1014.4,2322.9l20.7,62.1l78.7-4.1L1014.4,2322.9z"/>
	<path style="fill:#212528;fill-opacity:0.502;" d="M1490.5,2269.1l-223.6-82.8l107.6,173.9L1490.5,2269.1z"/>
	<path style="fill:#151D20;fill-opacity:0.502;" d="M1440.8,1958.5l74.5,252.6l78.7-463.7L1440.8,1958.5z"/>
	<path style="fill:#1A2224;fill-opacity:0.502;" d="M1627.2,1739.1l29,202.9l-343.6-128.4L1627.2,1739.1z"/>
	<path style="fill:#1B3F46;fill-opacity:0.502;" d="M1502.9,1788.7l-49.7-45.5l37.3-91.1L1502.9,1788.7z"/>
	<path style="fill:#20292C;fill-opacity:0.502;" d="M1879.7,1896.4l-298.1,4.1l-49.7-124.2L1879.7,1896.4z"/>
	<path style="fill:#1E2D31;fill-opacity:0.502;" d="M1664.4,1913l-115.9-33.1l82.8-194.6L1664.4,1913z"/>
	<path style="fill:#1E1E1F;fill-opacity:0.502;" d="M1734.8,1884l120.1,8.3l-182.2-281.6L1734.8,1884z"/>
	<path style="fill:#18282B;fill-opacity:0.502;" d="M1656.1,1714.2l-260.8-231.9l-78.7,62.1L1656.1,1714.2z"/>
	<path style="fill:#19181A;fill-opacity:0.502;" d="M1527.8,1875.7l-136.6-45.5l37.3-87L1527.8,1875.7z"/>
	<path style="fill:#1A2021;fill-opacity:0.502;" d="M1478.1,1863.3l41.4-120.1l49.7-4.1L1478.1,1863.3z"/>
	<path style="fill:#1E3D42;fill-opacity:0.502;" d="M1246.2,2140.7h62.1l-49.7-194.6L1246.2,2140.7z"/>
	<path style="fill:#1D3438;fill-opacity:0.502;" d="M1312.5,2194.5l-223.6,120.1l78.7-128.4L1312.5,2194.5z"/>
	<path style="fill:#2B393B;fill-opacity:0.502;" d="M1287.6,2190.4l182.2,20.7l-99.4,45.5L1287.6,2190.4z"/>
	<path style="fill:#2E3A3D;fill-opacity:0.502;" d="M1320.8,2107.6h70.4l-8.3-78.7L1320.8,2107.6z"/>
	<path style="fill:#1B373D;fill-opacity:0.502;" d="M1767.9,1921.2l-285.7,194.6l62.1-120.1L1767.9,1921.2z"/>
	<path style="fill:#2A4349;fill-opacity:0.502;" d="M1656.1,1739.1l62.1,91.1l-66.2,4.1L1656.1,1739.1z"/>
	<path style="fill:#141516;fill-opacity:0.502;" d="M1453.3,2033l29-107.7h173.9L1453.3,2033z"/>
	<path style="fill:#202426;fill-opacity:0.502;" d="M1970.8,1805.3l-74.5-215.3l-144.9,368.5L1970.8,1805.3z"/>
	<path style="fill:#27383B;fill-opacity:0.502;" d="M1689.3,1677l207,58l-66.2,29L1689.3,1677z"/>
	<path style="fill:#141E20;fill-opacity:0.502;" d="M1730.7,1648l-24.8,78.7l-58-41.4L1730.7,1648z"/>
	<path style="fill:#1C3236;fill-opacity:0.502;" d="M1718.2,1747.3l-136.6,4.1l62.1-78.7L1718.2,1747.3z"/>
	<path style="fill:#1F4A51;fill-opacity:0.502;" d="M1602.3,1548.6l111.8,58l-37.3-58H1602.3z"/>
	<path style="fill:#1D292B;fill-opacity:0.502;" d="M1681,1772.2l-33.1-49.7l223.6-29L1681,1772.2z"/>
	<path style="fill:#29555D;fill-opacity:0.502;" d="M1581.6,1726.6l70.4-53.8l-58-4.1L1581.6,1726.6z"/>
	<path style="fill:#374044;fill-opacity:0.502;" d="M1801.1,1838.4l16.6,120.1l58-144.9L1801.1,1838.4z"/>
	<path style="fill:#21464D;fill-opacity:0.502;" d="M1796.9,1701.8l-66.2,20.7v-62.1L1796.9,1701.8z"/>
	<path style="fill:#1C1A19;fill-opacity:0.502;" d="M2003.9,1743.2l107.6-244.3l74.5,418.2L2003.9,1743.2z"/>
	<path style="fill:#212C2E;fill-opacity:0.502;" d="M2049.5,1304.3l-157.3,111.8l219.4-53.8L2049.5,1304.3z"/>
	<path style="fill:#2D4144;fill-opacity:0.502;" d="M1974.9,1242.2l45.5,33.1l-20.7-66.2L1974.9,1242.2z"/>
	<path style="fill:#1F1B19;fill-opacity:0.502;" d="M2239.9,1250.5l-153.2-173.9l-82.8,20.7L2239.9,1250.5z"/>
	<path style="fill:#1A1F20;fill-opacity:0.502;" d="M2111.6,1577.6l128.4-211.2l-128.4-144.9V1577.6z"/>
	<path style="fill:#3A4547;fill-opacity:0.502;" d="M1962.5,1188.4l16.6-111.8l-58,58L1962.5,1188.4z"/>
	<path style="fill:#282829;fill-opacity:0.502;" d="M2136.4,1325l-86.9-260.9l144.9,202.9L2136.4,1325z"/>
	<path style="fill:#242F30;fill-opacity:0.502;" d="M2061.9,1031l-103.5,132.5l70.4-8.3L2061.9,1031z"/>
	<path style="fill:#222526;fill-opacity:0.502;" d="M1974.9,1060h111.8l41.4,140.8L1974.9,1060z"/>
	<path style="fill:#252C2E;fill-opacity:0.502;" d="M1908.7,1188.4l149.1-8.3l20.7,58L1908.7,1188.4z"/>
	<path style="fill:#343637;fill-opacity:0.502;" d="M1925.3,1147l-115.9,99.4l91.1-16.6L1925.3,1147z"/>
	<path style="fill:#3D3E3E;fill-opacity:0.502;" d="M1995.6,1031l-82.8,62.1l-16.6-41.4L1995.6,1031z"/>
	<path style="fill:#263D41;fill-opacity:0.502;" d="M157.3,1970.9l-8.3,190.5l306.4-41.4L157.3,1970.9z"/>
	<path style="fill:#182628;fill-opacity:0.502;" d="M538.2,1900.5l-265,393.4l-70.4-418.2L538.2,1900.5z"/>
	<path style="fill:#1D2628;fill-opacity:0.502;" d="M612.8,2136.6l-227.7-273.3l-289.8,16.6L612.8,2136.6z"/>
	<path style="fill:#475456;fill-opacity:0.502;" d="M273.3,2074.5l-136.6,107.7l78.7-107.7H273.3z"/>
	<path style="fill:#1A2627;fill-opacity:0.502;" d="M153.2,2447.1l-219.4-347.8L82.8,2033L153.2,2447.1z"/>
	<path style="fill:#2C3F42;fill-opacity:0.502;" d="M-16.6,2426.4l265-256.7l-49.7-318.8L-16.6,2426.4z"/>
	<path style="fill:#1C2B2C;fill-opacity:0.502;" d="M186.3,2190.4l-252.6,186.3l153.2-405.8L186.3,2190.4z"/>
	<path style="fill:#435455;fill-opacity:0.502;" d="M58,2310.5l8.3,58l-103.5,24.8L58,2310.5z"/>
	<path style="fill:#3F4647;fill-opacity:0.502;" d="M103.5,2389.1L-29,2467.8l136.6,16.6L103.5,2389.1z"/>
	<path style="fill:#192729;fill-opacity:0.502;" d="M-66.2,1772.2l136.6,476.2l-136.6,240.2V1772.2z"/>
	<path style="fill:#162628;fill-opacity:0.502;" d="M182.2,2248.4h405.8L8.3,2405.7L182.2,2248.4z"/>
	<path style="fill:#1F383D;fill-opacity:0.502;" d="M331.2,2037.2l-70.4,480.3L443,2107.6L331.2,2037.2z"/>
	<path style="fill:#17272A;fill-opacity:0.502;" d="M579.6,2182.1l62.1-219.5l-240.1,198.7L579.6,2182.1z"/>
	<path style="fill:#172528;fill-opacity:0.502;" d="M472,2269.1l45.5-211.2l82.8,269.1L472,2269.1z"/>
	<path style="fill:#192729;fill-opacity:0.502;" d="M194.6,2244.2l207,82.8l124.2-95.2L194.6,2244.2z"/>
	<path style="fill:#192C2E;fill-opacity:0.502;" d="M385.1,2240.1l-227.7,157.3l236-285.7L385.1,2240.1z"/>
	<path style="fill:#192A2D;fill-opacity:0.502;" d="M372.6,2422.3L347.8,2120L236,2062L372.6,2422.3z"/>
	<path style="fill:#192729;fill-opacity:0.502;" d="M240.1,2095.2l12.4,198.7l41.4-58L240.1,2095.2z"/>
	<path style="fill:#2D5055;fill-opacity:0.502;" d="M265,2405.7l-49.7-33.1l-20.7,111.8L265,2405.7z"/>
	<path style="fill:#223C40;fill-opacity:0.502;" d="M335.4,2256.6l-62.1,107.7l70.4,231.9L335.4,2256.6z"/>
	<path style="fill:#1B292A;fill-opacity:0.502;" d="M277.4,2571.3l-343.6,215.3L29,2455.4L277.4,2571.3z"/>
	<path style="fill:#1D2F31;fill-opacity:0.502;" d="M37.3,2658.3l252.6-281.6l-144.9,343.7L37.3,2658.3z"/>
	<path style="fill:#172729;fill-opacity:0.502;" d="M260.8,2463.7l-327.1,265l62.1-231.9L260.8,2463.7z"/>
	<path style="fill:#273C3E;fill-opacity:0.502;" d="M128.4,2658.3v-58l-115.9,82.8L128.4,2658.3z"/>
	<path style="fill:#455050;fill-opacity:0.502;" d="M99.4,2393.3v87l-33.1,20.7L99.4,2393.3z"/>
	<path style="fill:#1C2E31;fill-opacity:0.502;" d="M310.5,2178l115.9,20.7l-306.4,265L310.5,2178z"/>
	<path style="fill:#202E2F;fill-opacity:0.502;" d="M190.5,2351.9l4.1,91.1l-132.5,66.2L190.5,2351.9z"/>
	<path style="fill:#18282A;fill-opacity:0.502;" d="M244.3,2430.5l111.8-45.5L472,2496.8L244.3,2430.5z"/>
	<path style="fill:#1E2D2F;fill-opacity:0.502;" d="M505.1,2393.3l-178-260.9l-16.6,95.2L505.1,2393.3z"/>
	<path style="fill:#1B2E30;fill-opacity:0.502;" d="M587.9,2103.4l-542.4-29l322.9-70.4L587.9,2103.4z"/>
	<path style="fill:#172225;fill-opacity:0.502;" d="M575.5,1999.9l364.4-281.6l-451.3,173.9L575.5,1999.9z"/>
	<path style="fill:#1A2527;fill-opacity:0.502;" d="M467.9,1904.7l124.2,178L716.3,1855L467.9,1904.7z"/>
	<path style="fill:#201513;fill-opacity:0.502;" d="M372.6,1573.4l501,20.7L215.3,1913L372.6,1573.4z"/>
	<path style="fill:#181413;fill-opacity:0.502;" d="M579.6,1768l-368.5,37.3l269.1,124.2L579.6,1768z"/>
	<path style="fill:#1F373C;fill-opacity:0.502;" d="M679,1834.3l-16.6,120.1l-16.6-49.7L679,1834.3z"/>
	<path style="fill:#10181A;fill-opacity:0.502;" d="M662.5,1867.4l322.9-231.9l-33.1,236L662.5,1867.4z"/>
	<path style="fill:#151A1B;fill-opacity:0.502;" d="M650,1966.8l-20.7-78.7l-120.1,186.3L650,1966.8z"/>
	<path style="fill:#1E3033;fill-opacity:0.502;" d="M376.8,1937.8l207,8.3l-74.5,37.3L376.8,1937.8z"/>
	<path style="fill:#131112;fill-opacity:0.502;" d="M1039.2,2041.3l111.8-401.6l86.9,252.6L1039.2,2041.3z"/>
	<path style="fill:#14333A;fill-opacity:0.502;" d="M931.6,1809.5l-53.8-53.8l82.8-16.6L931.6,1809.5z"/>
	<path style="fill:#1B2C31;fill-opacity:0.502;" d="M1196.6,2107.6l-140.8-198.7l-103.5,45.5L1196.6,2107.6z"/>
	<path style="fill:#111111;fill-opacity:0.502;" d="M886,1929.5l161.5-70.4l-211.2-45.5L886,1929.5z"/>
	<path style="fill:#141415;fill-opacity:0.502;" d="M1180,1639.7l-302.2,41.4l310.5,182.2L1180,1639.7z"/>
	<path style="fill:#1E464D;fill-opacity:0.502;" d="M1184.1,1726.6l252.6,12.4l-45.5-62.1L1184.1,1726.6z"/>
	<path style="fill:#1B2325;fill-opacity:0.502;" d="M1676.8,1416.1l-128.4,16.6l161.5,132.5L1676.8,1416.1z"/>
	<path style="fill:#232D30;fill-opacity:0.502;" d="M1983.2,1751.5l-4.1-248.4l62.1,70.4L1983.2,1751.5z"/>
	<path style="fill:#242C2E;fill-opacity:0.502;" d="M2132.3,1503l-149.1-12.4l-66.2-87L2132.3,1503z"/>
	<path style="fill:#293A3D;fill-opacity:0.502;" d="M1817.6,1428.5l20.7,66.2l-78.7,87L1817.6,1428.5z"/>
	<path style="fill:#253033;fill-opacity:0.502;" d="M1962.5,1383l-74.5-82.8l66.2,144.9L1962.5,1383z"/>
	<path style="fill:#222F32;fill-opacity:0.502;" d="M1929.4,1412l-91.1,66.2l132.5-41.4L1929.4,1412z"/>
	<path style="fill:#2D3538;fill-opacity:0.502;" d="M1879.7,1275.3l-12.4,53.8l66.2-24.8L1879.7,1275.3z"/>
	<path style="fill:#24393E;fill-opacity:0.502;" d="M1879.7,1689.4l62.1-66.2l4.1-91.1L1879.7,1689.4z"/>
	<path style="fill:#1C2425;fill-opacity:0.502;" d="M1908.7,1507.2l-78.7-248.4l-24.8,124.2L1908.7,1507.2z"/>
	<path style="fill:#243537;fill-opacity:0.502;" d="M1751.4,1594.1l-103.5-285.7l86.9,58L1751.4,1594.1z"/>
	<path style="fill:#202323;fill-opacity:0.502;" d="M2182,1420.2L2066,1287.7l252.6,37.3L2182,1420.2z"/>
	<path style="fill:#1C292B;fill-opacity:0.502;" d="M1759.6,1412l82.8,111.8l-70.4-29L1759.6,1412z"/>
	<path style="fill:#1C272A;fill-opacity:0.502;" d="M1974.9,1639.7l-58-223.6l91.1,99.4L1974.9,1639.7z"/>
	<path style="fill:#171F1F;fill-opacity:0.502;" d="M2024.6,1503l-41.4-20.7V1354L2024.6,1503z"/>
	<path style="fill:#1C2325;fill-opacity:0.502;" d="M1941.8,1362.3l-45.5,58l-70.4-33.1L1941.8,1362.3z"/>
	<path style="fill:#1B3032;fill-opacity:0.502;" d="M1888,935.8l-289.8,136.6l-136.6-74.5L1888,935.8z"/>
	<path style="fill:#1C2525;fill-opacity:0.502;" d="M1743.1,861.2l-95.2-70.4l223.6,66.2L1743.1,861.2z"/>
	<path style="fill:#192425;fill-opacity:0.502;" d="M1614.7,890.2l49.7,240.2l-140.8-269.1L1614.7,890.2z"/>
	<path style="fill:#203031;fill-opacity:0.502;" d="M1664.4,567.3l124.2,194.6l111.8,8.3L1664.4,567.3z"/>
	<path style="fill:#283B3C;fill-opacity:0.502;" d="M1796.9,699.8l-66.2,103.5l-4.1-144.9L1796.9,699.8z"/>
	<path style="fill:#1D2929;fill-opacity:0.502;" d="M1830,592.1l-29,115.9l-45.5-53.8L1830,592.1z"/>
	<path style="fill:#1C292A;fill-opacity:0.502;" d="M1610.6,993.7l58-107.7l-149.1,58L1610.6,993.7z"/>
	<path style="fill:#202D2C;fill-opacity:0.502;" d="M1950.1,848.8l-103.5,20.7l-24.8-95.2L1950.1,848.8z"/>
	<path style="fill:#56767A;fill-opacity:0.502;" d="M1705.8,766l-86.9,20.7l115.9,4.1L1705.8,766z"/>
	<path style="fill:#213233;fill-opacity:0.502;" d="M1763.8,766l140.8-24.8l-219.4,153.2L1763.8,766z"/>
	<path style="fill:#181D1D;fill-opacity:0.502;" d="M2529.8,691.5l-8.3,380.9l-128.4-505.2L2529.8,691.5z"/>
	<path style="fill:#313E3D;fill-opacity:0.502;" d="M2533.9,592.1l49.7,194.6l-169.8-244.3L2533.9,592.1z"/>
	<path style="fill:#1B2626;fill-opacity:0.502;" d="M2542.2,699.8l-78.7-99.4l-86.9,248.4L2542.2,699.8z"/>
	<path style="fill:#1B1F1E;fill-opacity:0.502;" d="M2707.8,492.7l-58,140.8l-178-107.7L2707.8,492.7z"/>
	<path style="fill:#1C2524;fill-opacity:0.502;" d="M2894.1,534.1l-202.9,66.2L2823.7-8.3L2894.1,534.1z"/>
	<path style="fill:#181C1C;fill-opacity:0.502;" d="M2682.9,563.1l202.9-273.3l-70.4,559L2682.9,563.1z"/>
	<path style="fill:#1D211F;fill-opacity:0.502;" d="M2894.1,467.9L2521.5,178l273.3,513.4L2894.1,467.9z"/>
	<path style="fill:#2F3A37;fill-opacity:0.502;" d="M2823.7,298.1l-37.3,103.5l-157.3-227.7L2823.7,298.1z"/>
	<path style="fill:#3D3F3A;fill-opacity:0.502;" d="M2600.1,356.1l66.2,115.9l-86.9,16.6L2600.1,356.1z"/>
	<path style="fill:#1C2A2B;fill-opacity:0.502;" d="M1962.5,517.6l-99.4-87l-91.1,20.7L1962.5,517.6z"/>
	<path style="fill:#1E1F1E;fill-opacity:0.502;" d="M1221.4,356.1h157.3l45.5,144.9L1221.4,356.1z"/>
	<path style="fill:#233435;fill-opacity:0.502;" d="M1055.8,521.7V414.1l-306.4-87L1055.8,521.7z"/>
	<path style="fill:#263332;fill-opacity:0.502;" d="M906.7,401.6L956.4,294l-227.7,87L906.7,401.6z"/>
	<path style="fill:#273737;fill-opacity:0.502;" d="M786.7,559v178l70.4-103.5L786.7,559z"/>
	<path style="fill:#232B2A;fill-opacity:0.502;" d="M1105.5,542.4L579.6,223.6L886,778.4L1105.5,542.4z"/>
	<path style="fill:#2D403F;fill-opacity:0.502;" d="M496.8,352l144.9,157.3l-95.2-58L496.8,352z"/>
	<path style="fill:#20221E;fill-opacity:0.502;" d="M819.8,140.8l107.6,219.5l-310.5-99.4L819.8,140.8z"/>
	<path style="fill:#242724;fill-opacity:0.502;" d="M641.8,318.8L766,828.1l-327.1,82.8L641.8,318.8z"/>
	<path style="fill:#1C1E1D;fill-opacity:0.502;" d="M1308.4,37.3l207,12.4l231.9,323L1308.4,37.3z"/>
	<path style="fill:#2E4D50;fill-opacity:0.502;" d="M1391.2,173.9l-37.3,8.3l-4.1-41.4L1391.2,173.9z"/>
	<path style="fill:#1F201D;fill-opacity:0.502;" d="M1184.1,99.4l78.7,157.3l-12.4-182.2L1184.1,99.4z"/>
	<path style="fill:#222B27;fill-opacity:0.502;" d="M815.6,8.3l169.8,211.2L426.5,0L815.6,8.3z"/>
	<path style="fill:#21221F;fill-opacity:0.502;" d="M538.2,169.8l244.3,33.1l-49.7,70.4L538.2,169.8z"/>
	<path style="fill:#21211E;fill-opacity:0.502;" d="M815.6,207l198.7,4.1l-4.1,78.7L815.6,207z"/>
	<path style="fill:#1E1F1B;fill-opacity:0.502;" d="M989.5-41.4L737-66.2l322.9,318.8L989.5-41.4z"/>
	<path style="fill:#1B1A16;fill-opacity:0.502;" d="M712.1,144.9l91.1,62.1l-115.9-33.1L712.1,144.9z"/>
</g>
<g id="sun_x5F_gradient">
	<radialGradient id="SVGID_1_" cx="-596.6821" cy="-658.8273" r="2786.9187" gradientUnits="userSpaceOnUse">
		<stop  offset="0" style="stop-color:#FF5715"/>
		<stop  offset="1" style="stop-color:#FFFA2A;stop-opacity:0"/>
	</radialGradient>
	<rect x="-52.7" y="-27.5" style="opacity:0.32;fill:url(#SVGID_1_);" width="3511.1" height="2690.5"/>
</g>
<g id="sea_x5F__x5F_shine">
	<path style="fill:#7C9EA3;fill-opacity:0.502;" d="M2072.2,925.4l33.1-211.2l-173.9,323L2072.2,925.4z"/>
	<path style="fill:#516F74;fill-opacity:0.502;" d="M453.4,2279.4l-115.9,37.3l12.4,107.7L453.4,2279.4z"/>
	<path style="fill:#26626D;fill-opacity:0.502;" d="M1500.9,1265l-41.4,78.7l207,33.1L1500.9,1265z"/>
	<path style="fill:#465D60;fill-opacity:0.502;" d="M-10.4,2047.5L118,1873.6l-211.2,115.9L-10.4,2047.5z"/>
	<path style="fill:#7F9EA3;fill-opacity:0.502;" d="M1720.3,859.2l49.7,12.4l-78.7,45.5L1720.3,859.2z"/>
	<path style="fill:#799EA2;fill-opacity:0.502;" d="M1914.9,954.4l-91.1-66.2l58-33.1L1914.9,954.4z"/>
	<path style="fill:#6EA8B1;fill-opacity:0.502;" d="M2130.2,598.3l-82.8,95.2l-45.5-107.7L2130.2,598.3z"/>
	<path style="fill:#59777E;fill-opacity:0.502;" d="M1463.6,1062.1l-8.3,53.8l91.1,41.4L1463.6,1062.1z"/>
	<path style="fill:#9BC2C7;fill-opacity:0.502;" d="M1513.3,834.3l-37.3-70.4l74.5,20.7L1513.3,834.3z"/>
	<path style="fill:#1D484F;fill-opacity:0.502;" d="M1442.9,1691.4l-169.8,91.1l-140.8-128.4L1442.9,1691.4z"/>
	<path style="fill:#73A8B0;fill-opacity:0.502;" d="M1223.5,490.7l-58,91.1l120.1-37.3L1223.5,490.7z"/>
	<path style="fill:#4D7073;fill-opacity:0.502;" d="M1604.4,917.1l82.8-153.2h-144.9L1604.4,917.1z"/>
	<path style="fill:#4FA4B8;fill-opacity:0.502;" d="M1542.3,1600.3l-33.1,12.4l70.4,41.4L1542.3,1600.3z"/>
	<path style="fill:#7A9EA4;fill-opacity:0.502;" d="M1923.2,1004.1l70.4,37.3l8.3-49.7L1923.2,1004.1z"/>
	<path style="fill:#71A5AC;fill-opacity:0.502;" d="M2523.5,689.4l4.1-58l70.4,58H2523.5z"/>
	<path style="fill:#5B807F;fill-opacity:0.502;" d="M2697.4,113.9l53.8,66.2l-33.1-107.7L2697.4,113.9z"/>
	<path style="fill:#305C65;fill-opacity:0.502;" d="M1774.1,1616.9l-41.4,95.2l-91.1-120.1L1774.1,1616.9z"/>
	<path style="fill:#79A8AD;fill-opacity:0.502;" d="M2097.1,809.5l-20.7,153.2L2010.1,855L2097.1,809.5z"/>
	<path style="fill:#4C7C84;fill-opacity:0.502;" d="M279.5,2527.8l70.4,74.5l-4.1-53.8L279.5,2527.8z"/>
	<path style="fill:#2B535A;fill-opacity:0.502;" d="M486.5,2010.3l-4.1-41.4l-49.7,20.7L486.5,2010.3z"/>
	<path style="fill:#416166;fill-opacity:0.502;" d="M1480.2,995.8l-49.7-128.4l66.2,16.6L1480.2,995.8z"/>
	<path style="fill:#3F8998;fill-opacity:0.502;" d="M1575.4,1666.6l33.1-20.7l-95.2-49.7L1575.4,1666.6z"/>
	<path style="fill:#2B5C64;fill-opacity:0.502;" d="M1645.8,1335.3l-70.4,41.4l4.1-78.7L1645.8,1335.3z"/>
	<path style="fill:#6D8188;fill-opacity:0.502;" d="M1823.8,1596.2l37.3-45.5l-53.8,12.4L1823.8,1596.2z"/>
	<path style="fill:#385F64;fill-opacity:0.502;" d="M1832.1,797.1l58-8.3l-70.4-41.4L1832.1,797.1z"/>
	<path style="fill:#4E5B5D;fill-opacity:0.502;" d="M1956.3,1231.8l-58-16.6l4.1,37.3L1956.3,1231.8z"/>
	<path style="fill:#355156;fill-opacity:0.502;" d="M1819.7,1310.5l37.3,41.4l-16.6,16.6L1819.7,1310.5z"/>
	<path style="fill:#42626A;fill-opacity:0.502;" d="M1799,1501h41.4l-20.7-37.3L1799,1501z"/>
	<path style="fill:#445357;fill-opacity:0.502;" d="M1861.1,1231.8l-24.8,45.5l37.3,12.4L1861.1,1231.8z"/>
	<path style="fill:#3D585A;fill-opacity:0.502;" d="M1600.2,652.1l136.6-95.2l-70.4,103.5L1600.2,652.1z"/>
	<path style="fill:#325356;fill-opacity:0.502;" d="M1919.1,519.6l107.6,45.5L1828,614.9L1919.1,519.6z"/>
	<path style="fill:#3F656B;fill-opacity:0.502;" d="M1828,772.2l24.8,20.7l4.1-33.1L1828,772.2z"/>
	<path style="fill:#61A1AA;fill-opacity:0.502;" d="M2092.9,623.2l-140.8-49.7v66.2L2092.9,623.2z"/>
	<path style="fill:#657E7F;fill-opacity:0.502;" d="M1281.4,573.5l4.1,157.3l66.2-190.5L1281.4,573.5z"/>
	<path style="fill:#274145;fill-opacity:0.502;" d="M1956.3,304.3l49.7,8.3l-45.5,74.5L1956.3,304.3z"/>
	<path style="fill:#334749;fill-opacity:0.502;" d="M1799,523.8l-20.7-58l53.8-20.7L1799,523.8z"/>
	<path style="fill:#153F47;fill-opacity:0.502;" d="M975.1,2175.9l186.3-223.6l-4.1,95.2L975.1,2175.9z"/>
	<path style="fill:#236571;fill-opacity:0.502;" d="M962.6,2271.1l45.5,16.6l-49.7-128.4L962.6,2271.1z"/>
	<path style="fill:#395156;fill-opacity:0.502;" d="M1289.7,2035.1l111.8,194.6l-202.9-70.4L1289.7,2035.1z"/>
	<path style="fill:#40595E;fill-opacity:0.502;" d="M1281.4,2051.7l37.3,95.2l-86.9-115.9L1281.4,2051.7z"/>
	<path style="fill:#20535C;fill-opacity:0.502;" d="M1538.1,1604.5l86.9,58l4.1-29L1538.1,1604.5z"/>
	<path style="fill:#3E6770;fill-opacity:0.502;" d="M1430.5,2109.6l-37.3-120.1L1356,2031L1430.5,2109.6z"/>
	<path style="fill:#20525C;fill-opacity:0.502;" d="M1132.4,2117.9l70.4-20.7l-78.7,91.1L1132.4,2117.9z"/>
	<path style="fill:#22525C;fill-opacity:0.502;" d="M1140.7,2155.2l-33.1,45.5l111.8-62.1L1140.7,2155.2z"/>
	<path style="fill:#44636A;fill-opacity:0.502;" d="M1302.1,2105.5l-62.1,37.3l16.6,33.1L1302.1,2105.5z"/>
	<path style="fill:#436A73;fill-opacity:0.502;" d="M1761.7,1687.3l-33.1-91.1l4.1,70.4L1761.7,1687.3z"/>
	<path style="fill:#293F45;fill-opacity:0.502;" d="M1683.1,1811.5l-82.8-74.5l24.8,99.4L1683.1,1811.5z"/>
	<path style="fill:#25545E;fill-opacity:0.502;" d="M1542.3,1712.1l33.1-24.8l-120.1-33.1L1542.3,1712.1z"/>
	<path style="fill:#2A474E;fill-opacity:0.502;" d="M1712,1865.3l37.3,45.5l-178,41.4L1712,1865.3z"/>
	<path style="fill:#49717A;fill-opacity:0.502;" d="M1885.9,1662.5l8.3-37.3l45.5,49.7L1885.9,1662.5z"/>
	<path style="fill:#35585E;fill-opacity:0.502;" d="M424.4,2159.3l-49.7,29l53.8,140.8L424.4,2159.3z"/>
	<path style="fill:#314A4D;fill-opacity:0.502;" d="M113.9,2440.9l111.8-66.2L176,2445L113.9,2440.9z"/>
	<path style="fill:#152A2C;fill-opacity:0.502;" d="M1662.4,1645.9l-124.2-45.5l107.6-4.1L1662.4,1645.9z"/>
	<path style="fill:#222E2F;fill-opacity:0.502;" d="M1828,1347.8l-111.8-37.3l124.2-95.2L1828,1347.8z"/>
	<path style="fill:#32474A;fill-opacity:0.502;" d="M1749.3,1095.2l49.7,29l-53.8,41.4L1749.3,1095.2z"/>
	<path style="fill:#30484C;fill-opacity:0.502;" d="M1757.6,821.9l-8.3-29l62.1,41.4L1757.6,821.9z"/>
</g>
<g id="shoe_x5F__x5F_right">
	<path style="fill:#94C0D0;fill-opacity:0.502;" d="M1869.6,2397.3l-41.4-339.5l517.5,198.7L1869.6,2397.3z"/>
	<path style="fill:#ABD0DF;fill-opacity:0.502;" d="M2138.7,2173.7l-91.1,352l-29-472L2138.7,2173.7z"/>
	<path style="fill:#F6FFFF;fill-opacity:0.502;" d="M1948.2,1817.6l-91.1,111.8l-16.6,153.2L1948.2,1817.6z"/>
	<path style="fill:#FFFFFF;fill-opacity:0.502;" d="M1819.9,2687.1l45.5-78.7l-12.4-111.8L1819.9,2687.1z"/>
	<path style="fill:#EFF5F8;fill-opacity:0.502;" d="M1906.8,2157.1l29,165.6l33.1-252.6L1906.8,2157.1z"/>
	<path style="fill:#00050B;fill-opacity:0.502;" d="M1873.7,2057.7l136.6-215.3L1882,2277.2L1873.7,2057.7z"/>
	<path style="fill:#498797;fill-opacity:0.502;" d="M2060,2066l227.7,281.6l-111.8,33.1L2060,2066z"/>
	<path style="fill:#FFFFFF;fill-opacity:0.502;" d="M2072.5,2239.9l136.6,12.4l-8.3-45.5L2072.5,2239.9z"/>
	<path style="fill:#131B20;fill-opacity:0.502;" d="M2080.7,2372.4l-194.6-78.7l-37.3,463.7L2080.7,2372.4z"/>
	<path style="fill:#E9EEF0;fill-opacity:0.502;" d="M1952.4,2364.2l-53.8,66.2l45.5-215.3L1952.4,2364.2z"/>
	<path style="fill:#120F0E;fill-opacity:0.502;" d="M2026.9,2215.1l-78.7-87l-8.3,281.6L2026.9,2215.1z"/>
	<path style="fill:#E8E1DF;fill-opacity:0.502;" d="M1879.4,1968.9l-51.2,159.2l33.1,157.3L1879.4,1968.9z"/>
	<path style="fill:#9CB5BB;fill-opacity:0.502;" d="M1828.2,2782.4l-4.1-95.2L1911,2861L1828.2,2782.4z"/>
	<path style="fill:#59B1CA;fill-opacity:0.502;" d="M2345.7,2289.6l33.1-41.4h-169.8L2345.7,2289.6z"/>
	<path style="fill:#FEF5F9;fill-opacity:0.502;" d="M2055.9,2409.7l41.4-58l-41.4,120.1V2409.7z"/>
	<path style="fill:#131F24;fill-opacity:0.502;" d="M2242.2,2401.4l-144.9-99.4l-20.7,513.4L2242.2,2401.4z"/>
	<path style="fill:#FFFFFF;fill-opacity:0.502;" d="M1927.5,2157.1l-4.1-37.3l49.7-12.4L1927.5,2157.1z"/>
	<path style="fill:#EAE6EE;fill-opacity:0.502;" d="M2039.3,2442.8l4.1,78.7l29-120.1L2039.3,2442.8z"/>
	<path style="fill:#CBC4C0;fill-opacity:0.502;" d="M1856.6,2589.2l-40.8,61.2l40.8,136.1V2589.2z"/>
	<path style="fill:#1B272A;fill-opacity:0.502;" d="M1902.7,1925.2l-41.4,277.4l140.8-173.9L1902.7,1925.2z"/>
	<path style="fill:#FFFFFF;fill-opacity:0.502;" d="M1861.3,2314.5l16.6,45.5l-4.1-70.4L1861.3,2314.5z"/>
	<path style="fill:#101819;fill-opacity:0.502;" d="M1931.7,2384.9l-29,331.2l149.1-401.6L1931.7,2384.9z"/>
	<path style="fill:#E2E3E5;fill-opacity:0.502;" d="M1869.6,2144.7l-4.1-194.6l-33.1,128.4L1869.6,2144.7z"/>
	<path style="fill:#121B1E;fill-opacity:0.502;" d="M1997.9,2090.9l62.1,20.7l-115.9,45.5L1997.9,2090.9z"/>
	<path style="fill:#7E3A28;fill-opacity:0.502;" d="M1521.8,2500.8l339.5-198.7l-12.4,219.5L1521.8,2500.8z"/>
	<path style="fill:#FFFFFF;fill-opacity:0.502;" d="M1861.3,2384.9h16.6l-12.4,49.7L1861.3,2384.9z"/>
	<path style="fill:#7DABB9;fill-opacity:0.502;" d="M2105.6,2314.5l-86.9-182.2l91.1-33.1L2105.6,2314.5z"/>
	<path style="fill:#233F47;fill-opacity:0.502;" d="M2097.3,2223.4l128.4-182.2l-20.7,157.3L2097.3,2223.4z"/>
	<path style="fill:#6C949C;fill-opacity:0.502;" d="M2134.6,1871.4l-128.4-62.1l62.1,4.1L2134.6,1871.4z"/>
	<path style="fill:#D9ECF5;fill-opacity:0.502;" d="M2093.2,2252.4l86.9-45.5l33.1,37.3L2093.2,2252.4z"/>
	<path style="fill:#242628;fill-opacity:0.502;" d="M1935.8,2455.2l82.8-211.2l-70.4,41.4L1935.8,2455.2z"/>
	<path style="fill:#465155;fill-opacity:0.502;" d="M1882,2173.7l37.3-124.2h45.5L1882,2173.7z"/>
	<path style="fill:#151416;fill-opacity:0.502;" d="M2047.6,2182l-91.1,24.8l-12.4-37.3L2047.6,2182z"/>
	<path style="fill:#2D5362;fill-opacity:0.502;" d="M2010.4,2153l70.4,4.1l4.1-24.8L2010.4,2153z"/>
	<path style="fill:#1B1D1E;fill-opacity:0.502;" d="M1873.7,2434.5l161.5,20.7l-178,186.3L1873.7,2434.5z"/>
	<path style="fill:#232425;fill-opacity:0.502;" d="M1931.7,2724.4l91.1-364.4l16.6,385.1L1931.7,2724.4z"/>
	<path style="fill:#282627;fill-opacity:0.502;" d="M1960.7,2571.2l12.4,149.1l70.4-285.7L1960.7,2571.2z"/>
	<path style="fill:#212426;fill-opacity:0.502;" d="M1873.7,2604.3l-4.1-115.9l49.7-58L1873.7,2604.3z"/>
	<path style="fill:#000C16;fill-opacity:0.502;" d="M2017.6,1798.3l-31.1,617l-86.9-467.9L2017.6,1798.3z"/>
	<path style="fill:#CEFAFF;fill-opacity:0.502;" d="M1953.4,1798.3l82.8,4.1l-132.5,49.7L1953.4,1798.3z"/>
	<path style="fill:#FCFFFF;fill-opacity:0.502;" d="M2102.4,2228.9l-82.8,20.7l-24.8,78.7L2102.4,2228.9z"/>
	<path style="fill:#CEDDE5;fill-opacity:0.502;" d="M1849.9,2452.5l29-58l-16.4,180.1L1849.9,2452.5z"/>
	<path style="fill:#F2FDFF;fill-opacity:0.502;" d="M2061,2266.2l29,103.5v-128.4L2061,2266.2z"/>
	<path style="fill:#101215;fill-opacity:0.502;" d="M1903.7,2146.1l20.7,111.8l-45.5,82.8L1903.7,2146.1z"/>
	<path style="fill:#000A10;fill-opacity:0.502;" d="M2011.4,2324.2l45.5,87l20.7-82.8L2011.4,2324.2z"/>
	<path style="fill:#007188;fill-opacity:0.502;" d="M2114.9,2295.2l111.8-4.1l16.6,95.2L2114.9,2295.2z"/>
	<path style="fill:#FFFFFF;fill-opacity:0.502;" d="M1932.7,2220.7l-16.6,149.1l33.1-66.2L1932.7,2220.7z"/>
	<path style="fill:#122E36;fill-opacity:0.502;" d="M2247.4,2075.7l-182.2,24.8l78.7,24.8L2247.4,2075.7z"/>
	<path style="fill:#A7CDD8;fill-opacity:0.502;" d="M2065.2,2183.4l-70.4,149.1l128.4-99.4L2065.2,2183.4z"/>
	<path style="fill:#263438;fill-opacity:0.502;" d="M1928.5,2361.4l140.8-62.1l-140.8,124.2V2361.4z"/>
	<path style="fill:#595C5E;fill-opacity:0.502;" d="M1920.3,2419.4H1883l20.7,33.1L1920.3,2419.4z"/>
	<path style="fill:#0C0E0E;fill-opacity:0.502;" d="M1912,2485.7l45.5-41.4l-37.3,124.2L1912,2485.7z"/>
</g>
<g id="jeans_x5F__x5F_right">
	<path style="fill:#00080C;fill-opacity:0.502;" d="M2900,4225.5l-1010.2-530l-136.6,608.7L2900,4225.5z"/>
	<path style="fill:#0B1619;fill-opacity:0.502;" d="M1960.1,3745.2l873.6,559l24.8-1888.1L1960.1,3745.2z"/>
	<path style="fill:#191E20;fill-opacity:0.502;" d="M2444.5,3691.4l-583.8-136.6L2755.1,2474L2444.5,3691.4z"/>
	<path style="fill:#101C20;fill-opacity:0.502;" d="M2233.4,2399.5l-173.9,87l86.9-178L2233.4,2399.5z"/>
	<path style="fill:#1B1E20;fill-opacity:0.502;" d="M2063.6,3538.2l521.7-848.8l-426.5-269.1L2063.6,3538.2z"/>
	<path style="fill:#181C1D;fill-opacity:0.502;" d="M2510.8,4093l12.4-1354l-674.9,993.7L2510.8,4093z"/>
	<path style="fill:#111618;fill-opacity:0.502;" d="M2900,4221.4V3037.1l-1233.8,1267L2900,4221.4z"/>
	<path style="fill:#171B1D;fill-opacity:0.502;" d="M2581.2,3037.1l-49.7,1006.2l-455.4-37.3L2581.2,3037.1z"/>
	<path style="fill:#13191B;fill-opacity:0.502;" d="M2825.4,4229.6l-351.9-877.8l-144.9,952.3L2825.4,4229.6z"/>
	<path style="fill:#111314;fill-opacity:0.502;" d="M2639.1,3202.8l194.6-724.6v1440.9L2639.1,3202.8z"/>
	<path style="fill:#101517;fill-opacity:0.502;" d="M2900,3960.5l-219.4-567.3l91.1,910.9L2900,3960.5z"/>
	<path style="fill:#131819;fill-opacity:0.502;" d="M2755.1,2755.6l-165.6,641.8l173.9,244.3L2755.1,2755.6z"/>
	<path style="fill:#111516;fill-opacity:0.502;" d="M2900,3062v563.1l-190.5-488.6L2900,3062z"/>
	<path style="fill:#13191B;fill-opacity:0.502;" d="M2697.1,3244.2l-227.7,74.5l107.6,368.5L2697.1,3244.2z"/>
	<path style="fill:#101516;fill-opacity:0.502;" d="M2771.6,3310.4l128.4,356.1l-153.2,33.1L2771.6,3310.4z"/>
	<path style="fill:#12171A;fill-opacity:0.502;" d="M2684.7,3865.3l215.3,364.4l-418.2,74.5L2684.7,3865.3z"/>
	<path style="fill:#12181A;fill-opacity:0.502;" d="M2842,4300l-289.8-58l347.8-107.7L2842,4300z"/>
	<path style="fill:#111719;fill-opacity:0.502;" d="M2891.7,4030.9l-165.6-12.4l82.8,285.7L2891.7,4030.9z"/>
	<path style="fill:#13181A;fill-opacity:0.502;" d="M2796.5,4109.6L2370,4304.2l115.9-372.7L2796.5,4109.6z"/>
	<path style="fill:#121719;fill-opacity:0.502;" d="M2473.5,4262.8l178-49.7l-49.7-149.1L2473.5,4262.8z"/>
	<path style="fill:#13171A;fill-opacity:0.502;" d="M2535.6,4304.2l227.7-219.5l-41.4,132.5L2535.6,4304.2z"/>
	<path style="fill:#0F191B;fill-opacity:0.502;" d="M2750.9,4304.2l-53.8-87l161.5,87H2750.9z"/>
	<path style="fill:#171B1C;fill-opacity:0.502;" d="M2601.9,3202.8l-182.2,824l-592.1-240.2L2601.9,3202.8z"/>
	<path style="fill:#121315;fill-opacity:0.502;" d="M1931.1,4300l409.9-389.2l-294,153.2L1931.1,4300z"/>
	<path style="fill:#14181A;fill-opacity:0.502;" d="M2560.5,4304.2l-418.2-323l194.6-161.5L2560.5,4304.2z"/>
	<path style="fill:#181B1C;fill-opacity:0.502;" d="M2117.4,3927.4l190.5-124.2l-240.1,269.1L2117.4,3927.4z"/>
	<path style="fill:#181C1E;fill-opacity:0.502;" d="M2320.3,3525.7L1956,3906.7l563.1-335.4L2320.3,3525.7z"/>
	<path style="fill:#1C1F20;fill-opacity:0.502;" d="M2258.2,2507.1l-4.1,418.2l418.2-173.9L2258.2,2507.1z"/>
	<path style="fill:#1F2123;fill-opacity:0.502;" d="M2138.1,2374.6l8.3,352l173.9-91.1L2138.1,2374.6z"/>
	<path style="fill:#212021;fill-opacity:0.502;" d="M2071.9,3219.3l-128.4-786.7l256.7,219.5L2071.9,3219.3z"/>
	<path style="fill:#17181B;fill-opacity:0.502;" d="M2125.7,2478.2l-53.8,29l-29,58L2125.7,2478.2z"/>
	<path style="fill:#232224;fill-opacity:0.502;" d="M2229.2,2486.4l-70.4,111.8l-120.1-37.3L2229.2,2486.4z"/>
	<path style="fill:#181A1B;fill-opacity:0.502;" d="M1935.3,2407.8l153.2-70.4l-182.2,414.1L1935.3,2407.8z"/>
	<path style="fill:#202021;fill-opacity:0.502;" d="M2460.5,2593l-629.3,467.9l103.5-674.9L2460.5,2593z"/>
	<path style="fill:#1C2023;fill-opacity:0.502;" d="M2125.1,2216.2l306.4,430.6l-430.6-49.7L2125.1,2216.2z"/>
	<path style="fill:#1A1B1D;fill-opacity:0.502;" d="M2708.9,2982.2l-451.3-20.7l347.8-496.9L2708.9,2982.2z"/>
	<path style="fill:#1D1F20;fill-opacity:0.502;" d="M2394.3,3189.2l-49.7-306.4L2042.3,3007L2394.3,3189.2z"/>
	<path style="fill:#191D1D;fill-opacity:0.502;" d="M2472.9,3209.9l-227.7,227.7L2063,3052.6L2472.9,3209.9z"/>
	<path style="fill:#121617;fill-opacity:0.502;" d="M2766.9,2911.8l103.5,70.4l-186.3,186.3L2766.9,2911.8z"/>
	<path style="fill:#131010;fill-opacity:0.502;" d="M2725.5,2464.6l165.6,260.9l-285.7-78.7L2725.5,2464.6z"/>
	<path style="fill:#161A1B;fill-opacity:0.502;" d="M2464.6,3230.6l178-70.4l120.1-405.8L2464.6,3230.6z"/>
	<path style="fill:#131718;fill-opacity:0.502;" d="M2671.7,3143.7l-45.5,144.9l161.5,16.6L2671.7,3143.7z"/>
	<path style="fill:#141313;fill-opacity:0.502;" d="M2812.4,2849.7l74.5-389.2l-132.5,45.5L2812.4,2849.7z"/>
	<path style="fill:#141413;fill-opacity:0.502;" d="M2891.1,2795.9L2800,2477l-169.8,136.6L2891.1,2795.9z"/>
	<path style="fill:#151516;fill-opacity:0.502;" d="M2783.5,2742l107.6-165.6l-248.4,95.2L2783.5,2742z"/>
	<path style="fill:#1B1D1F;fill-opacity:0.502;" d="M2083.7,3383.8l592.1-492.7l-190.5-372.7L2083.7,3383.8z"/>
	<path style="fill:#181B1D;fill-opacity:0.502;" d="M1938.8,2543.3l-91.1,128.4l364.4,273.3L1938.8,2543.3z"/>
	<path style="fill:#1B1A1D;fill-opacity:0.502;" d="M2265.9,2588.8l-74.5,78.7l82.8,66.2L2265.9,2588.8z"/>
	<path style="fill:#222222;fill-opacity:0.502;" d="M2009.2,2833.1l-70.4-550.7l136.6,277.4L2009.2,2833.1z"/>
	<path style="fill:#222223;fill-opacity:0.502;" d="M2256.5,2679l-343.6,49.7l244.3-360.2L2256.5,2679z"/>
	<path style="fill:#1C1F22;fill-opacity:0.502;" d="M2070.2,2467.8l161.5-53.8l-16.6,215.3L2070.2,2467.8z"/>
	<path style="fill:#242424;fill-opacity:0.502;" d="M2037.1,2807.3l-111.8-144.9l236-198.7L2037.1,2807.3z"/>
	<path style="fill:#232323;fill-opacity:0.502;" d="M2032.9,2944l29-397.5l-111.8-33.1L2032.9,2944z"/>
</g>
<g id="shoe_x5F__x5F_left">
	<path style="fill:#49595B;fill-opacity:0.502;" d="M964.7,2891.6l-12.4-248.4l-45.5,120.1L964.7,2891.6z"/>
	<path style="fill:#A0B2BB;fill-opacity:0.502;" d="M511.1,2592.5l107.6-360.2l165.6-8.3L511.1,2592.5z"/>
	<path style="fill:#77CDDF;fill-opacity:0.502;" d="M863.1,2522.1l20.7-182.2l-70.4-140.8L863.1,2522.1z"/>
	<path style="fill:#DADCDB;fill-opacity:0.502;" d="M635.4,2070.8l62.1-78.7l-37.3,16.6L635.4,2070.8z"/>
	<path style="fill:#081316;fill-opacity:0.502;" d="M672.6,2228.2l169.8-207l62.1,182.2L672.6,2228.2z"/>
	<path style="fill:#95A0A0;fill-opacity:0.502;" d="M593.9,2203.3l45.5-144.9l-41.4,41.4L593.9,2203.3z"/>
	<path style="fill:#C6F8FF;fill-opacity:0.502;" d="M838.2,2261.3l-29-8.3l41.4,37.3L838.2,2261.3z"/>
	<path style="fill:#C1F4FF;fill-opacity:0.502;" d="M778.4,2426.2l-260.8,33.1L761.8,2157L778.4,2426.2z"/>
	<path style="fill:#B9E4EA;fill-opacity:0.502;" d="M933.6,2132.4l2.1,260.6l-82.8-405.8L933.6,2132.4z"/>
	<path style="fill:#BECBCE;fill-opacity:0.502;" d="M770.1,1950l-99.4,45.5l165.6-16.6L770.1,1950z"/>
	<path style="fill:#C3E0EA;fill-opacity:0.502;" d="M815.6,2455.1L650,2372.3l33.1-82.8L815.6,2455.1z"/>
	<path style="fill:#83B2BC;fill-opacity:0.502;" d="M463.7,2604.2l165.6-231.9l4.1,103.5L463.7,2604.2z"/>
	<path style="fill:#49595B;fill-opacity:0.502;" d="M877.8,2525.5l49.7,136.6l-8.3-190.5L877.8,2525.5z"/>
	<path style="fill:#758085;fill-opacity:0.502;" d="M683.2,2351.6l-107.6-144.9v207L683.2,2351.6z"/>
	<path style="fill:#FFFFFF;fill-opacity:0.502;" d="M583.8,2459.3l20.7-115.9l12.4,78.7L583.8,2459.3z"/>
	<path style="fill:#74888D;fill-opacity:0.502;" d="M923.3,2103.2l-66.2-115.9l-70.4-20.7L923.3,2103.2z"/>
	<path style="fill:#A5C0CA;fill-opacity:0.502;" d="M786.7,2471.7l-62.1-236l-24.8,165.6L786.7,2471.7z"/>
	<path style="fill:#0C171C;fill-opacity:0.502;" d="M834.1,2381.4l4.1-37.3H718.2L834.1,2381.4z"/>
	<path style="fill:#0E1B1F;fill-opacity:0.502;" d="M915,2227.4l-132.5,8.3l78.7-194.6L915,2227.4z"/>
	<path style="fill:#0F1619;fill-opacity:0.502;" d="M579.6,2289.5l103.5-277.4l190.5,78.7L579.6,2289.5z"/>
	<path style="fill:#82D3E3;fill-opacity:0.502;" d="M869.5,2388.9l-24.8-87l24.8-29V2388.9z"/>
	<path style="fill:#B9C4CA;fill-opacity:0.502;" d="M654.2,2235.7l111.8-16.6l20.7,53.8L654.2,2235.7z"/>
	<path style="fill:#181819;fill-opacity:0.502;" d="M614.6,2327.5l29-20.7l-4.1-70.4L614.6,2327.5z"/>
	<path style="fill:#004052;fill-opacity:0.502;" d="M569.1,2489l132.5-120.1l-8.3,140.8L569.1,2489z"/>
	<path style="fill:#FFFFFF;fill-opacity:0.502;" d="M602.2,2294.4l-16.6,58l16.6,16.6V2294.4z"/>
	<path style="fill:#668F9A;fill-opacity:0.502;" d="M941.7,2319.2l-29-115.9l-8.3,215.3L941.7,2319.2z"/>
	<path style="fill-opacity:0.502;" d="M770.1,2268.8l-95.2,20.7l33.1-24.8L770.1,2268.8z"/>
	<path style="fill:#0B0D12;fill-opacity:0.502;" d="M910.9,2413.7l-37.3-70.4l16.6,149.1L910.9,2413.7z"/>
	<path style="fill:#18353D;fill-opacity:0.502;" d="M664.3,2335.8l-62.1,20.7l29-91.1L664.3,2335.8z"/>
	<path style="fill:#2A2223;fill-opacity:0.502;" d="M593.9,2418.6l20.7-58l8.3,41.4L593.9,2418.6z"/>
	<path style="fill:#E6EFF4;fill-opacity:0.502;" d="M658.3,2273l29-20.7l-41.4,58L658.3,2273z"/>
	<path style="fill:#FFFFFF;fill-opacity:0.502;" d="M622.9,2282l-20.7,12.4l-8.3,45.5L622.9,2282z"/>
	<path style="fill:#122C31;fill-opacity:0.502;" d="M815.6,2388.9L766,2235.7l82.8,70.4L815.6,2388.9z"/>
	<path style="fill:#041F28;fill-opacity:0.502;" d="M819.8,2372.3l-4.1,29l-82.8-20.7L819.8,2372.3z"/>
	<path style="fill:#0F2126;fill-opacity:0.502;" d="M873.6,2157l-53.8-12.4L766,2326.8L873.6,2157z"/>
	<path style="fill:#EFF8FD;fill-opacity:0.502;" d="M774.2,2301.9l-41.4-24.8l-49.7,29L774.2,2301.9z"/>
	<path style="fill:#65B0BD;fill-opacity:0.502;" d="M881.9,2434.4l-37.3-87l20.7,161.5L881.9,2434.4z"/>
	<path style="fill:#228FA3;fill-opacity:0.502;" d="M618.8,2435.2l24.8-4.1l-37.3,82.8L618.8,2435.2z"/>
	<path style="fill:#0F171A;fill-opacity:0.502;" d="M629.3,2111.5l215.3-82.8l-82.8-58L629.3,2111.5z"/>
	<path style="fill:#005D6F;fill-opacity:0.502;" d="M664.3,2406.2l107.6,49.7l-136.6-16.6L664.3,2406.2z"/>
	<path style="fill:#101E23;fill-opacity:0.502;" d="M877.8,2322.6l45.5-49.7l-45.5,169.8V2322.6z"/>
	<path style="fill:#58919F;fill-opacity:0.502;" d="M906.7,2368.2l4.1,111.8l24.8-99.4L906.7,2368.2z"/>
	<path style="fill:#001A22;fill-opacity:0.502;" d="M755.4,2276.4l70.4,74.5l12.4-144.9L755.4,2276.4z"/>
	<path style="fill:#97B1B8;fill-opacity:0.502;" d="M639.5,2263.9l-53.8,16.6l58,29L639.5,2263.9z"/>
	<path style="fill:#1BA2B9;fill-opacity:0.502;" d="M685,2363.3l41.4-12.4l-45.5-41.4L685,2363.3z"/>
	<path style="fill:#15697C;fill-opacity:0.502;" d="M782.5,2321.2l-16.6,12.4l29,4.1L782.5,2321.2z"/>
</g>
<g id="jeans_x5F__x5F_left">
	<path style="fill:#000D13;fill-opacity:0.502;" d="M647.8,2947.2l273.3-70.4l-20.7-476.2L647.8,2947.2z"/>
	<path style="fill:#202529;fill-opacity:0.502;" d="M743,2574.5l-207-45.5L308.3,2649L743,2574.5z"/>
	<path style="fill:#151C1E;fill-opacity:0.502;" d="M-2.3,3398.5l-86.9-430.6L208.9,3150L-2.3,3398.5z"/>
	<path style="fill:#191A1B;fill-opacity:0.502;" d="M656.1,2574.5l-745.3,418.2l111.8-260.9L656.1,2574.5z"/>
	<path style="fill:#171B1D;fill-opacity:0.502;" d="M196.5,2731.8l476.1-45.5l-41.4,244.3L196.5,2731.8z"/>
	<path style="fill:#12191B;fill-opacity:0.502;" d="M858.9,2429.6l82.8,426.5l-380.9-401.6L858.9,2429.6z"/>
	<path style="fill:#151618;fill-opacity:0.502;" d="M858.9,2831.2l-149.1-87l-16.6,223.6L858.9,2831.2z"/>
	<path style="fill:#111517;fill-opacity:0.502;" d="M730.6,2611.8l-78.7,91.1l-107.6-87L730.6,2611.8z"/>
	<path style="fill:#000208;fill-opacity:0.502;" d="M434.7,4312.8L-82.8,2876l952.3-492.7L434.7,4312.8z"/>
	<path style="fill:#020D11;fill-opacity:0.502;" d="M1022.7,4246.6L76.7,2681.1L-82.8,4242.4L1022.7,4246.6z"/>
	<path style="fill:#040D11;fill-opacity:0.502;" d="M641.8,3343.9l-157.3,968.9l351.9-687.3L641.8,3343.9z"/>
	<path style="fill:#14191A;fill-opacity:0.502;" d="M915,2462L265,4312.8L-82.8,2743.5L915,2462z"/>
	<path style="fill:#0E1315;fill-opacity:0.502;" d="M749.4,3447.4l115.9,865.4l-948.1-91.1L749.4,3447.4z"/>
	<path style="fill:#122025;fill-opacity:0.502;" d="M430.6,2689.7l260.8-376.8l111.8,153.2L430.6,2689.7z"/>
	<path style="fill:#111719;fill-opacity:0.502;" d="M-82.8,2735.2L37.3,4312.8l778.4-1503L-82.8,2735.2z"/>
	<path style="fill:#181C1E;fill-opacity:0.502;" d="M629.3,2888.4l-712.1-95.2l1006.1-372.7L629.3,2888.4z"/>
	<path style="fill:#172226;fill-opacity:0.502;" d="M732.8,2354.3l-256.7,149.1l356.1-45.5L732.8,2354.3z"/>
	<path style="fill:#141618;fill-opacity:0.502;" d="M310.5,2677.3l-393.3,484.5l811.5,298.1L310.5,2677.3z"/>
	<path style="fill:#131719;fill-opacity:0.502;" d="M211.2,3455.7l86.9-405.8L8.3,3103.7L211.2,3455.7z"/>
	<path style="fill:#161E21;fill-opacity:0.502;" d="M-20.7,3352.2l153.2-70.4L-49.7,3112L-20.7,3352.2z"/>
	<path style="fill:#121416;fill-opacity:0.502;" d="M53.8,3103.7l679,12.4l-505.1-310.5L53.8,3103.7z"/>
	<path style="fill:#161719;fill-opacity:0.502;" d="M66.2,2859.4l571.4,128.4l-339.5-231.9L66.2,2859.4z"/>
	<path style="fill:#121515;fill-opacity:0.502;" d="M236,3029.2l111.8-107.7l107.6,165.6L236,3029.2z"/>
	<path style="fill:#12171A;fill-opacity:0.502;" d="M906.7,2900.9l24.8-236l-463.7,273.3L906.7,2900.9z"/>
	<path style="fill:#1F2629;fill-opacity:0.502;" d="M778.4,2362.6l-115.9,186.3l-277.4,70.4L778.4,2362.6z"/>
	<path style="fill:#1F2527;fill-opacity:0.502;" d="M484.4,2557.2l215.3-169.8l95.2,107.7L484.4,2557.2z"/>
	<path style="fill:#121314;fill-opacity:0.502;" d="M687.3,2751.8L877.8,2553l-58,380.9L687.3,2751.8z"/>
	<path style="fill:#121618;fill-opacity:0.502;" d="M898.5,2851.2l-53.8-517.6l-240.1,645.9L898.5,2851.2z"/>
	<path style="fill:#121719;fill-opacity:0.502;" d="M815.6,2598.6l227.7-33.1l-322.9,202.9L815.6,2598.6z"/>
	<path style="fill:#14191B;fill-opacity:0.502;" d="M915,2524.1l-132.5,41.4l-20.7-169.8L915,2524.1z"/>
</g>
</svg>
