<?xml version="1.0" encoding="utf-8"?>
<!-- Generator: Adobe Illustrator 22.1.0, SVG Export Plug-In . SVG Version: 6.00 Build 0)  -->
<svg version="1.1" xmlns="http://www.w3.org/2000/svg" xmlns:xlink="http://www.w3.org/1999/xlink" x="0px" y="0px"
	 viewBox="0 0 1366 768" style="enable-background:new 0 0 1366 768;" xml:space="preserve">
<g id="Background">
	<rect x="-0.7" y="-143.9" style="fill:#7F95A7;" width="1429.5" height="931.4"/>
	<path style="fill:#005895;fill-opacity:0.502;" d="M1161.6-170h633.7l-39.4,584.2L1161.6-170z"/>
	<path style="fill:#B4ABA6;fill-opacity:0.502;" d="M200.1,21.9l1120.1,765.8L-107.5,693L200.1,21.9z"/>
	<path style="fill:#9BB3C8;fill-opacity:0.502;" d="M452.5,685.1l226.1-405.3L-107.5,56.1L452.5,685.1z"/>
	<path style="fill:#004C7C;fill-opacity:0.502;" d="M1795.2,222.1V-170h-302.4L1795.2,222.1z"/>
	<path style="fill:#598BB6;fill-opacity:0.502;" d="M1795.2,495.8L861.8-130.5l562.7-26.3L1795.2,495.8z"/>
	<path style="fill:#868374;fill-opacity:0.502;" d="M1795.2,764.3L1740,227.4l-276.1,563.2L1795.2,764.3z"/>
	<path style="fill:#649CD2;fill-opacity:0.502;" d="M-123.5-169.3L6.3,453L1359-87.2L-123.5-169.3z"/>
	<path style="fill:#ABABA9;fill-opacity:0.502;" d="M1240.4,240.5L896,809l802-147.4L1240.4,240.5z"/>
	<path style="fill:#9C857D;fill-opacity:0.502;" d="M-89.1,774.6l-18.4-329l531.1,323.7L-89.1,774.6z"/>
	<path style="fill:#B0AAA6;fill-opacity:0.502;" d="M64,497.8l544.5,315.9l336.4-531.1L64,497.8z"/>
	<path style="fill:#8CA9C2;fill-opacity:0.502;" d="M-107.5,332.4l681-26.3L455.2-101.8L-107.5,332.4z"/>
	<path style="fill:#89A8C6;fill-opacity:0.502;" d="M675.1,216.9l310.3-110.5l50,152.6L675.1,216.9z"/>
	<path style="fill:#A3AFB6;fill-opacity:0.502;" d="M867.3,780.8l218.6-358.7L64.5,371.9L867.3,780.8z"/>
	<path style="fill:#A8ABAD;fill-opacity:0.502;" d="M1035.3,519.5l-99.9,142.1l-297.1-229L1035.3,519.5z"/>
	<path style="fill:#A39899;fill-opacity:0.502;" d="M418.4,793L55.5,779.8l328.7-157.9L418.4,793z"/>
	<path style="fill:#A9A3A3;fill-opacity:0.502;" d="M985.4,590.6l-81.5,136.8L617.3,619.5L985.4,590.6z"/>
	<path style="fill:#9C9B9C;fill-opacity:0.502;" d="M-78.6,543l483.8,250L-76,311.4L-78.6,543z"/>
	<path style="fill:#A8A8A9;fill-opacity:0.502;" d="M856.5,685.3l115.7-102.6l-302.4-71.1L856.5,685.3z"/>
	<path style="fill:#A1999B;fill-opacity:0.502;" d="M683,724.5l-82.9,170.1l-576.2-278L683,724.5z"/>
	<path style="fill:#817576;fill-opacity:0.502;" d="M-107.5,561.4l215.6,179L-52.3,793L-107.5,561.4z"/>
	<path style="fill:#A5A0A0;fill-opacity:0.502;" d="M898.6,730L633,527.4L662,666.9L898.6,730z"/>
	<path style="fill:#8DA4B5;fill-opacity:0.502;" d="M1024.9,267.9L211.4-37L64.5,526.2L1024.9,267.9z"/>
	<path style="fill:#6694C4;fill-opacity:0.502;" d="M786.5-186L476.2,11.4L-107.5-136L786.5-186z"/>
	<path style="fill:#7E9FBF;fill-opacity:0.502;" d="M-107.5,116.6l523.3,63.2l-39.4-294.8L-107.5,116.6z"/>
	<path style="fill:#598BB5;fill-opacity:0.502;" d="M139.6-170.2l-210.4,15.8l-2.6,336.9L139.6-170.2z"/>
	<path style="fill:#7699B6;fill-opacity:0.502;" d="M160.7-30.7l-268.2,63.2l44.7,236.9L160.7-30.7z"/>
	<path style="fill:#869EB0;fill-opacity:0.502;" d="M-54.9,153.5L137,164L-99.6,429.8L-54.9,153.5z"/>
	<path style="fill:#7A9AB6;fill-opacity:0.502;" d="M-107.5,245.6l218.2-118.4L-23.4,56.1L-107.5,245.6z"/>
	<path style="fill:#6D96BA;fill-opacity:0.502;" d="M-107.5,90.3L37.1,77.2L116-138.6L-107.5,90.3z"/>
	<path style="fill:#6694BF;fill-opacity:0.502;" d="M118.6-38.6L205.4-186L-20.8-59.7L118.6-38.6z"/>
	<path style="fill:#739AC1;fill-opacity:0.502;" d="M606.7-59.5L554.2,61.6L867.1-80.5L606.7-59.5z"/>
	<path style="fill:#6E97BE;fill-opacity:0.502;" d="M39.7,27.2L236.9-99.2l-210.4,50L39.7,27.2z"/>
	<path style="fill:#80A1C0;fill-opacity:0.502;" d="M588.3,164.2l39.4-139.5L819.7,3.7L588.3,164.2z"/>
	<path style="fill:#92A2AC;fill-opacity:0.502;" d="M87,232.4l-5.3,263.2l-189.3-142.1L87,232.4z"/>
	<path style="fill:#96999C;fill-opacity:0.502;" d="M160.7,650.9l-268.2-163.2l42.1-150L160.7,650.9z"/>
	<path style="fill:#9E999A;fill-opacity:0.502;" d="M155.4,653.5l76.3-60.5l-265.6-63.2L155.4,653.5z"/>
	<path style="fill:#AEA9A7;fill-opacity:0.502;" d="M922.3,698.5l105.2-173.7l-333.9,2.6L922.3,698.5z"/>
	<path style="fill:#9DAEBB;fill-opacity:0.502;" d="M860.5,266.1l215.2,148.1l35.9-60.6L860.5,266.1z"/>
	<path style="fill:#A4ADB5;fill-opacity:0.502;" d="M761.9,407.9l357.6,143.2L1240,362.7L761.9,407.9z"/>
	<path style="fill:#98ACBE;fill-opacity:0.502;" d="M846,430.4l199.4-253l146,256.6L846,430.4z"/>
	<path style="fill:#A0AEB9;fill-opacity:0.502;" d="M832.9,424.8l186.7,42.1l97.3-107.9L832.9,424.8z"/>
	<path style="fill:#AAABAB;fill-opacity:0.502;" d="M1022.6,622.1l59.9-106.5l-252.7,83.2L1022.6,622.1z"/>
	<path style="fill:#82A1C0;fill-opacity:0.502;" d="M1009,206.3l-215.6-89.5l186.7-65.8L1009,206.3z"/>
	<path style="fill:#91AAC0;fill-opacity:0.502;" d="M704,237.9l310.3-18.4l78.9,102.6L704,237.9z"/>
	<path style="fill:#91A9BE;fill-opacity:0.502;" d="M1295.9,384l-242.1-243L835.5,255L1295.9,384z"/>
	<path style="fill:#9D9798;fill-opacity:0.502;" d="M733,698.5L901.2,809l-213-5.3L733,698.5z"/>
	<path style="fill:#93898B;fill-opacity:0.502;" d="M-97,569.3l299.8,176.3L94.9,793L-97,569.3z"/>
	<path style="fill:#979195;fill-opacity:0.502;" d="M63.4,661.4l86.8,73.7l157.8-18.4L63.4,661.4z"/>
	<path style="fill:#948B8C;fill-opacity:0.502;" d="M-107.5,529.8L63.4,737.7L263.2,793L-107.5,529.8z"/>
	<path style="fill:#978F92;fill-opacity:0.502;" d="M591,695.8l167.8,277.5L963,914.9L591,695.8z"/>
	<path style="fill:#7A7274;fill-opacity:0.502;" d="M162.3,917.8l-251.4-90.2V637.7L162.3,917.8z"/>
	<path style="fill:#929191;fill-opacity:0.502;" d="M-107.5,561.4l142,47.4L-12.9,514L-107.5,561.4z"/>
	<path style="fill:#7BA1C2;fill-opacity:0.502;" d="M1364,474.8l115.7-236.9L872.3-170L1364,474.8z"/>
	<path style="fill:#93ABB9;fill-opacity:0.502;" d="M1227.3,522.1L1180,161.6L1406.1,509L1227.3,522.1z"/>
	<path style="fill:#6994BF;fill-opacity:0.502;" d="M1093.2,153.7L1009-148.9l475.9,200L1093.2,153.7z"/>
	<path style="fill:#9FB1BB;fill-opacity:0.502;" d="M1148.4,403.7l-60.5,79l220.9,92.1L1148.4,403.7z"/>
	<path style="fill:#799DBE;fill-opacity:0.502;" d="M1019.6-22.6l-121,84.2l494.3,160.5L1019.6-22.6z"/>
	<path style="fill:#84A1B7;fill-opacity:0.502;" d="M1124.7,124.8l284,197.4l-170.9,13.2L1124.7,124.8z"/>
	<path style="fill:#8FA8BB;fill-opacity:0.502;" d="M1201,264.2l78.9,65.8l-97.3,168.4L1201,264.2z"/>
	<path style="fill:#8FA4B1;fill-opacity:0.502;" d="M1235.2,227.4l-76.3,207.9l433.9,39.5L1235.2,227.4z"/>
	<path style="fill:#7C9CB8;fill-opacity:0.502;" d="M1222,85.3l-47.3,134.2l178.8,131.6L1222,85.3z"/>
	<path style="fill:#7F9FBB;fill-opacity:0.502;" d="M1240.4,214.2l-107.8-71.1V180L1240.4,214.2z"/>
	<path style="fill:#86A2B8;fill-opacity:0.502;" d="M1187.8,280l36.8-44.7l86.8,134.2L1187.8,280z"/>
	<path style="fill:#84A0B8;fill-opacity:0.502;" d="M1079,190.9l179.9,123.3l21-73.7L1079,190.9z"/>
	<path style="fill:#5E8295;fill-opacity:0.502;" d="M1395.6,66.9L1795.2,230l-42.1,379L1395.6,66.9z"/>
	<path style="fill:#6991AF;fill-opacity:0.502;" d="M1619.1,432.7L1495.5,72.1l-286.6-2.6L1619.1,432.7z"/>
	<path style="fill:#9BAAB3;fill-opacity:0.502;" d="M1041.8,280.9l359,190.5L925,480L1041.8,280.9z"/>
	<path style="fill:#9F9995;fill-opacity:0.502;" d="M1011.7,777.4l596.9-10.5l18.4-300L1011.7,777.4z"/>
	<path style="fill:#8CA4B8;fill-opacity:0.502;" d="M1293,390.6L1172,219v74L1293,390.6z"/>
	<path style="fill:#9AA5A7;fill-opacity:0.502;" d="M1487.6,603.7l-126.2-210.5l-94.7,171.1L1487.6,603.7z"/>
	<path style="fill:#889697;fill-opacity:0.502;" d="M1666.4,719.5l13.1-271.1l-247.2-21.1L1666.4,719.5z"/>
	<path style="fill:#8BA0AB;fill-opacity:0.502;" d="M1571.7,514.2l-163-226.3l-55.2,184.2L1571.7,514.2z"/>
	<path style="fill:#93A5B0;fill-opacity:0.502;" d="M1403.5,427.4l-121-84.2v131.6L1403.5,427.4z"/>
	<path style="fill:#ADA8A8;fill-opacity:0.502;" d="M1082.7,490.6L1392.9,659L919.6,809L1082.7,490.6z"/>
	<path style="fill:#929E9F;fill-opacity:0.502;" d="M1437.6,516.9l128.8,97.4l-34.2-144.7L1437.6,516.9z"/>
	<path style="fill:#898278;fill-opacity:0.502;" d="M1771.6,445.8L1566.5,809l228.8-42.1L1771.6,445.8z"/>
	<path style="fill:#356D90;fill-opacity:0.502;" d="M1771.6,406.3l-252.4-552.7l234,236.9L1771.6,406.3z"/>
	<path style="fill:#597C8D;fill-opacity:0.502;" d="M1637.5,256.3L1787.4,609l7.9-360.5L1637.5,256.3z"/>
	<path style="fill:#768685;fill-opacity:0.502;" d="M1795.2,535.3l-78.9-113.2l-26.3,184.2L1795.2,535.3z"/>
	<path style="fill:#94918D;fill-opacity:0.502;" d="M1721.6,685.3l-84.1-152.6L1513.9,809L1721.6,685.3z"/>
	<path style="fill:#2A71A7;fill-opacity:0.502;" d="M1682.2,82.6L1203.6-170h370.7L1682.2,82.6z"/>
	<path style="fill:#5287B5;fill-opacity:0.502;" d="M1364-159.5l-297.1,2.6L1527,209L1364-159.5z"/>
	<path style="fill:#7C9CBA;fill-opacity:0.502;" d="M1093.2,143.2l131.5,7.9l-102.5-60.5L1093.2,143.2z"/>
	<path style="fill:#A5ADB2;fill-opacity:0.502;" d="M1023.8,448.5L885.2,661.6l476.2-113L1023.8,448.5z"/>
	<path style="fill:#A0ABB2;fill-opacity:0.502;" d="M1369.3,514.2L1130,416.9l-65.7,134.2L1369.3,514.2z"/>
	<path style="fill:#94A8B8;fill-opacity:0.502;" d="M1324.6,414.2l-184.5-98l16.2,98H1324.6z"/>
	<path style="fill:#92A7B7;fill-opacity:0.502;" d="M1229.9,341.9l-78.1-191.1l-104.2,234.6L1229.9,341.9z"/>
	<path style="fill:#A5A4A3;fill-opacity:0.502;" d="M1178.9,537.9l266.6,101.5L1070.1,925L1178.9,537.9z"/>
	<path style="fill:#7593A6;fill-opacity:0.502;" d="M1411.3,324.8l15.8-136.8L1692.7,409L1411.3,324.8z"/>
	<path style="fill:#7F9CAF;fill-opacity:0.502;" d="M1490.2,298.4l-223.5-42.1L1516.5,430L1490.2,298.4z"/>
	<path style="fill:#9DABB4;fill-opacity:0.502;" d="M1090.6,485.3l26.3-120.2l144.6,112.3L1090.6,485.3z"/>
	<path style="fill:#ACACAB;fill-opacity:0.502;" d="M1021.8,498.5l284.4,84.2l-326,84.2L1021.8,498.5z"/>
	<path style="fill:#A6ACB0;fill-opacity:0.502;" d="M1016.7,467.4l255.3,64.8l-302,21.6L1016.7,467.4z"/>
	<path style="fill:#A89E9E;fill-opacity:0.502;" d="M878.7,762.8l480.1,14.6l-446-157.8L878.7,762.8z"/>
	<path style="fill:#988D89;fill-opacity:0.502;" d="M39.7,664l-97.3-18.4L-94.4,543L39.7,664z"/>
	<path style="fill:#888184;fill-opacity:0.502;" d="M87,708.8L29.2,793L-78.6,650.9L87,708.8z"/>
	<path style="fill:#919090;fill-opacity:0.502;" d="M-12.9,582.5L-76,469.3l7.9,123.7L-12.9,582.5z"/>
	<path style="fill:#A39A99;fill-opacity:0.502;" d="M137,658.8l-76.3-71.1l213,89.5L137,658.8z"/>
	<path style="fill:#A2A7AB;fill-opacity:0.502;" d="M55.5,411.4l5.3,86.8l281.3,57.9L55.5,411.4z"/>
	<path style="fill:#A79F9F;fill-opacity:0.502;" d="M669.9,603.7l157.8,94.7l-160.4-26.3L669.9,603.7z"/>
	<path style="fill:#7299C2;fill-opacity:0.502;" d="M1158.9,48.4L901.2-125.3L638.3-54.2L1158.9,48.4z"/>
	<path style="fill:#99ACBC;fill-opacity:0.502;" d="M-20.4,374.4l612.7,44.7L437.1,258.7L-20.4,374.4z"/>
	<path style="fill:#8BA5BF;fill-opacity:0.502;" d="M635.7,135.3l365.5,15.8l-76.3,121.1L635.7,135.3z"/>
	<path style="fill:#85A2BE;fill-opacity:0.502;" d="M1118.3,98.4l-490.5,13.2L1158,209L1118.3,98.4z"/>
	<path style="fill:#9EADBB;fill-opacity:0.502;" d="M1118.4,390.1l-86.8,97.4l-176.2-7.9L1118.4,390.1z"/>
	<path style="fill:#9CB5C7;fill-opacity:0.502;" d="M1105.2,363.8l-36.8,97.4l-21-192.1L1105.2,363.8z"/>
	<path style="fill:#99ADBD;fill-opacity:0.502;" d="M942.2,395.3l168.3,7.9l-47.3-118.4L942.2,395.3z"/>
	<path style="fill:#9BABB7;fill-opacity:0.502;" d="M1084.2,437.5l7.9-86.8l-60.5,76.3L1084.2,437.5z"/>
	<path style="fill:#A6ADB2;fill-opacity:0.502;" d="M1015.8,545.4H860.7l173.5-50L1015.8,545.4z"/>
	<path style="fill:#A8ACB1;fill-opacity:0.502;" d="M1013.2,540.1l-21,28.9l-102.5-26.3L1013.2,540.1z"/>
	<path style="fill:#ABABAB;fill-opacity:0.502;" d="M989.6,579.6l-55.2,92.1l-42.1-34.2L989.6,579.6z"/>
	<path style="fill:#A7ACB0;fill-opacity:0.502;" d="M1026.4,519l-142,18.4l115.7,21.1L1026.4,519z"/>
	<path style="fill:#ABA9A9;fill-opacity:0.502;" d="M884.4,616.4l39.4,73.7l36.8-84.2L884.4,616.4z"/>
	<path style="fill:#7D9EBD;fill-opacity:0.502;" d="M1210.4,190.1l-86.8,2.6L1110.5,98L1210.4,190.1z"/>
	<path style="fill:#85A4C1;fill-opacity:0.502;" d="M958,69v157.9l55.2,23.7L958,69z"/>
	<path style="fill:#B2A9AA;fill-opacity:0.502;" d="M1192,248l-36.8-15.8l15.8,13.2L1192,248z"/>
	<path style="fill:#799DC0;fill-opacity:0.502;" d="M866,100.6l265.6,10.5L844.9-57.3L866,100.6z"/>
	<path style="fill:#9AAAB5;fill-opacity:0.502;" d="M1207.8,479.6l-28.9-118.4l-57.8,100L1207.8,479.6z"/>
	<path style="fill:#A2ACB5;fill-opacity:0.502;" d="M1126.3,419l-7.9,94.7l-55.2,18.4L1126.3,419z"/>
	<path style="fill:#A49C9E;fill-opacity:0.502;" d="M1107.9,745.4l-165.7-13.2L887,821.7L1107.9,745.4z"/>
	<path style="fill:#93A7B8;fill-opacity:0.502;" d="M1210.4,340.1l-36.8,28.9l2.6,50L1210.4,340.1z"/>
	<path style="fill:#7B9FC1;fill-opacity:0.502;" d="M695.1-38.9l249.8,184.2l68.4-71.1L695.1-38.9z"/>
	<path style="fill:#799DBE;fill-opacity:0.502;" d="M1039.5,134.8L894.9,29.5l249.8,55.3L1039.5,134.8z"/>
	<path style="fill:#8DA8BF;fill-opacity:0.502;" d="M902.8,292.7l102.5-63.2l-13.1-42.1L902.8,292.7z"/>
	<path style="fill:#94AABD;fill-opacity:0.502;" d="M1071.1,287.4l10.5,60.5L915.9,234.8L1071.1,287.4z"/>
	<path style="fill:#98ABBB;fill-opacity:0.502;" d="M1068.4,290.1l26.3,107.9L902.8,292.7L1068.4,290.1z"/>
	<path style="fill:#9FACB6;fill-opacity:0.502;" d="M1149.9,426.9l-44.7,28.9l-21,63.2L1149.9,426.9z"/>
	<path style="fill:#98A9B5;fill-opacity:0.502;" d="M1157.8,392.7h50l-73.6,47.4L1157.8,392.7z"/>
	<path style="fill:#98AABA;fill-opacity:0.502;" d="M1002.7,266.4l94.7,79l-18.4,100L1002.7,266.4z"/>
	<path style="fill:#7BA2C6;fill-opacity:0.502;" d="M1079,116.4l-36.1,97.9L937,34.8L1079,116.4z"/>
	<path style="fill:#819FBC;fill-opacity:0.502;" d="M1139.4,158.5l2.6,39.5l-26.3-42.1L1139.4,158.5z"/>
	<path style="fill:#A3B5C3;fill-opacity:0.502;" d="M1086.8,479.6l60.5-50l-26.3-5.3L1086.8,479.6z"/>
	<path style="fill:#97ABBA;fill-opacity:0.502;" d="M1102.6,363.8l-18.4,63.2l-44.7-155.3L1102.6,363.8z"/>
	<path style="fill:#96A9B6;fill-opacity:0.502;" d="M1160.5,398l39.4,34.2l-7.9-47.4L1160.5,398z"/>
</g>
<g id="Stick">
	<path id="tel" style="fill:#360100;fill-opacity:0.502;" d="M985.4,106.3l135.6,65.3l27.4,232.1L985.4,106.3z"/>
	<path id="stok_1_" style="fill-opacity:0.502;" d="M1157.8,379.6l-84.1,60.5l-39.4,115.8L1157.8,379.6z"/>
	<path id="stok_2_" style="fill:#C75E47;fill-opacity:0.502;" d="M1079,161.1l57.8,273.7l63.1-147.4L1079,161.1z"/>
	<path style="fill:#37231F;fill-opacity:0.502;" d="M986.9,203.2l174.6,152.6l-90.5-231.6L986.9,203.2z"/>
	<path id="stok_3_" style="fill-opacity:0.502;" d="M908,821.7h-60.5l118.3-186.9L908,821.7z"/>
	<path style="fill-opacity:0.502;" d="M921.2,705.9l65.7-47.4l31.6-107.9L921.2,705.9z"/>
	<path style="fill:#9D5652;fill-opacity:0.502;" d="M1123.7,226.9l-31.6,113.2l92-5.3L1123.7,226.9z"/>
	<path style="fill:#DF5714;fill-opacity:0.502;" d="M1176.2,361.1l-36.8-18.4l-7.9,84.2L1176.2,361.1z"/>
	<path style="fill:#522700;fill-opacity:0.502;" d="M1181.5,311.1l-26.3,10.5l26.3,21.1V311.1z"/>
	<path style="fill-opacity:0.502;" d="M1134.2,408.5l-23.7-15.8l-47.3,94.7L1134.2,408.5z"/>
	<path style="fill:#F4AFA0;fill-opacity:0.502;" d="M1192,366.4l-92-39.5l42.1-13.2L1192,366.4z"/>
	<path style="fill:#3A1F66;fill-opacity:0.502;" d="M1128.9,321.7l-26.3,34.2l13.1,26.3L1128.9,321.7z"/>
	<path style="fill:#5F111A;fill-opacity:0.502;" d="M1152.6,387.4l13.1-15.8l-44.7-5.3L1152.6,387.4z"/>
	<path style="fill:#F7C1C3;fill-opacity:0.502;" d="M1155.2,295.3l-5.3-44.7l28.9,65.8L1155.2,295.3z"/>
	<path style="fill:#380302;fill-opacity:0.502;" d="M1081.6,329.5l31.6,23.7l-26.3-121.1L1081.6,329.5z"/>
	<path style="fill:#070B06;fill-opacity:0.502;" d="M981.7,103.2l23.7,142.1l55.2,28.9L981.7,103.2z"/>
	<path style="fill:#8F8475;fill-opacity:0.502;" d="M1089.5,279.5l-73.6-123.7l13.1,84.2L1089.5,279.5z"/>
	<path style="fill:#48576C;fill-opacity:0.502;" d="M1023.7,216.4l50,36.8l-34.2-123.7L1023.7,216.4z"/>
	<path style="fill:#FFBFA5;fill-opacity:0.502;" d="M1144.7,361.1l-5.3-44.7l-13.1,42.1L1144.7,361.1z"/>
	<path style="fill:#FA9D6D;fill-opacity:0.502;" d="M1147.3,408.5v-42.1l-18.4,31.6L1147.3,408.5z"/>
	<path style="fill:#591D17;fill-opacity:0.502;" d="M1157.8,311.1l-39.4-5.3l-7.9-28.9L1157.8,311.1z"/>
	<path style="fill-opacity:0.502;" d="M1036.9,513.8l78.9-113.2l-21,68.4L1036.9,513.8z"/>
	<path style="fill:#AF361E;fill-opacity:0.502;" d="M1089.5,311.1l44.7-15.8l-31.6,31.6L1089.5,311.1z"/>
	<path style="fill:#E59677;fill-opacity:0.502;" d="M1123.7,311.1l-18.4,28.9l2.6-18.4L1123.7,311.1z"/>
	<path style="fill-opacity:0.502;" d="M1015.8,540.1l71-65.8l-97.3,165.8L1015.8,540.1z"/>
	<path style="fill-opacity:0.502;" d="M915.9,774.3l-52.6,13.2l97.3-102.6L915.9,774.3z"/>
	<path style="fill-opacity:0.502;" d="M965.9,632.2l60.5-55.3L942.2,719L965.9,632.2z"/>
	<path style="fill:#0A0000;fill-opacity:0.502;" d="M884.4,821.7l89.4-157.9l-76.3,73.7L884.4,821.7z"/>
	<path style="fill:#EEC3C8;fill-opacity:0.502;" d="M1107.9,258.5l-10.5-65.8l44.7,94.7L1107.9,258.5z"/>
	<path style="fill:#63523E;fill-opacity:0.502;" d="M1134.2,205.9l42.1,89.5l-2.6-44.7L1134.2,205.9z"/>
	<path style="fill:#FF9837;fill-opacity:0.502;" d="M1178.9,255.9l-18.4-15.8l23.7,44.7L1178.9,255.9z"/>
	<path style="fill:#724654;fill-opacity:0.502;" d="M1163.1,303.2l-15.8,23.7l-18.4-84.2L1163.1,303.2z"/>
	<path style="fill:#2C272A;fill-opacity:0.502;" d="M1060.5,129.5l42.1,50l-76.3-23.7L1060.5,129.5z"/>
	<path style="fill:#1B2A35;fill-opacity:0.502;" d="M1097.4,166.4l21,63.2l-2.6-44.7L1097.4,166.4z"/>
	<path style="fill:#6B4656;fill-opacity:0.502;" d="M1084.2,200.6l36.8,63.2l-13.1,28.9L1084.2,200.6z"/>
	<path style="fill:#A37971;fill-opacity:0.502;" d="M1097.4,150.6L1121,219l2.6-55.3L1097.4,150.6z"/>
	<path style="fill:#200300;fill-opacity:0.502;" d="M1050,140.1l31.6,110.5v-63.2L1050,140.1z"/>
	<path style="fill:#394451;fill-opacity:0.502;" d="M1026.4,221.6l-39.4-118.4l89.4,63.2L1026.4,221.6z"/>
	<path style="fill:#B9727E;fill-opacity:0.502;" d="M1073.7,169l28.9,65.8l-7.9-55.3L1073.7,169z"/>
	<path style="fill:#EDBBB0;fill-opacity:0.502;" d="M1097.4,190.1l-13.1-5.3l18.4,18.4L1097.4,190.1z"/>
	<path style="fill-opacity:0.502;" d="M1092.1,240.1l-13.1-39.5l-2.6,23.7L1092.1,240.1z"/>
	<path style="fill:#706362;fill-opacity:0.502;" d="M1071.1,232.2l-28.9,23.7l-23.7-79L1071.1,232.2z"/>
	<path style="fill:#5D5B64;fill-opacity:0.502;" d="M1063.2,219l-39.4-92.1l36.8,44.7L1063.2,219z"/>
	<path style="fill:#0D0200;fill-opacity:0.502;" d="M1076.3,200.6l-15.8-36.8l13.1,15.8L1076.3,200.6z"/>
	<path style="fill-opacity:0.502;" d="M1026.4,253.2l44.7,18.4l13.1,26.3L1026.4,253.2z"/>
	<path style="fill:#E3BDBB;fill-opacity:0.502;" d="M1142.1,290.1l-28.9-50l10.5,42.1L1142.1,290.1z"/>
	<path style="fill:#814957;fill-opacity:0.502;" d="M1121,324.3l-26.3-102.6l31.6,55.3L1121,324.3z"/>
	<path style="fill:#BC968A;fill-opacity:0.502;" d="M1065.8,124.3l60.5,47.4l-42.1-7.9L1065.8,124.3z"/>
	<path style="fill:#D9B7B6;fill-opacity:0.502;" d="M1165.7,287.4l-28.9-52.6l23.7,23.7L1165.7,287.4z"/>
	<path style="fill:#44340B;fill-opacity:0.502;" d="M1186.8,340.1v-13.2l-26.3,2.6L1186.8,340.1z"/>
	<path style="fill:#C29448;fill-opacity:0.502;" d="M1171,324.3l13.1-2.6l-2.6,13.2L1171,324.3z"/>
	<path style="fill:#37141B;fill-opacity:0.502;" d="M1131.5,258.5l-21-50l23.7,26.3L1131.5,258.5z"/>
	<path style="fill:#190A00;fill-opacity:0.502;" d="M1079,290.1l5.3-68.4l26.3,79L1079,290.1z"/>
	<path style="fill:#D9881B;fill-opacity:0.502;" d="M1042.1,250.6h26.3l28.9,31.6L1042.1,250.6z"/>
	<path style="fill:#AD6276;fill-opacity:0.502;" d="M1147.3,261.1l2.6,26.3l18.4,23.7L1147.3,261.1z"/>
	<path style="fill:#E7A797;fill-opacity:0.502;" d="M1128.9,308.5l5.3,36.8l50,5.3L1128.9,308.5z"/>
	<path style="fill:#5A4164;fill-opacity:0.502;" d="M1094.7,298l-15.8,26.3l44.7-39.5L1094.7,298z"/>
	<path style="fill:#42454D;fill-opacity:0.502;" d="M1097.4,271.7l23.7,15.8l-23.7-36.8V271.7z"/>
	<path style="fill:#4C4A57;fill-opacity:0.502;" d="M1071.1,266.4l-23.7-23.7l42.1,23.7H1071.1z"/>
	<path style="fill:#050103;fill-opacity:0.502;" d="M1081.6,237.4l13.1,21.1l-7.9-36.8L1081.6,237.4z"/>
	<path style="fill:#FFC9C0;fill-opacity:0.502;" d="M1149.9,240.1l-21-39.5l5.3,26.3L1149.9,240.1z"/>
	<path style="fill:#9D5459;fill-opacity:0.502;" d="M1136.8,240.1L1121,219l10.5,39.5L1136.8,240.1z"/>
	<path style="fill-opacity:0.502;" d="M1086.8,279.5l13.1,21.1l-55.2-31.6L1086.8,279.5z"/>
	<path style="fill:#5B5559;fill-opacity:0.502;" d="M1147.3,292.7l-10.5-23.7v13.2L1147.3,292.7z"/>
	<path style="fill:#663746;fill-opacity:0.502;" d="M1121,316.4v21.1l15.8-42.1L1121,316.4z"/>
	<path style="fill:#724A6D;fill-opacity:0.502;" d="M1118.4,269l7.9,18.4l-15.8,10.5L1118.4,269z"/>
	<path style="fill:#202630;fill-opacity:0.502;" d="M1023.7,150.6l18.4,13.2v23.7L1023.7,150.6z"/>
	<path style="fill:#140000;fill-opacity:0.502;" d="M1060.5,166.4l2.6-18.4l-13.1-2.6L1060.5,166.4z"/>
	<path style="fill:#502810;fill-opacity:0.502;" d="M1065.8,234.8v-55.3l28.9,97.4L1065.8,234.8z"/>
	<path style="fill:#C5797D;fill-opacity:0.502;" d="M1142.1,237.4l-18.4-34.2l7.9,34.2H1142.1z"/>
	<path style="fill:#E7B8AC;fill-opacity:0.502;" d="M1102.6,203.2l21,47.4l-15.8-10.5L1102.6,203.2z"/>
	<path style="fill:#040000;fill-opacity:0.502;" d="M1079,221.6l-7.9-42.1l10.5,18.4L1079,221.6z"/>
	<path style="fill:#02060D;fill-opacity:0.502;" d="M1018.5,158.5L979,113.7l39.4,136.8V158.5z"/>
	<path style="fill:#88554F;fill-opacity:0.502;" d="M1065.8,124.3l5.3,15.8l-28.9,5.3L1065.8,124.3z"/>
	<path style="fill:#536075;fill-opacity:0.502;" d="M1002.7,111.1l18.4,92.1l10.5-68.4L1002.7,111.1z"/>
	<path style="fill:#5C5A64;fill-opacity:0.502;" d="M1005.3,148l65.7,89.5l-44.7-28.9L1005.3,148z"/>
	<path style="fill:#8C280C;fill-opacity:0.502;" d="M1086.8,313.8l52.6-7.9l-5.3-13.2L1086.8,313.8z"/>
	<path style="fill-opacity:0.502;" d="M1005.3,190.1l10.5,55.3l28.9,26.3L1005.3,190.1z"/>
	<path style="fill:#362B25;fill-opacity:0.502;" d="M1002.7,142.7l2.6,47.4l21,23.7L1002.7,142.7z"/>
	<path style="fill-opacity:0.502;" d="M992.2,105.9L979,116.4l23.7,31.6L992.2,105.9z"/>
	<path style="fill:#000F31;fill-opacity:0.502;" d="M1029,182.2l15.8,7.9l7.9,13.2L1029,182.2z"/>
	<path style="fill:#EB8000;fill-opacity:0.502;" d="M1029,234.8l5.3,13.2l23.7,10.5L1029,234.8z"/>
	<path style="fill:#5E5E6A;fill-opacity:0.502;" d="M1026.4,176.9l13.1,65.8l36.8,21.1L1026.4,176.9z"/>
	<path style="fill:#3C2C26;fill-opacity:0.502;" d="M1013.2,224.3l21,10.5l-21-52.6V224.3z"/>
	<path style="fill:#241F20;fill-opacity:0.502;" d="M1034.3,158.5l-10.5-13.2l2.6,13.2H1034.3z"/>
	<path style="fill:#4B556B;fill-opacity:0.502;" d="M1034.3,134.8l18.4,18.4l-42.1-10.5L1034.3,134.8z"/>
	<path style="fill:#90434A;fill-opacity:0.502;" d="M1128.9,240.1l2.6-15.8l-18.4-23.7L1128.9,240.1z"/>
	<path style="fill:#935866;fill-opacity:0.502;" d="M1142.1,329.5l21-15.8l-18.4-50L1142.1,329.5z"/>
	<path style="fill:#492E2E;fill-opacity:0.502;" d="M1073.7,169l47.3,7.9l-23.7-15.8L1073.7,169z"/>
	<path style="fill:#E5B6AE;fill-opacity:0.502;" d="M1147.3,240.1l-13.1-10.5l18.4,31.6L1147.3,240.1z"/>
	<path style="fill:#DCBFB8;fill-opacity:0.502;" d="M1115.8,234.8l5.3,23.7l10.5,5.3L1115.8,234.8z"/>
	<path style="fill:#61494C;fill-opacity:0.502;" d="M1142.1,284.8l-2.6-26.3l-18.4-15.8L1142.1,284.8z"/>
	<path style="fill:#9B5153;fill-opacity:0.502;" d="M1163.1,303.2l-31.6-63.2l7.9,39.5L1163.1,303.2z"/>
	<path style="fill:#AB5823;fill-opacity:0.502;" d="M1181.5,332.2l-23.7-13.2l18.4-5.3L1181.5,332.2z"/>
	<path style="fill:#AC5F69;fill-opacity:0.502;" d="M1147.3,263.8h-10.5v-28.9L1147.3,263.8z"/>
	<path style="fill:#242210;fill-opacity:0.502;" d="M1110.5,187.4l7.9,5.3l-5.3-18.4L1110.5,187.4z"/>
	<path style="fill:#8E4F5D;fill-opacity:0.502;" d="M1113.1,245.3l-23.7-55.3V219L1113.1,245.3z"/>
	<path style="fill:#4D2D25;fill-opacity:0.502;" d="M1068.4,190.1l2.6,28.9l-13.1-34.2L1068.4,190.1z"/>
	<path style="fill:#00020F;fill-opacity:0.502;" d="M1005.3,161.1l-10.5,15.8L979,116.4L1005.3,161.1z"/>
	<path style="fill:#060B16;fill-opacity:0.502;" d="M1013.2,240.1l-15.8-68.4l18.4,21.1L1013.2,240.1z"/>
	<path style="fill:#545661;fill-opacity:0.502;" d="M1026.4,203.2l10.5-42.1l-21,10.5L1026.4,203.2z"/>
	<path style="fill:#5B5961;fill-opacity:0.502;" d="M1031.6,237.4l31.6,7.9l2.6-13.2L1031.6,237.4z"/>
	<path style="fill:#555867;fill-opacity:0.502;" d="M1039.5,237.4L1029,219l31.6,7.9L1039.5,237.4z"/>
	<path style="fill:#2B1E16;fill-opacity:0.502;" d="M1008,153.2l-13.1-39.5v26.3L1008,153.2z"/>
	<path style="fill:#374E6D;fill-opacity:0.502;" d="M1021.1,140.1l-26.3-31.6l52.6,36.8L1021.1,140.1z"/>
	<path style="fill:#585760;fill-opacity:0.502;" d="M1042.1,169l15.8-2.6l2.6,42.1L1042.1,169z"/>
	<path style="fill-opacity:0.502;" d="M1026.4,258.5l31.6,18.4l-47.3-55.3L1026.4,258.5z"/>
	<path style="fill:#545764;fill-opacity:0.502;" d="M1060.5,213.8l-28.9,13.2l-5.3-26.3L1060.5,213.8z"/>
	<path style="fill:#050E18;fill-opacity:0.502;" d="M1010.6,200.6l-15.8-15.8l7.9-15.8L1010.6,200.6z"/>
	<path style="fill:#222A38;fill-opacity:0.502;" d="M1031.6,155.9l7.9,13.2l-2.6,15.8L1031.6,155.9z"/>
	<path style="fill:#1F2024;fill-opacity:0.502;" d="M1010.6,195.3l7.9,34.2l2.6-18.4L1010.6,195.3z"/>
	<path style="fill:#450D21;fill-opacity:0.502;" d="M1079,326.9v-18.4l31.6,31.6L1079,326.9z"/>
	<path style="fill:#E26841;fill-opacity:0.502;" d="M1121,298l7.9,5.3l5.3-5.3H1121z"/>
	<path style="fill:#37432D;fill-opacity:0.502;" d="M1131.5,305.9l15.8-7.9l2.6,10.5L1131.5,305.9z"/>
	<path style="fill:#D7C1BB;fill-opacity:0.502;" d="M1173.6,300.6l-5.3-7.9l5.3,18.4V300.6z"/>
	<path style="fill:#44326C;fill-opacity:0.502;" d="M1134.2,390.1l-28.9-10.5l21-39.5L1134.2,390.1z"/>
	<path style="fill:#AB607A;fill-opacity:0.502;" d="M1121,382.2h-18.4l28.9,23.7L1121,382.2z"/>
	<path style="fill:#5A557C;fill-opacity:0.502;" d="M1089.5,313.8l21-15.8l-39.4,7.9L1089.5,313.8z"/>
	<path style="fill:#391F47;fill-opacity:0.502;" d="M1094.7,342.7l42.1,26.3l-10.5,15.8L1094.7,342.7z"/>
	<path style="fill:#FFB38D;fill-opacity:0.502;" d="M1115.8,319v13.2l-10.5,2.6L1115.8,319z"/>
	<path style="fill:#5B3C61;fill-opacity:0.502;" d="M1128.9,340.1h-34.2l21,34.2L1128.9,340.1z"/>
	<path style="fill-opacity:0.502;" d="M1126.3,411.1l-15.8-13.2l-21,71.1L1126.3,411.1z"/>
	<path style="fill:#75496B;fill-opacity:0.502;" d="M1147.3,382.2l-47.3,7.9l5.3-13.2L1147.3,382.2z"/>
	<path style="fill:#E48F71;fill-opacity:0.502;" d="M1173.6,363.8l-44.7-26.3l47.3,2.6L1173.6,363.8z"/>
	<path style="fill:#6B686C;fill-opacity:0.502;" d="M1142.1,287.4l7.9,13.2l-2.6,7.9L1142.1,287.4z"/>
	<path style="fill:#D1A2AB;fill-opacity:0.502;" d="M1176.2,353.2l-39.4-28.9l34.2,13.2L1176.2,353.2z"/>
	<path style="fill:#E48C52;fill-opacity:0.502;" d="M1136.8,421.7v-42.1l15.8,15.8L1136.8,421.7z"/>
	<path style="fill:#E9A180;fill-opacity:0.502;" d="M1134.2,403.2l23.7-13.2l-10.5,18.4L1134.2,403.2z"/>
	<path style="fill:#4A5B5D;fill-opacity:0.502;" d="M1181.5,313.8l-7.9-18.4l2.6-18.4L1181.5,313.8z"/>
	<path style="fill:#953C08;fill-opacity:0.502;" d="M1149.9,326.9l2.6-5.3l15.8,2.6L1149.9,326.9z"/>
	<path style="fill:#F2C6B2;fill-opacity:0.502;" d="M1147.3,342.7l-7.9-28.9l-10.5-2.6L1147.3,342.7z"/>
	<path style="fill:#E2B8B1;fill-opacity:0.502;" d="M1155.2,276.9l15.8,13.2l-18.4-31.6L1155.2,276.9z"/>
	<path style="fill:#58575F;fill-opacity:0.502;" d="M1110.5,274.3l-7.9-5.3l-2.6-13.2L1110.5,274.3z"/>
	<path style="fill:#FFE2C3;fill-opacity:0.502;" d="M1134.2,358.5l5.3,2.6l2.6,5.3L1134.2,358.5z"/>
	<path style="fill:#E69F9A;fill-opacity:0.502;" d="M1110.5,326.9l7.9,13.2l-7.9-2.6V326.9z"/>
	<path style="fill:#001937;fill-opacity:0.502;" d="M1036.9,184.8l7.9,7.9v7.9L1036.9,184.8z"/>
	<path style="fill:#4B5264;fill-opacity:0.502;" d="M1057.9,184.8l-13.1-39.5l-31.6-23.7L1057.9,184.8z"/>
	<path style="fill:#5E5962;fill-opacity:0.502;" d="M1036.9,190.1l-26.3-39.5l15.8,7.9L1036.9,190.1z"/>
	<path style="fill:#67524D;fill-opacity:0.502;" d="M1073.7,255.9l-10.5-15.8l2.6-23.7L1073.7,255.9z"/>
	<path style="fill:#331704;fill-opacity:0.502;" d="M1063.2,145.3l-7.9,21.1l-7.9-23.7L1063.2,145.3z"/>
	<path style="fill:#4D5262;fill-opacity:0.502;" d="M1010.6,153.2l21-10.5l-23.7-21.1L1010.6,153.2z"/>
	<path style="fill:#0F1A26;fill-opacity:0.502;" d="M989.6,179.5l10.5-2.6v-10.5L989.6,179.5z"/>
	<path style="fill:#4D3025;fill-opacity:0.502;" d="M1079,242.7l-10.5-34.2l-2.6,21.1L1079,242.7z"/>
	<path style="fill:#555155;fill-opacity:0.502;" d="M1036.9,171.6l10.5-7.9l7.9,28.9L1036.9,171.6z"/>
	<path style="fill:#57311E;fill-opacity:0.502;" d="M1089.5,274.3l-15.8-15.8l-2.6-21.1L1089.5,274.3z"/>
	<path style="fill:#293544;fill-opacity:0.502;" d="M1100,253.2l-10.5-21.1l2.6,15.8L1100,253.2z"/>
	<path style="fill:#D19997;fill-opacity:0.502;" d="M1113.1,226.9l10.5,42.1l-13.1-23.7L1113.1,226.9z"/>
	<path style="fill:#431100;fill-opacity:0.502;" d="M1134.2,305.9l10.5,7.9l-10.5-15.8V305.9z"/>
	<path style="fill:#3D1F37;fill-opacity:0.502;" d="M1131.5,379.6l7.9-7.9l-28.9-23.7L1131.5,379.6z"/>
	<path style="fill:#050000;fill-opacity:0.502;" d="M1055.3,487.5l44.7-50l-31.6,68.4L1055.3,487.5z"/>
	<path style="fill:#100000;fill-opacity:0.502;" d="M1092.1,466.4l7.9-42.1l23.7-10.5L1092.1,466.4z"/>
	<path style="fill-opacity:0.502;" d="M963.3,690.1L958,648l44.7-57.9L963.3,690.1z"/>
	<path style="fill:#A96C2A;fill-opacity:0.502;" d="M958,679.6l-5.3-5.3l15.8,5.3H958z"/>
	<path style="fill:#140100;fill-opacity:0.502;" d="M968.5,676.9l-39.4,23.7l-15.8,71.1L968.5,676.9z"/>
	<path style="fill-opacity:0.502;" d="M863.3,800.6l31.6-39.5v34.2L863.3,800.6z"/>
	<path style="fill:#000A10;fill-opacity:0.502;" d="M902.8,729.6l39.4-42.1l-21,44.7L902.8,729.6z"/>
	<path style="fill:#3C1900;fill-opacity:0.502;" d="M918.6,745.4l15.8-28.9l-5.3,28.9H918.6z"/>
	<path style="fill:#030000;fill-opacity:0.502;" d="M871.2,805.9l42.1,7.9l-5.3-79L871.2,805.9z"/>
	<path style="fill:#120300;fill-opacity:0.502;" d="M931.7,742.7l-42.1,42.1l21-42.1H931.7z"/>
	<path style="fill-opacity:0.502;" d="M897.5,750.6L908,748l-15.8,26.3L897.5,750.6z"/>
	<path style="fill:#0B1216;fill-opacity:0.502;" d="M894.9,821.7v-79l-23.7,71.1L894.9,821.7z"/>
	<path style="fill-opacity:0.502;" d="M866,821.7h39.4l-13.1-60.5L866,821.7z"/>
	<path style="fill:#344048;fill-opacity:0.502;" d="M902.8,821.7l-47.3-15.8l18.4-28.9L902.8,821.7z"/>
	<path style="fill:#140100;fill-opacity:0.502;" d="M904.3,790.1l-39.4,23.7l-15.8,71.1L904.3,790.1z"/>
	<path style="fill:#000A10;fill-opacity:0.502;" d="M722,1000.8l130.1-138.9l-69.4,147.6L722,1000.8z"/>
	<path style="fill:#120300;fill-opacity:0.502;" d="M932.3,776.8L787,922.2l72.7-145.4H932.3z"/>
	<path style="fill:#000A10;fill-opacity:0.502;" d="M806.8,899.1l39.4-42.1l-21,44.7L806.8,899.1z"/>
	<path style="fill-opacity:0.502;" d="M813.4,944.8l-5.3-42.1l44.7-57.9L813.4,944.8z"/>
	<path style="fill:none;stroke:#FFFFFF;stroke-width:3;stroke-linecap:round;stroke-miterlimit:10;" d="M44,100.7"/>
</g>
</svg>
