<?xml version="1.0" encoding="utf-8"?>
<!-- Generator: Adobe Illustrator 22.1.0, SVG Export Plug-In . SVG Version: 6.00 Build 0)  -->
<svg version="1.1" xmlns="http://www.w3.org/2000/svg" xmlns:xlink="http://www.w3.org/1999/xlink" x="0px" y="0px"
	 viewBox="0 0 1366 768" style="enable-background:new 0 0 1366 768;" xml:space="preserve">
<g id="background">
	<rect x="-0.7" y="-143.9" style="fill:#7F95A7;" width="1429.5" height="931.4"/>
		<polygon class="bg_stick" style="fill:#005895;fill-opacity:0.502;" points="1161.6,-170,1795.3,-170,1755.9,414.2"></polygon>
		<polygon class="bg_stick" style="fill:#B4ABA6;fill-opacity:0.502;" points="200.1,21.9,1320.2,787.7,-107.5,693"></polygon>
		<polygon class="bg_stick" style="fill:#9BB3C8;fill-opacity:0.502;" points="452.5,685.1,678.6,279.8,-107.5,56.1"></polygon>
		<polygon class="bg_stick" style="fill:#004C7C;fill-opacity:0.502;" points="1795.2,222.1,1795.2,-170,1492.8,-170"></polygon>
		<polygon class="bg_stick" style="fill:#598BB6;fill-opacity:0.502;" points="1795.2,495.8,861.8,-130.5,1424.5,-156.8"></polygon>
		<polygon class="bg_stick" style="fill:#868374;fill-opacity:0.502;" points="1795.2,764.3,1740,227.4,1463.9,790.6"></polygon>
		<polygon class="bg_stick" style="fill:#649CD2;fill-opacity:0.502;" points="-123.5,-169.3,6.3,453,1359,-87.2"></polygon>
		<polygon class="bg_stick" style="fill:#ABABA9;fill-opacity:0.502;" points="1240.4,240.5,896,809,1698,661.6"></polygon>
		<polygon class="bg_stick" style="fill:#9C857D;fill-opacity:0.502;" points="-89.1,774.6,-107.5,445.6,423.6,769.3"></polygon>
		<polygon class="bg_stick" style="fill:#B0AAA6;fill-opacity:0.502;" points="64,497.8,608.5,813.7,944.9,282.6"></polygon>
		<polygon class="bg_stick" style="fill:#8CA9C2;fill-opacity:0.502;" points="-107.5,332.4,573.5,306.1,455.2,-101.8"></polygon>
		<polygon class="bg_stick" style="fill:#89A8C6;fill-opacity:0.502;" points="675.1,216.9,985.4,106.4,1035.4,259"></polygon>
		<polygon class="bg_stick" style="fill:#A3AFB6;fill-opacity:0.502;" points="867.3,780.8,1085.9,422.1,64.5,371.9"></polygon>
		<polygon class="bg_stick" style="fill:#A8ABAD;fill-opacity:0.502;" points="1035.3,519.5,935.4,661.6,638.3,432.6"></polygon>
		<polygon class="bg_stick" style="fill:#A39899;fill-opacity:0.502;" points="418.4,793,55.5,779.8,384.2,621.9"></polygon>
		<polygon class="bg_stick" style="fill:#A9A3A3;fill-opacity:0.502;" points="985.4,590.6,903.9,727.4,617.3,619.5"></polygon>
		<polygon class="bg_stick" style="fill:#9C9B9C;fill-opacity:0.502;" points="-78.6,543,405.2,793,-76,311.4"></polygon>
		<polygon class="bg_stick" style="fill:#A8A8A9;fill-opacity:0.502;" points="856.5,685.3,972.2,582.7,669.8,511.6"></polygon>
		<polygon class="bg_stick" style="fill:#A1999B;fill-opacity:0.502;" points="683,724.5,600.1,894.6,23.9,616.6"></polygon>
		<polygon class="bg_stick" style="fill:#817576;fill-opacity:0.502;" points="-107.5,561.4,108.1,740.4,-52.3,793"></polygon>
		<polygon class="bg_stick" style="fill:#A5A0A0;fill-opacity:0.502;" points="898.6,730,633,527.4,662,666.9"></polygon>
		<polygon class="bg_stick" style="fill:#8DA4B5;fill-opacity:0.502;" points="1024.9,267.9,211.4,-37,64.5,526.2"></polygon>
		<polygon class="bg_stick" style="fill:#6694C4;fill-opacity:0.502;" points="786.5,-186,476.2,11.4,-107.5,-136"></polygon>
		<polygon class="bg_stick" style="fill:#7E9FBF;fill-opacity:0.502;" points="-107.5,116.6,415.8,179.8,376.4,-115"></polygon>
		<polygon class="bg_stick" style="fill:#598BB5;fill-opacity:0.502;" points="139.6,-170.2,-70.8,-154.4,-73.4,182.5"></polygon>
		<polygon class="bg_stick" style="fill:#7699B6;fill-opacity:0.502;" points="160.7,-30.7,-107.5,32.5,-62.8,269.4"></polygon>
		<polygon class="bg_stick" style="fill:#869EB0;fill-opacity:0.502;" points="-54.9,153.5,137,164,-99.6,429.8"></polygon>
		<polygon class="bg_stick" style="fill:#7A9AB6;fill-opacity:0.502;" points="-107.5,245.6,110.7,127.2,-23.4,56.1"></polygon>
		<polygon class="bg_stick" style="fill:#6D96BA;fill-opacity:0.502;" points="-107.5,90.3,37.1,77.2,116,-138.6"></polygon>
		<polygon class="bg_stick" style="fill:#6694BF;fill-opacity:0.502;" points="118.6,-38.6,205.4,-186,-20.8,-59.7"></polygon>
		<polygon class="bg_stick" style="fill:#739AC1;fill-opacity:0.502;" points="606.7,-59.5,554.2,61.6,867.1,-80.5"></polygon>
		<polygon class="bg_stick" style="fill:#6E97BE;fill-opacity:0.502;" points="39.7,27.2,236.9,-99.2,26.5,-49.2"></polygon>
		<polygon class="bg_stick" style="fill:#80A1C0;fill-opacity:0.502;" points="588.3,164.2,627.7,24.7,819.7,3.7"></polygon>
		<polygon class="bg_stick" style="fill:#92A2AC;fill-opacity:0.502;" points="87,232.4,81.7,495.6,-107.6,353.5"></polygon>
		<polygon class="bg_stick" style="fill:#96999C;fill-opacity:0.502;" points="160.7,650.9,-107.5,487.7,-65.4,337.7"></polygon>
		<polygon class="bg_stick" style="fill:#9E999A;fill-opacity:0.502;" points="155.4,653.5,231.7,593,-33.9,529.8"></polygon>
		<polygon class="bg_stick" style="fill:#AEA9A7;fill-opacity:0.502;" points="922.3,698.5,1027.5,524.8,693.6,527.4"></polygon>
		<polygon class="bg_stick" style="fill:#9DAEBB;fill-opacity:0.502;" points="860.5,266.1,1075.7,414.2,1111.6,353.6"></polygon>
		<polygon class="bg_stick" style="fill:#A4ADB5;fill-opacity:0.502;" points="761.9,407.9,1119.5,551.1,1240,362.7"></polygon>
		<polygon class="bg_stick" style="fill:#98ACBE;fill-opacity:0.502;" points="846,430.4,1045.4,177.4,1191.4,434"></polygon>
		<polygon class="bg_stick" style="fill:#A0AEB9;fill-opacity:0.502;" points="832.9,424.8,1019.6,466.9,1116.9,359"></polygon>
		<polygon class="bg_stick" style="fill:#AAABAB;fill-opacity:0.502;" points="1022.6,622.1,1082.5,515.6,829.8,598.8"></polygon>
		<polygon class="bg_stick" style="fill:#82A1C0;fill-opacity:0.502;" points="1009,206.3,793.4,116.8,980.1,51"></polygon>
		<polygon class="bg_stick" style="fill:#91AAC0;fill-opacity:0.502;" points="704,237.9,1014.3,219.5,1093.2,322.1"></polygon>
		<polygon class="bg_stick" style="fill:#91A9BE;fill-opacity:0.502;" points="1295.9,384,1053.8,141,835.5,255"></polygon>
		<polygon class="bg_stick" style="fill:#9D9798;fill-opacity:0.502;" points="733,698.5,901.2,809,688.2,803.7"></polygon>
		<polygon class="bg_stick" style="fill:#93898B;fill-opacity:0.502;" points="-97,569.3,202.8,745.6,94.9,793"></polygon>
		<polygon class="bg_stick" style="fill:#979195;fill-opacity:0.502;" points="63.4,661.4,150.2,735.1,308,716.7"></polygon>
		<polygon class="bg_stick" style="fill:#948B8C;fill-opacity:0.502;" points="-107.5,529.8,63.4,737.7,263.2,793"></polygon>
		<polygon class="bg_stick" style="fill:#978F92;fill-opacity:0.502;" points="591,695.8,758.8,973.3,963,914.9"></polygon>
		<polygon class="bg_stick" style="fill:#7A7274;fill-opacity:0.502;" points="162.3,917.8,-89.1,827.6,-89.1,637.7"></polygon>
		<polygon class="bg_stick" style="fill:#929191;fill-opacity:0.502;" points="-107.5,561.4,34.5,608.8,-12.9,514"></polygon>
		<polygon class="bg_stick" style="fill:#7BA1C2;fill-opacity:0.502;" points="1364,474.8,1479.7,237.9,872.3,-170"></polygon>
		<polygon class="bg_stick" style="fill:#93ABB9;fill-opacity:0.502;" points="1227.3,522.1,1180,161.6,1406.1,509"></polygon>
		<polygon class="bg_stick" style="fill:#6994BF;fill-opacity:0.502;" points="1093.2,153.7,1009,-148.9,1484.9,51.1"></polygon>
		<polygon class="bg_stick" style="fill:#9FB1BB;fill-opacity:0.502;" points="1148.4,403.7,1087.9,482.7,1308.8,574.8"></polygon>
		<polygon class="bg_stick" style="fill:#799DBE;fill-opacity:0.502;" points="1019.6,-22.6,898.6,61.6,1392.9,222.1"></polygon>
		<polygon class="bg_stick" style="fill:#84A1B7;fill-opacity:0.502;" points="1124.7,124.8,1408.7,322.2,1237.8,335.4"></polygon>
		<polygon class="bg_stick" style="fill:#8FA8BB;fill-opacity:0.502;" points="1201,264.2,1279.9,330,1182.6,498.4"></polygon>
		<polygon class="bg_stick" style="fill:#8FA4B1;fill-opacity:0.502;" points="1235.2,227.4,1158.9,435.3,1592.8,474.8"></polygon>
		<polygon class="bg_stick" style="fill:#7C9CB8;fill-opacity:0.502;" points="1222,85.3,1174.7,219.5,1353.5,351.1"></polygon>
		<polygon class="bg_stick" style="fill:#7F9FBB;fill-opacity:0.502;" points="1240.4,214.2,1132.6,143.1,1132.6,180"></polygon>
		<polygon class="bg_stick" style="fill:#86A2B8;fill-opacity:0.502;" points="1187.8,280,1224.6,235.3,1311.4,369.5"></polygon>
		<polygon class="bg_stick" style="fill:#84A0B8;fill-opacity:0.502;" points="1079,190.9,1258.9,314.2,1279.9,240.5"></polygon>
		<polygon class="bg_stick" style="fill:#5E8295;fill-opacity:0.502;" points="1395.6,66.9,1795.2,230,1753.1,609"></polygon>
		<polygon class="bg_stick" style="fill:#6991AF;fill-opacity:0.502;" points="1619.1,432.7,1495.5,72.1,1208.9,69.5"></polygon>
		<polygon class="bg_stick" style="fill:#9BAAB3;fill-opacity:0.502;" points="1041.8,280.9,1400.8,471.4,925,480"></polygon>
		<polygon class="bg_stick" style="fill:#9F9995;fill-opacity:0.502;" points="1011.7,777.4,1608.6,766.9,1627,466.9"></polygon>
		<polygon class="bg_stick" style="fill:#8CA4B8;fill-opacity:0.502;" points="1293,390.6,1172,219,1172,293"></polygon>
		<polygon class="bg_stick" style="fill:#9AA5A7;fill-opacity:0.502;" points="1487.6,603.7,1361.4,393.2,1266.7,564.3"></polygon>
		<polygon class="bg_stick" style="fill:#889697;fill-opacity:0.502;" points="1666.4,719.5,1679.5,448.4,1432.3,427.3"></polygon>
		<polygon class="bg_stick" style="fill:#8BA0AB;fill-opacity:0.502;" points="1571.7,514.2,1408.7,287.9,1353.5,472.1"></polygon>
		<polygon class="bg_stick" style="fill:#93A5B0;fill-opacity:0.502;" points="1403.5,427.4,1282.5,343.2,1282.5,474.8"></polygon>
		<polygon class="bg_stick" style="fill:#ADA8A8;fill-opacity:0.502;" points="1082.7,490.6,1392.9,659,919.6,809"></polygon>
		<polygon class="bg_stick" style="fill:#929E9F;fill-opacity:0.502;" points="1437.6,516.9,1566.4,614.3,1532.2,469.6"></polygon>
		<polygon class="bg_stick" style="fill:#898278;fill-opacity:0.502;" points="1771.6,445.8,1566.5,809,1795.3,766.9"></polygon>
		<polygon class="bg_stick" style="fill:#356D90;fill-opacity:0.502;" points="1771.6,406.3,1519.2,-146.4,1753.2,90.5"></polygon>
		<polygon class="bg_stick" style="fill:#597C8D;fill-opacity:0.502;" points="1637.5,256.3,1787.4,609,1795.3,248.5"></polygon>
		<polygon class="bg_stick" style="fill:#768685;fill-opacity:0.502;" points="1795.2,535.3,1716.3,422.1,1690,606.3"></polygon>
		<polygon class="bg_stick" style="fill:#94918D;fill-opacity:0.502;" points="1721.6,685.3,1637.5,532.7,1513.9,809"></polygon>
		<polygon class="bg_stick" style="fill:#2A71A7;fill-opacity:0.502;" points="1682.2,82.6,1203.6,-170,1574.3,-170"></polygon>
		<polygon class="bg_stick" style="fill:#5287B5;fill-opacity:0.502;" points="1364,-159.5,1066.9,-156.9,1527,209"></polygon>
		<polygon class="bg_stick" style="fill:#7C9CBA;fill-opacity:0.502;" points="1093.2,143.2,1224.7,151.1,1122.2,90.6"></polygon>
		<polygon class="bg_stick" style="fill:#A5ADB2;fill-opacity:0.502;" points="1023.8,448.5,885.2,661.6,1361.4,548.6"></polygon>
		<polygon class="bg_stick" style="fill:#A0ABB2;fill-opacity:0.502;" points="1369.3,514.2,1130,416.9,1064.3,551.1"></polygon>
		<polygon class="bg_stick" style="fill:#94A8B8;fill-opacity:0.502;" points="1324.6,414.2,1140.1,316.2,1156.3,414.2"></polygon>
		<polygon class="bg_stick" style="fill:#92A7B7;fill-opacity:0.502;" points="1229.9,341.9,1151.8,150.8,1047.6,385.4"></polygon>
		<polygon class="bg_stick" style="fill:#A5A4A3;fill-opacity:0.502;" points="1178.9,537.9,1445.5,639.4,1070.1,925"></polygon>
		<polygon class="bg_stick" style="fill:#7593A6;fill-opacity:0.502;" points="1411.3,324.8,1427.1,188,1692.7,409"></polygon>
		<polygon class="bg_stick" style="fill:#7F9CAF;fill-opacity:0.502;" points="1490.2,298.4,1266.7,256.3,1516.5,430"></polygon>
		<polygon class="bg_stick" style="fill:#9DABB4;fill-opacity:0.502;" points="1090.6,485.3,1116.9,365.1,1261.5,477.4"></polygon>
		<polygon class="bg_stick" style="fill:#ACACAB;fill-opacity:0.502;" points="1021.8,498.5,1306.2,582.7,980.2,666.9"></polygon>
		<polygon class="bg_stick" style="fill:#A6ACB0;fill-opacity:0.502;" points="1016.7,467.4,1272,532.2,970,553.8"></polygon>
		<polygon class="bg_stick" style="fill:#A89E9E;fill-opacity:0.502;" points="878.7,762.8,1358.8,777.4,912.8,619.6"></polygon>
		<polygon class="bg_stick" style="fill:#988D89;fill-opacity:0.502;" points="39.7,664,-57.6,645.6,-94.4,543"></polygon>
		<polygon class="bg_stick" style="fill:#888184;fill-opacity:0.502;" points="87,708.8,29.2,793,-78.6,650.9"></polygon>
		<polygon class="bg_stick" style="fill:#919090;fill-opacity:0.502;" points="-12.9,582.5,-76,469.3,-68.1,593"></polygon>
		<polygon class="bg_stick" style="fill:#A39A99;fill-opacity:0.502;" points="137,658.8,60.7,587.7,273.7,677.2"></polygon>
		<polygon class="bg_stick" style="fill:#A2A7AB;fill-opacity:0.502;" points="55.5,411.4,60.8,498.2,342.1,556.1"></polygon>
		<polygon class="bg_stick" style="fill:#A79F9F;fill-opacity:0.502;" points="669.9,603.7,827.7,698.4,667.3,672.1"></polygon>
		<polygon class="bg_stick" style="fill:#7299C2;fill-opacity:0.502;" points="1158.9,48.4,901.2,-125.3,638.3,-54.2"></polygon>
		<polygon class="bg_stick" style="fill:#99ACBC;fill-opacity:0.502;" points="-20.4,374.4,592.3,419.1,437.1,258.7"></polygon>
		<polygon class="bg_stick" style="fill:#8BA5BF;fill-opacity:0.502;" points="635.7,135.3,1001.2,151.1,924.9,272.2"></polygon>
		<polygon class="bg_stick" style="fill:#85A2BE;fill-opacity:0.502;" points="1118.3,98.4,627.8,111.6,1158,209"></polygon>
		<polygon class="bg_stick" style="fill:#9EADBB;fill-opacity:0.502;" points="1118.4,390.1,1031.6,487.5,855.4,479.6"></polygon>
		<polygon class="bg_stick" style="fill:#9CB5C7;fill-opacity:0.502;" points="1105.2,363.8,1068.4,461.2,1047.4,269.1"></polygon>
		<polygon class="bg_stick" style="fill:#99ADBD;fill-opacity:0.502;" points="942.2,395.3,1110.5,403.2,1063.2,284.8"></polygon>
		<polygon class="bg_stick" style="fill:#9BABB7;fill-opacity:0.502;" points="1084.2,437.5,1092.1,350.7,1031.6,427"></polygon>
		<polygon class="bg_stick" style="fill:#A6ADB2;fill-opacity:0.502;" points="1015.8,545.4,860.7,545.4,1034.2,495.4"></polygon>
		<polygon class="bg_stick" style="fill:#A8ACB1;fill-opacity:0.502;" points="1013.2,540.1,992.2,569,889.7,542.7"></polygon>
		<polygon class="bg_stick" style="fill:#ABABAB;fill-opacity:0.502;" points="989.6,579.6,934.4,671.7,892.3,637.5"></polygon>
		<polygon class="bg_stick" style="fill:#A7ACB0;fill-opacity:0.502;" points="1026.4,519,884.4,537.4,1000.1,558.5"></polygon>
		<polygon class="bg_stick" style="fill:#ABA9A9;fill-opacity:0.502;" points="884.4,616.4,923.8,690.1,960.6,605.9"></polygon>
		<polygon class="bg_stick" style="fill:#7D9EBD;fill-opacity:0.502;" points="1210.4,190.1,1123.6,192.7,1110.5,98"></polygon>
		<polygon class="bg_stick" style="fill:#85A4C1;fill-opacity:0.502;" points="958,69,958,226.9,1013.2,250.6"></polygon>
		<polygon class="bg_stick" style="fill:#B2A9AA;fill-opacity:0.502;" points="1192,248,1155.2,232.2,1171,245.4"></polygon>
		<polygon class="bg_stick" style="fill:#799DC0;fill-opacity:0.502;" points="866,100.6,1131.6,111.1,844.9,-57.3"></polygon>
		<polygon class="bg_stick" style="fill:#9AAAB5;fill-opacity:0.502;" points="1207.8,479.6,1178.9,361.2,1121.1,461.2"></polygon>
		<polygon class="bg_stick" style="fill:#A2ACB5;fill-opacity:0.502;" points="1126.3,419,1118.4,513.7,1063.2,532.1"></polygon>
		<polygon class="bg_stick" style="fill:#A49C9E;fill-opacity:0.502;" points="1107.9,745.4,942.2,732.2,887,821.7"></polygon>
		<polygon class="bg_stick" style="fill:#93A7B8;fill-opacity:0.502;" points="1210.4,340.1,1173.6,369,1176.2,419"></polygon>
		<polygon class="bg_stick" style="fill:#7B9FC1;fill-opacity:0.502;" points="695.1,-38.9,944.9,145.3,1013.3,74.2"></polygon>
		<polygon class="bg_stick" style="fill:#799DBE;fill-opacity:0.502;" points="1039.5,134.8,894.9,29.5,1144.7,84.8"></polygon>
		<polygon class="bg_stick" style="fill:#8DA8BF;fill-opacity:0.502;" points="902.8,292.7,1005.3,229.5,992.2,187.4"></polygon>
		<polygon class="bg_stick" style="fill:#94AABD;fill-opacity:0.502;" points="1071.1,287.4,1081.6,347.9,915.9,234.8"></polygon>
		<polygon class="bg_stick" style="fill:#98ABBB;fill-opacity:0.502;" points="1068.4,290.1,1094.7,398,902.8,292.7"></polygon>
		<polygon class="bg_stick" style="fill:#9FACB6;fill-opacity:0.502;" points="1149.9,426.9,1105.2,455.8,1084.2,519"></polygon>
		<polygon class="bg_stick" style="fill:#98A9B5;fill-opacity:0.502;" points="1157.8,392.7,1207.8,392.7,1134.2,440.1"></polygon>
		<polygon class="bg_stick" style="fill:#98AABA;fill-opacity:0.502;" points="1002.7,266.4,1097.4,345.4,1079,445.4"></polygon>
		<polygon class="bg_stick" style="fill:#7BA2C6;fill-opacity:0.502;" points="1079,116.4,1042.9,214.3,937,34.8"></polygon>
		<polygon class="bg_stick" style="fill:#819FBC;fill-opacity:0.502;" points="1139.4,158.5,1142,198,1115.7,155.9"></polygon>
		<polygon class="bg_stick" style="fill:#A3B5C3;fill-opacity:0.502;" points="1086.8,479.6,1147.3,429.6,1121,424.3"></polygon>
		<polygon class="bg_stick" style="fill:#97ABBA;fill-opacity:0.502;" points="1102.6,363.8,1084.2,427,1039.5,271.7"></polygon>
		<polygon class="bg_stick" style="fill:#96A9B6;fill-opacity:0.502;" points="1160.5,398,1199.9,432.2,1192,384.8"></polygon>
</g>
<g id="Stick">
	<polygon class="stick" style="fill:#360100;fill-opacity:0.502;" points="985.4,106.3,1121,171.6,1148.4,403.7"></polygon>
	<polygon class="stick" style="fill-opacity:0.502;" points="1157.8,379.6,1073.7,440.1,1034.3,555.9"></polygon>
	<polygon class="stick" style="fill:#C75E47;fill-opacity:0.502;" points="1079,161.1,1136.8,434.8,1199.9,287.4"></polygon>
	<polygon class="stick" style="fill:#37231F;fill-opacity:0.502;" points="986.9,203.2,1161.5,355.8,1071,124.2"></polygon>
	<polygon class="stick" style="fill-opacity:0.502;" points="908,821.7,847.5,821.7,965.8,634.8"></polygon>
	<polygon class="stick" style="fill-opacity:0.502;" points="921.2,705.9,986.9,658.5,1018.5,550.6"></polygon>
	<polygon class="stick" style="fill:#9D5652;fill-opacity:0.502;" points="1123.7,226.9,1092.1,340.1,1184.1,334.8"></polygon>
	<polygon class="stick" style="fill:#DF5714;fill-opacity:0.502;" points="1176.2,361.1,1139.4,342.7,1131.5,426.9"></polygon>
	<polygon class="stick" style="fill:#522700;fill-opacity:0.502;" points="1181.5,311.1,1155.2,321.6,1181.5,342.7"></polygon>
	<polygon class="stick" style="fill-opacity:0.502;" points="1134.2,408.5,1110.5,392.7,1063.2,487.4"></polygon>
	<polygon class="stick" style="fill:#F4AFA0;fill-opacity:0.502;" points="1192,366.4,1100,326.9,1142.1,313.7"></polygon>
	<polygon class="stick" style="fill:#3A1F66;fill-opacity:0.502;" points="1128.9,321.7,1102.6,355.9,1115.7,382.2"></polygon>
	<polygon class="stick" style="fill:#5F111A;fill-opacity:0.502;" points="1152.6,387.4,1165.7,371.6,1121,366.3"></polygon>
	<polygon class="stick" style="fill:#F7C1C3;fill-opacity:0.502;" points="1155.2,295.3,1149.9,250.6,1178.8,316.4"></polygon>
	<polygon class="stick" style="fill:#380302;fill-opacity:0.502;" points="1081.6,329.5,1113.2,353.2,1086.9,232.1"></polygon>
	<polygon class="stick" style="fill:#070B06;fill-opacity:0.502;" points="981.7,103.2,1005.4,245.3,1060.6,274.2"></polygon>
	<polygon class="stick" style="fill:#8F8475;fill-opacity:0.502;" points="1089.5,279.5,1015.9,155.8,1029,240"></polygon>
	<polygon class="stick" style="fill:#48576C;fill-opacity:0.502;" points="1023.7,216.4,1073.7,253.2,1039.5,129.5"></polygon>
	<polygon class="stick" style="fill:#FFBFA5;fill-opacity:0.502;" points="1144.7,361.1,1139.4,316.4,1126.3,358.5"></polygon>
	<polygon class="stick" style="fill:#FA9D6D;fill-opacity:0.502;" points="1147.3,408.5,1147.3,366.4,1128.9,398"></polygon>
	<polygon class="stick" style="fill:#591D17;fill-opacity:0.502;" points="1157.8,311.1,1118.4,305.8,1110.5,276.9"></polygon>
	<polygon class="stick" style="fill-opacity:0.502;" points="1036.9,513.8,1115.8,400.6,1094.8,469"></polygon>
	<polygon class="stick" style="fill:#AF361E;fill-opacity:0.502;" points="1089.5,311.1,1134.2,295.3,1102.6,326.9"></polygon>
	<polygon class="stick" style="fill:#E59677;fill-opacity:0.502;" points="1123.7,311.1,1105.3,340,1107.9,321.6"></polygon>
	<polygon class="stick" style="fill-opacity:0.502;" points="1015.8,540.1,1086.8,474.3,989.5,640.1"></polygon>
	<polygon class="stick" style="fill-opacity:0.502;" points="915.9,774.3,863.3,787.5,960.6,684.9"></polygon>
	<polygon class="stick" style="fill-opacity:0.502;" points="965.9,632.2,1026.4,576.9,942.2,719"></polygon>
	<polygon class="stick" style="fill:#0A0000;fill-opacity:0.502;" points="884.4,821.7,973.8,663.8,897.5,737.5"></polygon>
	<polygon class="stick" style="fill:#EEC3C8;fill-opacity:0.502;" points="1107.9,258.5,1097.4,192.7,1142.1,287.4"></polygon>
	<polygon class="stick" style="fill:#63523E;fill-opacity:0.502;" points="1134.2,205.9,1176.3,295.4,1173.7,250.7"></polygon>
	<polygon class="stick" style="fill:#FF9837;fill-opacity:0.502;" points="1178.9,255.9,1160.5,240.1,1184.2,284.8"></polygon>
	<polygon class="stick" style="fill:#724654;fill-opacity:0.502;" points="1163.1,303.2,1147.3,326.9,1128.9,242.7"></polygon>
	<polygon class="stick" style="fill:#2C272A;fill-opacity:0.502;" points="1060.5,129.5,1102.6,179.5,1026.3,155.8"></polygon>
	<polygon class="stick" style="fill:#1B2A35;fill-opacity:0.502;" points="1097.4,166.4,1118.4,229.6,1115.8,184.9"></polygon>
	<polygon class="stick" style="fill:#6B4656;fill-opacity:0.502;" points="1084.2,200.6,1121,263.8,1107.9,292.7"></polygon>
	<polygon class="stick" style="fill:#A37971;fill-opacity:0.502;" points="1097.4,150.6,1121,219,1123.6,163.7"></polygon>
	<polygon class="stick" style="fill:#200300;fill-opacity:0.502;" points="1050,140.1,1081.6,250.6,1081.6,187.4"></polygon>
	<polygon class="stick" style="fill:#394451;fill-opacity:0.502;" points="1026.4,221.6,987,103.2,1076.4,166.4"></polygon>
	<polygon class="stick" style="fill:#B9727E;fill-opacity:0.502;" points="1073.7,169,1102.6,234.8,1094.7,179.5"></polygon>
	<polygon class="stick" style="fill:#EDBBB0;fill-opacity:0.502;" points="1097.4,190.1,1084.3,184.8,1102.7,203.2"></polygon>
	<polygon class="stick" style="fill-opacity:0.502;" points="1092.1,240.1,1079,200.6,1076.4,224.3"></polygon>
	<polygon class="stick" style="fill:#706362;fill-opacity:0.502;" points="1071.1,232.2,1042.2,255.9,1018.5,176.9"></polygon>
	<polygon class="stick" style="fill:#5D5B64;fill-opacity:0.502;" points="1063.2,219,1023.8,126.9,1060.6,171.6"></polygon>
	<polygon class="stick" style="fill:#0D0200;fill-opacity:0.502;" points="1076.3,200.6,1060.5,163.8,1073.6,179.6"></polygon>
	<polygon class="stick" style="fill-opacity:0.502;" points="1026.4,253.2,1071.1,271.6,1084.2,297.9"></polygon>
	<polygon class="stick" style="fill:#E3BDBB;fill-opacity:0.502;" points="1142.1,290.1,1113.2,240.1,1123.7,282.2"></polygon>
	<polygon class="stick" style="fill:#814957;fill-opacity:0.502;" points="1121,324.3,1094.7,221.7,1126.3,277"></polygon>
	<polygon class="stick" style="fill:#BC968A;fill-opacity:0.502;" points="1065.8,124.3,1126.3,171.7,1084.2,163.8"></polygon>
	<polygon class="stick" style="fill:#D9B7B6;fill-opacity:0.502;" points="1165.7,287.4,1136.8,234.8,1160.5,258.5"></polygon>
	<polygon class="stick" style="fill:#44340B;fill-opacity:0.502;" points="1186.8,340.1,1186.8,326.9,1160.5,329.5"></polygon>
	<polygon class="stick" style="fill:#C29448;fill-opacity:0.502;" points="1171,324.3,1184.1,321.7,1181.5,334.9"></polygon>
	<polygon class="stick" style="fill:#37141B;fill-opacity:0.502;" points="1131.5,258.5,1110.5,208.5,1134.2,234.8"></polygon>
	<polygon class="stick" style="fill:#190A00;fill-opacity:0.502;" points="1079,290.1,1084.3,221.7,1110.6,300.7"></polygon>
	<polygon class="stick" style="fill:#D9881B;fill-opacity:0.502;" points="1042.1,250.6,1068.4,250.6,1097.3,282.2"></polygon>
	<polygon class="stick" style="fill:#AD6276;fill-opacity:0.502;" points="1147.3,261.1,1149.9,287.4,1168.3,311.1"></polygon>
	<polygon class="stick" style="fill:#E7A797;fill-opacity:0.502;" points="1128.9,308.5,1134.2,345.3,1184.2,350.6"></polygon>
	<polygon class="stick" style="fill:#5A4164;fill-opacity:0.502;" points="1094.7,298,1078.9,324.3,1123.6,284.8"></polygon>
	<polygon class="stick" style="fill:#42454D;fill-opacity:0.502;" points="1097.4,271.7,1121.1,287.5,1097.4,250.7"></polygon>
	<polygon class="stick" style="fill:#4C4A57;fill-opacity:0.502;" points="1071.1,266.4,1047.4,242.7,1089.5,266.4"></polygon>
	<polygon class="stick" style="fill:#050103;fill-opacity:0.502;" points="1081.6,237.4,1094.7,258.5,1086.8,221.7"></polygon>
	<polygon class="stick" style="fill:#FFC9C0;fill-opacity:0.502;" points="1149.9,240.1,1128.9,200.6,1134.2,226.9"></polygon>
	<polygon class="stick" style="fill:#9D5459;fill-opacity:0.502;" points="1136.8,240.1,1121,219,1131.5,258.5"></polygon>
	<polygon class="stick" style="fill-opacity:0.502;" points="1086.8,279.5,1099.9,300.6,1044.7,269"></polygon>
	<polygon class="stick" style="fill:#5B5559;fill-opacity:0.502;" points="1147.3,292.7,1136.8,269,1136.8,282.2"></polygon>
	<polygon class="stick" style="fill:#663746;fill-opacity:0.502;" points="1121,316.4,1121,337.5,1136.8,295.4"></polygon>
	<polygon class="stick" style="fill:#724A6D;fill-opacity:0.502;" points="1118.4,269,1126.3,287.4,1110.5,297.9"></polygon>
	<polygon class="stick" style="fill:#202630;fill-opacity:0.502;" points="1023.7,150.6,1042.1,163.8,1042.1,187.5"></polygon>
	<polygon class="stick" style="fill:#140000;fill-opacity:0.502;" points="1060.5,166.4,1063.1,148,1050,145.4"></polygon>
	<polygon class="stick" style="fill:#502810;fill-opacity:0.502;" points="1065.8,234.8,1065.8,179.5,1094.7,276.9"></polygon>
	<polygon class="stick" style="fill:#C5797D;fill-opacity:0.502;" points="1142.1,237.4,1123.7,203.2,1131.6,237.4"></polygon>
	<polygon class="stick" style="fill:#E7B8AC;fill-opacity:0.502;" points="1102.6,203.2,1123.6,250.6,1107.8,240.1"></polygon>
	<polygon class="stick" style="fill:#040000;fill-opacity:0.502;" points="1079,221.6,1071.1,179.5,1081.6,197.9"></polygon>
	<polygon class="stick" style="fill:#02060D;fill-opacity:0.502;" points="1018.5,158.5,979,113.7,1018.4,250.5"></polygon>
	<polygon class="stick" style="fill:#88554F;fill-opacity:0.502;" points="1065.8,124.3,1071.1,140.1,1042.2,145.4"></polygon>
	<polygon class="stick" style="fill:#536075;fill-opacity:0.502;" points="1002.7,111.1,1021.1,203.2,1031.6,134.8"></polygon>
	<polygon class="stick" style="fill:#5C5A64;fill-opacity:0.502;" points="1005.3,148,1071,237.5,1026.3,208.6"></polygon>
	<polygon class="stick" style="fill:#8C280C;fill-opacity:0.502;" points="1086.8,313.8,1139.4,305.9,1134.1,292.7"></polygon>
	<polygon class="stick" style="fill-opacity:0.502;" points="1005.3,190.1,1015.8,245.4,1044.7,271.7"></polygon>
	<polygon class="stick" style="fill:#362B25;fill-opacity:0.502;" points="1002.7,142.7,1005.3,190.1,1026.3,213.8"></polygon>
	<polygon class="stick" style="fill-opacity:0.502;" points="992.2,105.9,979,116.4,1002.7,148"></polygon>
	<polygon class="stick" style="fill:#000F31;fill-opacity:0.502;" points="1029,182.2,1044.8,190.1,1052.7,203.3"></polygon>
	<polygon class="stick" style="fill:#EB8000;fill-opacity:0.502;" points="1029,234.8,1034.3,248,1058,258.5"></polygon>
	<polygon class="stick" style="fill:#5E5E6A;fill-opacity:0.502;" points="1026.4,176.9,1039.5,242.7,1076.3,263.8"></polygon>
	<polygon class="stick" style="fill:#3C2C26;fill-opacity:0.502;" points="1013.2,224.3,1034.2,234.8,1013.2,182.2"></polygon>
	<polygon class="stick" style="fill:#241F20;fill-opacity:0.502;" points="1034.3,158.5,1023.8,145.3,1026.4,158.5"></polygon>
	<polygon class="stick" style="fill:#4B556B;fill-opacity:0.502;" points="1034.3,134.8,1052.7,153.2,1010.6,142.7"></polygon>
	<polygon class="stick" style="fill:#90434A;fill-opacity:0.502;" points="1128.9,240.1,1131.5,224.3,1113.1,200.6"></polygon>
	<polygon class="stick" style="fill:#935866;fill-opacity:0.502;" points="1142.1,329.5,1163.1,313.7,1144.7,263.7"></polygon>
	<polygon class="stick" style="fill:#492E2E;fill-opacity:0.502;" points="1073.7,169,1121,176.9,1097.3,161.1"></polygon>
	<polygon class="stick" style="fill:#E5B6AE;fill-opacity:0.502;" points="1147.3,240.1,1134.2,229.6,1152.6,261.2"></polygon>
	<polygon class="stick" style="fill:#DCBFB8;fill-opacity:0.502;" points="1115.8,234.8,1121.1,258.5,1131.6,263.8"></polygon>
	<polygon class="stick" style="fill:#61494C;fill-opacity:0.502;" points="1142.1,284.8,1139.5,258.5,1121.1,242.7"></polygon>
	<polygon class="stick" style="fill:#9B5153;fill-opacity:0.502;" points="1163.1,303.2,1131.5,240,1139.4,279.5"></polygon>
	<polygon class="stick" style="fill:#AB5823;fill-opacity:0.502;" points="1181.5,332.2,1157.8,319,1176.2,313.7"></polygon>
	<polygon class="stick" style="fill:#AC5F69;fill-opacity:0.502;" points="1147.3,263.8,1136.8,263.8,1136.8,234.9"></polygon>
	<polygon class="stick" style="fill:#242210;fill-opacity:0.502;" points="1110.5,187.4,1118.4,192.7,1113.1,174.3"></polygon>
	<polygon class="stick" style="fill:#8E4F5D;fill-opacity:0.502;" points="1113.1,245.3,1089.4,190,1089.4,219"></polygon>
	<polygon class="stick" style="fill:#4D2D25;fill-opacity:0.502;" points="1068.4,190.1,1071,219,1057.9,184.8"></polygon>
	<polygon class="stick" style="fill:#00020F;fill-opacity:0.502;" points="1005.3,161.1,994.8,176.9,979,116.4"></polygon>
	<polygon class="stick" style="fill:#060B16;fill-opacity:0.502;" points="1013.2,240.1,997.4,171.7,1015.8,192.8"></polygon>
	<polygon class="stick" style="fill:#545661;fill-opacity:0.502;" points="1026.4,203.2,1036.9,161.1,1015.9,171.6"></polygon>
	<polygon class="stick" style="fill:#5B5961;fill-opacity:0.502;" points="1031.6,237.4,1063.2,245.3,1065.8,232.1"></polygon>
	<polygon class="stick" style="fill:#555867;fill-opacity:0.502;" points="1039.5,237.4,1029,219,1060.6,226.9"></polygon>
	<polygon class="stick" style="fill:#2B1E16;fill-opacity:0.502;" points="1008,153.2,994.9,113.7,994.9,140"></polygon>
	<polygon class="stick" style="fill:#374E6D;fill-opacity:0.502;" points="1021.1,140.1,994.8,108.5,1047.4,145.3"></polygon>
	<polygon class="stick" style="fill:#585760;fill-opacity:0.502;" points="1042.1,169,1057.9,166.4,1060.5,208.5"></polygon>
	<polygon class="stick" style="fill-opacity:0.502;" points="1026.4,258.5,1058,276.9,1010.7,221.6"></polygon>
	<polygon class="stick" style="fill:#545764;fill-opacity:0.502;" points="1060.5,213.8,1031.6,227,1026.3,200.7"></polygon>
	<polygon class="stick" style="fill:#050E18;fill-opacity:0.502;" points="1010.6,200.6,994.8,184.8,1002.7,169"></polygon>
	<polygon class="stick" style="fill:#222A38;fill-opacity:0.502;" points="1031.6,155.9,1039.5,169.1,1036.9,184.9"></polygon>
	<polygon class="stick" style="fill:#1F2024;fill-opacity:0.502;" points="1010.6,195.3,1018.5,229.5,1021.1,211.1"></polygon>
	<polygon class="stick" style="fill:#450D21;fill-opacity:0.502;" points="1079,326.9,1079,308.5,1110.6,340.1"></polygon>
	<polygon class="stick" style="fill:#E26841;fill-opacity:0.502;" points="1121,298,1128.9,303.3,1134.2,298"></polygon>
	<polygon class="stick" style="fill:#37432D;fill-opacity:0.502;" points="1131.5,305.9,1147.3,298,1149.9,308.5"></polygon>
	<polygon class="stick" style="fill:#D7C1BB;fill-opacity:0.502;" points="1173.6,300.6,1168.3,292.7,1173.6,311.1"></polygon>
	<polygon class="stick" style="fill:#44326C;fill-opacity:0.502;" points="1134.2,390.1,1105.3,379.6,1126.3,340.1"></polygon>
	<polygon class="stick" style="fill:#AB607A;fill-opacity:0.502;" points="1121,382.2,1102.6,382.2,1131.5,405.9"></polygon>
	<polygon class="stick" style="fill:#5A557C;fill-opacity:0.502;" points="1089.5,313.8,1110.5,298,1071.1,305.9"></polygon>
	<polygon class="stick" style="fill:#391F47;fill-opacity:0.502;" points="1094.7,342.7,1136.8,369,1126.3,384.8"></polygon>
	<polygon class="stick" style="fill:#FFB38D;fill-opacity:0.502;" points="1115.8,319,1115.8,332.2,1105.3,334.8"></polygon>
	<polygon class="stick" style="fill:#5B3C61;fill-opacity:0.502;" points="1128.9,340.1,1094.7,340.1,1115.7,374.3"></polygon>
	<polygon class="stick" style="fill-opacity:0.502;" points="1126.3,411.1,1110.5,397.9,1089.5,469"></polygon>
	<polygon class="stick" style="fill:#75496B;fill-opacity:0.502;" points="1147.3,382.2,1100,390.1,1105.3,376.9"></polygon>
	<polygon class="stick" style="fill:#E48F71;fill-opacity:0.502;" points="1173.6,363.8,1128.9,337.5,1176.2,340.1"></polygon>
	<polygon class="stick" style="fill:#6B686C;fill-opacity:0.502;" points="1142.1,287.4,1150,300.6,1147.4,308.5"></polygon>
	<polygon class="stick" style="fill:#D1A2AB;fill-opacity:0.502;" points="1176.2,353.2,1136.8,324.3,1171,337.5"></polygon>
	<polygon class="stick" style="fill:#E48C52;fill-opacity:0.502;" points="1136.8,421.7,1136.8,379.6,1152.6,395.4"></polygon>
	<polygon class="stick" style="fill:#E9A180;fill-opacity:0.502;" points="1134.2,403.2,1157.9,390,1147.4,408.4"></polygon>
	<polygon class="stick" style="fill:#4A5B5D;fill-opacity:0.502;" points="1181.5,313.8,1173.6,295.4,1176.2,277"></polygon>
	<polygon class="stick" style="fill:#953C08;fill-opacity:0.502;" points="1149.9,326.9,1152.5,321.6,1168.3,324.2"></polygon>
	<polygon class="stick" style="fill:#F2C6B2;fill-opacity:0.502;" points="1147.3,342.7,1139.4,313.8,1128.9,311.2"></polygon>
	<polygon class="stick" style="fill:#E2B8B1;fill-opacity:0.502;" points="1155.2,276.9,1171,290.1,1152.6,258.5"></polygon>
	<polygon class="stick" style="fill:#58575F;fill-opacity:0.502;" points="1110.5,274.3,1102.6,269,1100,255.8"></polygon>
	<polygon class="stick" style="fill:#FFE2C3;fill-opacity:0.502;" points="1134.2,358.5,1139.5,361.1,1142.1,366.4"></polygon>
	<polygon class="stick" style="fill:#E69F9A;fill-opacity:0.502;" points="1110.5,326.9,1118.4,340.1,1110.5,337.5"></polygon>
	<polygon class="stick" style="fill:#001937;fill-opacity:0.502;" points="1036.9,184.8,1044.8,192.7,1044.8,200.6"></polygon>
	<polygon class="stick" style="fill:#4B5264;fill-opacity:0.502;" points="1057.9,184.8,1044.8,145.3,1013.2,121.6"></polygon>
	<polygon class="stick" style="fill:#5E5962;fill-opacity:0.502;" points="1036.9,190.1,1010.6,150.6,1026.4,158.5"></polygon>
	<polygon class="stick" style="fill:#67524D;fill-opacity:0.502;" points="1073.7,255.9,1063.2,240.1,1065.8,216.4"></polygon>
	<polygon class="stick" style="fill:#331704;fill-opacity:0.502;" points="1063.2,145.3,1055.3,166.4,1047.4,142.7"></polygon>
	<polygon class="stick" style="fill:#4D5262;fill-opacity:0.502;" points="1010.6,153.2,1031.6,142.7,1007.9,121.6"></polygon>
	<polygon class="stick" style="fill:#0F1A26;fill-opacity:0.502;" points="989.6,179.5,1000.1,176.9,1000.1,166.4"></polygon>
	<polygon class="stick" style="fill:#4D3025;fill-opacity:0.502;" points="1079,242.7,1068.5,208.5,1065.9,229.6"></polygon>
	<polygon class="stick" style="fill:#555155;fill-opacity:0.502;" points="1036.9,171.6,1047.4,163.7,1055.3,192.6"></polygon>
	<polygon class="stick" style="fill:#57311E;fill-opacity:0.502;" points="1089.5,274.3,1073.7,258.5,1071.1,237.4"></polygon>
	<polygon class="stick" style="fill:#293544;fill-opacity:0.502;" points="1100,253.2,1089.5,232.1,1092.1,247.9"></polygon>
	<polygon class="stick" style="fill:#D19997;fill-opacity:0.502;" points="1113.1,226.9,1123.6,269,1110.5,245.3"></polygon>
	<polygon class="stick" style="fill:#431100;fill-opacity:0.502;" points="1134.2,305.9,1144.7,313.8,1134.2,298"></polygon>
	<polygon class="stick" style="fill:#3D1F37;fill-opacity:0.502;" points="1131.5,379.6,1139.4,371.7,1110.5,348"></polygon>
	<polygon class="stick" style="fill:#050000;fill-opacity:0.502;" points="1055.3,487.5,1100,437.5,1068.4,505.9"></polygon>
	<polygon class="stick" style="fill:#100000;fill-opacity:0.502;" points="1092.1,466.4,1100,424.3,1123.7,413.8"></polygon>
	<polygon class="stick" style="fill-opacity:0.502;" points="963.3,690.1,958,648,1002.7,590.1"></polygon>
	<polygon class="stick" style="fill:#A96C2A;fill-opacity:0.502;" points="958,679.6,952.7,674.3,968.5,679.6"></polygon>
	<polygon class="stick" style="fill:#140100;fill-opacity:0.502;" points="968.5,676.9,929.1,700.6,913.3,771.7"></polygon>
	<polygon class="stick" style="fill-opacity:0.502;" points="863.3,800.6,894.9,761.1,894.9,795.3"></polygon>
	<polygon class="stick" style="fill:#000A10;fill-opacity:0.502;" points="902.8,729.6,942.2,687.5,921.2,732.2"></polygon>
	<polygon class="stick" style="fill:#3C1900;fill-opacity:0.502;" points="918.6,745.4,934.4,716.5,929.1,745.4"></polygon>
	<polygon class="stick" style="fill:#030000;fill-opacity:0.502;" points="871.2,805.9,913.3,813.8,908,734.8"></polygon>
	<polygon class="stick" style="fill:#120300;fill-opacity:0.502;" points="931.7,742.7,889.6,784.8,910.6,742.7"></polygon>
	<polygon class="stick" style="fill-opacity:0.502;" points="897.5,750.6,908,748,892.2,774.3"></polygon>
	<polygon class="stick" style="fill:#0B1216;fill-opacity:0.502;" points="894.9,821.7,894.9,742.7,871.2,813.8"></polygon>
	<polygon class="stick" style="fill-opacity:0.502;" points="866,821.7,905.4,821.7,892.3,761.2"></polygon>
	<polygon class="stick" style="fill:#344048;fill-opacity:0.502;" points="902.8,821.7,855.5,805.9,873.9,777"></polygon>
	<polygon class="stick" style="fill:#140100;fill-opacity:0.502;" points="904.3,790.1,864.9,813.8,849.1,884.9"></polygon>
	<polygon class="stick" style="fill:#000A10;fill-opacity:0.502;" points="722,1000.8,852.1,861.9,782.7,1009.5"></polygon>
	<polygon class="stick" style="fill:#120300;fill-opacity:0.502;" points="932.3,776.8,787,922.2,859.7,776.8"></polygon>
	<polygon class="stick" style="fill:#000A10;fill-opacity:0.502;" points="806.8,899.1,846.2,857,825.2,901.7"></polygon>
	<polygon class="stick" style="fill-opacity:0.502;" points="813.4,944.8,808.1,902.7,852.8,844.8"></polygon>
	<polygon class="stick" style="fill:none;stroke:#FFFFFF;stroke-width:3;stroke-linecap:round;stroke-miterlimit:10;" points="44,100.7"></polygon>
</g>
</svg>
