<?xml version="1.0" encoding="utf-8"?>
<!-- Generator: Adobe Illustrator 22.1.0, SVG Export Plug-In . SVG Version: 6.00 Build 0)  -->
<svg version="1.1" id="beeld" xmlns="http://www.w3.org/2000/svg" xmlns:xlink="http://www.w3.org/1999/xlink" x="0px" y="0px"
	 viewBox="0 0 3725.1 4497.6" style="enable-background:new 0 0 3725.1 4497.6;" xml:space="preserve">
<g id="background_1_">
	<path style="fill:#313131;fill-opacity:0.502;" d="M3651.1,0l-40,3010.4L0,4497.6L3651.1,0z"/>
	<path style="fill:#99938F;fill-opacity:0.502;" d="M2962,3715.5l389,246.2l148.7-463.8L2962,3715.5z"/>
	<path style="fill-opacity:0.502;" d="M2841.9,3875.9L2390,4047.6l137.3-692.8L2841.9,3875.9z"/>
	<path style="fill-opacity:0.502;" d="M3564.4,4414.5l56.5-2141.3L2052.5,4465.6L3564.4,4414.5z"/>
	<path style="fill:#565455;fill-opacity:0.502;" d="M3623.8,985L2487.2,2066.5l160.2-629.8L3623.8,985z"/>
	<path style="fill-opacity:0.502;" d="M576.6,4465.6l909.5-921.8l188.8,876L576.6,4465.6z"/>
	<path style="fill:#40322A;fill-opacity:0.502;" d="M2372.8,2742.2l509.1-618.4l228.8,2341.8L2372.8,2742.2z"/>
	<path style="fill:#47372B;fill-opacity:0.502;" d="M1343.2,3125.8l463.3-996.3l211.7,223.3L1343.2,3125.8z"/>
	<path style="fill:#877B71;fill-opacity:0.502;" d="M3648.5,3830.1l-635-675.6l-572,961.9L3648.5,3830.1z"/>
	<path style="fill:#BCABA8;fill-opacity:0.502;" d="M2355.7,2324.2l-326.1-200.4l137.3-475.2L2355.7,2324.2z"/>
	<path style="fill:#DDDAC9;fill-opacity:0.502;" d="M1245.9,2851l-17.2,578.3l263.1,74.4L1245.9,2851z"/>
	<path style="fill-opacity:0.502;" d="M1022.8,3423.5l217.4-589.8l-103,1219.6L1022.8,3423.5z"/>
	<path style="fill:#938D7E;fill-opacity:0.502;" d="M1343.2,3268.9l194.5,320.6l-451.9-28.6L1343.2,3268.9z"/>
	<path style="fill-opacity:0.502;" d="M1652.1,4465.6l-143-870.3l-406.1,91.6L1652.1,4465.6z"/>
	<path style="fill-opacity:0.502;" d="M1531.9,3646.8l-51.5,818.8l-188.8-813.1L1531.9,3646.8z"/>
	<path style="fill:#CBBAAC;fill-opacity:0.502;" d="M2344.2,3910.2l22.9-263.4l-909.5,292L2344.2,3910.2z"/>
	<path style="fill:#0D0A0A;fill-opacity:0.502;" d="M2561.6,2003.5l-103,1099.3l497.7-257.7L2561.6,2003.5z"/>
	<path style="fill:#D0CACE;fill-opacity:0.502;" d="M3640.4,2052.6L3492.1,865.1l-508.5,1484.4L3640.4,2052.6z"/>
	<path style="fill:#565D5F;fill-opacity:0.502;" d="M2877.7,2582.8l275.4-106l-423.7-996.7L2877.7,2582.8z"/>
	<path style="fill:#EDAF84;fill-opacity:0.502;" d="M3343.8,3431L3704,1967.8l-593.2,1060.3L3343.8,3431z"/>
	<path style="fill-opacity:0.502;" d="M2681.7,3996.1l194.5,412.3l-1184.1,40.1L2681.7,3996.1z"/>
	<path style="fill-opacity:0.502;" d="M473.7,4465.6l1207-114.5L1469,3858.7L473.7,4465.6z"/>
	<path style="fill-opacity:0.502;" d="M1451.9,4465.6l137.3-486.7l74.4,440.9L1451.9,4465.6z"/>
	<path style="fill:#342E2B;fill-opacity:0.502;" d="M1366.1,4024.7l-337.5-148.9l451.9,383.6L1366.1,4024.7z"/>
	<path style="fill:#040204;fill-opacity:0.502;" d="M1537.7,4104.9l-223.1,177.5l194.5-858.9L1537.7,4104.9z"/>
	<path style="fill-opacity:0.502;" d="M1589.2,4288.1l-154.4-131.7l177.3-183.2L1589.2,4288.1z"/>
	<path style="fill-opacity:0.502;" d="M2144,4465.6l-228.8-200.4l926.7-45.8L2144,4465.6z"/>
	<path style="fill:#171416;fill-opacity:0.502;" d="M1354.6,3978.9l183.1,355l-200.2,131.7L1354.6,3978.9z"/>
	<path style="fill:#767871;fill-opacity:0.502;" d="M2332.8,4053.4l554.9-137.4l297.5,355L2332.8,4053.4z"/>
	<path style="fill:#B0A88F;fill-opacity:0.502;" d="M1102.9,3658.3l125.8-22.9l-80.1-137.4L1102.9,3658.3z"/>
	<path style="fill-opacity:0.502;" d="M1526.2,3034.2l-28.6,314.9l-40-137.4L1526.2,3034.2z"/>
	<path style="fill:#121213;fill-opacity:0.502;" d="M1520.5,4362.6l-474.8-183.2v-458.1L1520.5,4362.6z"/>
	<path style="fill-opacity:0.502;" d="M1257.4,4059.1l-34.3,332.1l148.7,74.4L1257.4,4059.1z"/>
	<path style="fill:#0E0D0E;fill-opacity:0.502;" d="M1543.4,4282.4l-114.4-126l-223.1,292L1543.4,4282.4z"/>
	<path style="fill:#2D2927;fill-opacity:0.502;" d="M1451.9,4099.2l-320.3-97.3l246,188.9L1451.9,4099.2z"/>
	<path style="fill:#000003;fill-opacity:0.502;" d="M1280.3,3698.4l34.3,292l217.4-240.5L1280.3,3698.4z"/>
	<path style="fill-opacity:0.502;" d="M1320.3,3824.3l297.5,320.6l-45.8-166L1320.3,3824.3z"/>
	<path style="fill:#000001;fill-opacity:0.502;" d="M1594.9,3990.4l22.9,188.9l-268.9-343.5L1594.9,3990.4z"/>
	<path style="fill-opacity:0.502;" d="M834.1,4339.6l217.4-297.7l103,423.7L834.1,4339.6z"/>
	<path style="fill:#908A80;fill-opacity:0.502;" d="M1457.6,3595.3L1183,3400.6l297.5-40.1L1457.6,3595.3z"/>
	<path style="fill:#8D9BA4;fill-opacity:0.502;" d="M1491.9,3005.6l-74.4-160.3l91.5,11.5L1491.9,3005.6z"/>
	<path style="fill:#000003;fill-opacity:0.502;" d="M1371.8,3646.8l160.2,223.3l-11.4-240.5L1371.8,3646.8z"/>
	<path style="fill:#010103;fill-opacity:0.502;" d="M1480.5,4208l-171.6-566.8l228.8,137.4L1480.5,4208z"/>
	<path style="fill-opacity:0.502;" d="M1606.3,4093.4l-308.9-206.1l331.8,481L1606.3,4093.4z"/>
	<path style="fill:#9CA3AA;fill-opacity:0.502;" d="M3514.1,3037l-280.3-916.1L3045,3197.4L3514.1,3037z"/>
	<path style="fill:#0B090B;fill-opacity:0.502;" d="M2395.7,3068.5l509.1-22.9l-74.4-429.4L2395.7,3068.5z"/>
	<path style="fill:#020206;fill-opacity:0.502;" d="M2447.2,2925.4l-68.6-183.2l308.9-166L2447.2,2925.4z"/>
	<path style="fill:#0D0A0B;fill-opacity:0.502;" d="M2498.7,2913.9l154.4,5.7l28.6-91.6L2498.7,2913.9z"/>
	<path style="fill:#292627;fill-opacity:0.502;" d="M2578.8,2885.3l154.4,74.4l-234.5,131.7L2578.8,2885.3z"/>
	<path style="fill:#0B070A;fill-opacity:0.502;" d="M2452.9,3343.4l22.9,177.5l280.3,28.6L2452.9,3343.4z"/>
	<path style="fill:#1A0E09;fill-opacity:0.502;" d="M2721.8,3274.7l469.1,57.3l-137.3-378L2721.8,3274.7z"/>
	<path style="fill:#393B3B;fill-opacity:0.502;" d="M2412.9,3950.3l280.3-154.6l-320.3-28.6L2412.9,3950.3z"/>
	<path style="fill:#413A35;fill-opacity:0.502;" d="M3598,4024.7V3325l127.1,254.5"/>
	<path style="fill-opacity:0.502;" d="M2533,2066.5l200.2,5.7l-343.2,85.9L2533,2066.5z"/>
	<path style="fill:#D9DADB;fill-opacity:0.502;" d="M2189.8,1929.1l246-40.1l-263.1,131.7L2189.8,1929.1z"/>
	<path style="fill:#52585D;fill-opacity:0.502;" d="M1497.6,2885.3l-91.5,108.8l194.5,240.5L1497.6,2885.3z"/>
	<path style="fill:#121212;fill-opacity:0.502;" d="M1554.8,4465.6l-45.8-246.2l-211.7,131.7L1554.8,4465.6z"/>
	<path style="fill:#131313;fill-opacity:0.502;" d="M1572,4425.5l-74.4-108.8l-154.4,85.9L1572,4425.5z"/>
	<path style="fill:#131112;fill-opacity:0.502;" d="M1531.9,4437l-137.3-223.3l125.8,22.9L1531.9,4437z"/>
	<path style="fill:#7F6D60;fill-opacity:0.502;" d="M2498.7,2954l80.1-240.5l97.2,22.9L2498.7,2954z"/>
	<path style="fill:#000005;fill-opacity:0.502;" d="M2538.7,2788l131.6,114.5l-74.4,5.7L2538.7,2788z"/>
	<path style="fill:#090A0A;fill-opacity:0.502;" d="M2378.6,2770.8l28.6,97.3l251.7-120.2L2378.6,2770.8z"/>
	<path style="fill-opacity:0.502;" d="M2738.9,2730.7l223.1,406.5l-120.1,17.2L2738.9,2730.7z"/>
	<path style="fill-opacity:0.502;" d="M2647.4,2885.3l-62.9-63l-28.6,22.9L2647.4,2885.3z"/>
	<path style="fill:#020000;fill-opacity:0.502;" d="M2710.3,2925.4l-28.6,103.1l234.5-51.5L2710.3,2925.4z"/>
	<path style="fill:#A6A2A2;fill-opacity:0.502;" d="M3333.9,2309.9l-360.4-206.1l11.4,509.6L3333.9,2309.9z"/>
	<path style="fill:#140000;fill-opacity:0.502;" d="M1618,1892.5l469.1,1139.4l280.3-635.6L1618,1892.5z"/>
	<path style="fill:#987C63;fill-opacity:0.502;" d="M1909.8,2236l-85.8-114.5l-228.8,486.7L1909.8,2236z"/>
	<path style="fill-opacity:0.502;" d="M2081.4,2991.8l-85.8-246.2l400.4-114.5L2081.4,2991.8z"/>
	<path style="fill:#1A1109;fill-opacity:0.502;" d="M2407.5,2419.3l-434.7-137.4L1801.2,2677L2407.5,2419.3z"/>
	<path style="fill:#22150D;fill-opacity:0.502;" d="M1686.7,2619.7l715-183.2l-675-17.2L1686.7,2619.7z"/>
	<path style="fill:#3F1400;fill-opacity:0.502;" d="M2504.7,1944l-97.2,377.9l-45.8-194.7L2504.7,1944z"/>
	<path style="fill:#000002;fill-opacity:0.502;" d="M2161.5,2550.9l62.9,51.5l194.5-194.7L2161.5,2550.9z"/>
	<path style="fill:#261C18;fill-opacity:0.502;" d="M1892.6,2579.6l537.7-177.5l-360.4-28.6L1892.6,2579.6z"/>
	<path style="fill:#9B7858;fill-opacity:0.502;" d="M1663.8,2413.5l28.6,154.6l-91.5,188.9L1663.8,2413.5z"/>
	<path style="fill:#9B7E6F;fill-opacity:0.502;" d="M2544.7,3427l85.8-51.5l-303.2-229L2544.7,3427z"/>
	<path style="fill:#B49EA5;fill-opacity:0.502;" d="M1669.5,4177.1l217.4,103.1l-148.7,45.8L1669.5,4177.1z"/>
	<path style="fill:#0B0106;fill-opacity:0.502;" d="M1698.1,4274.4l103,68.7h-125.8L1698.1,4274.4z"/>
	<path style="fill:#8C7A80;fill-opacity:0.502;" d="M1869.7,4457.6l-11.4-229l-103-34.4L1869.7,4457.6z"/>
	<path style="fill:#402E2E;fill-opacity:0.502;" d="M1835.4,3942.3l45.8,515.3l125.8-68.7L1835.4,3942.3z"/>
	<path style="fill:#77696E;fill-opacity:0.502;" d="M1595.2,4457.6H1824l120.1-131.7L1595.2,4457.6z"/>
	<path style="fill:#5E4F44;fill-opacity:0.502;" d="M2321.7,4274.4l291.7-543.9l-406.1,292L2321.7,4274.4z"/>
	<path style="fill:#6C5645;fill-opacity:0.502;" d="M2190.1,4228.6l228.8-292l45.8,217.6L2190.1,4228.6z"/>
	<path style="fill:#443630;fill-opacity:0.502;" d="M2235.8,4245.8l11.4,126l-177.3,40.1L2235.8,4245.8z"/>
	<path style="fill:#5C4F50;fill-opacity:0.502;" d="M1824,4096.9l-200.2,45.8l194.5,131.7L1824,4096.9z"/>
	<path style="fill:#5E5C64;fill-opacity:0.502;" d="M1635.2,4257.2l51.5,148.9l97.2,51.5L1635.2,4257.2z"/>
	<path style="fill:#101B21;fill-opacity:0.502;" d="M1623.8,4165.6l-5.7,240.5l51.5-63L1623.8,4165.6z"/>
	<path style="fill:#211518;fill-opacity:0.502;" d="M1812.5,4343.1l-120.1,114.5h217.4L1812.5,4343.1z"/>
	<path style="fill:#584E45;fill-opacity:0.502;" d="M2024.2,2213.1l194.5,177.5l-103-314.9L2024.2,2213.1z"/>
	<path style="fill-opacity:0.502;" d="M2356,2768.5l103,137.4l183.1-355L2356,2768.5z"/>
	<path style="fill-opacity:0.502;" d="M2499,2625.4l40,229l-177.3-5.7L2499,2625.4z"/>
	<path style="fill:#C9BBB3;fill-opacity:0.502;" d="M2544.7,3089.2l-85.8,171.8l-34.3-183.2L2544.7,3089.2z"/>
	<path style="fill:#363133;fill-opacity:0.502;" d="M2304.5,2717l91.5-246.2l17.2,372.2L2304.5,2717z"/>
	<path style="fill:#947F79;fill-opacity:0.502;" d="M2413.2,3564.4v-223.3l148.7,263.4L2413.2,3564.4z"/>
	<path style="fill:#010511;fill-opacity:0.502;" d="M1492.2,2837.2l85.8,40.1v-217.6L1492.2,2837.2z"/>
	<path style="fill:#5E4227;fill-opacity:0.502;" d="M1543.7,2579.6l120.1,97.3l-103,28.6L1543.7,2579.6z"/>
	<path style="fill-opacity:0.502;" d="M1566.6,4262.9l-74.4,188.9l154.4-51.5L1566.6,4262.9z"/>
	<path style="fill-opacity:0.502;" d="M1566.6,4297.3L1538,4366l183.1,91.6L1566.6,4297.3z"/>
	<path style="fill:#000003;fill-opacity:0.502;" d="M2527.6,2860.1l-188.8-17.2l251.7-194.7L2527.6,2860.1z"/>
	<path style="fill:#151316;fill-opacity:0.502;" d="M2384.6,2837.2l103-91.6l11.4-183.2L2384.6,2837.2z"/>
	<path style="fill:#010105;fill-opacity:0.502;" d="M2567.6,2688.4l-171.6,97.3l131.6,74.4L2567.6,2688.4z"/>
	<path style="fill:#9F9988;fill-opacity:0.502;" d="M2493.3,2613.9l34.3,5.7l-5.7-103.1L2493.3,2613.9z"/>
	<path style="fill:#504C4A;fill-opacity:0.502;" d="M2350.3,2562.4l51.5,131.7l-40,160.3L2350.3,2562.4z"/>
	<path style="fill:#0A090D;fill-opacity:0.502;" d="M2504.7,2694.1L2396,2825.8l68.6-171.8L2504.7,2694.1z"/>
	<path style="fill:#050509;fill-opacity:0.502;" d="M2556.2,2802.9v-80.2l-80.1,166L2556.2,2802.9z"/>
	<path style="fill:#DCC1AC;fill-opacity:0.502;" d="M2270.2,2379.2l-51.5-206.1l108.7-5.7L2270.2,2379.2z"/>
	<path style="fill:#524336;fill-opacity:0.502;" d="M2035.6,2133l28.6-126l-165.9,131.7L2035.6,2133z"/>
</g>
<g id="screen_x5F_light_1_">
	
		<linearGradient id="SVGID_1_" gradientUnits="userSpaceOnUse" x1="3532.7451" y1="2016.1798" x2="3741.3491" y2="2433.3879" gradientTransform="matrix(0.7809 -0.6246 -0.6246 -0.7809 865.8124 6774.6748)">
		<stop  offset="0" style="stop-color:#FFD26F"/>
		<stop  offset="1" style="stop-color:#FFD26F;stop-opacity:0"/>
	</linearGradient>
	<polyline style="fill:url(#SVGID_1_);" points="2294.3,2997.1 1851.1,2525.3 2635.1,2321.7 2559.1,2899.8 2294.3,2997.1 	"/>
</g>
<g id="person_1_">
	<path style="fill:#FFCC9F;fill-opacity:0.502;" d="M2038.3,2738.4l22.9-188.9l120.1,17.2L2038.3,2738.4z"/>
	<path style="fill:#100200;fill-opacity:0.502;" d="M2198.5,2360.5l-331.8,395.1l-143-292L2198.5,2360.5z"/>
	<path style="fill:#DFD9D1;fill-opacity:0.502;" d="M2049.7,2807.2l-532,578.3l183.1-675.6L2049.7,2807.2z"/>
	<path style="fill:#D6B9A5;fill-opacity:0.502;" d="M2164.1,2915.9L2473,4227.1l-617.8-314.9L2164.1,2915.9z"/>
	<path style="fill:#F5FAF4;fill-opacity:0.502;" d="M1941,2841.5l286,377.9l-411.9,103.1L1941,2841.5z"/>
	<path style="fill:#6E5446;fill-opacity:0.502;" d="M2055.4,2938.8l-234.5,188.9l-22.9-120.2L2055.4,2938.8z"/>
	<path style="fill:#C9C4C2;fill-opacity:0.502;" d="M2129.8,3339.6l-520.6-429.4l-80.1,234.8L2129.8,3339.6z"/>
	<path style="fill:#EEECE8;fill-opacity:0.502;" d="M2135.5,3328.2l-97.2-297.7l-200.2,120.2L2135.5,3328.2z"/>
	<path style="fill:#390D1C;fill-opacity:0.502;" d="M1901,3740.4l45.8-423.7h-177.3L1901,3740.4z"/>
	<path style="fill:#BFBAB2;fill-opacity:0.502;" d="M1981.1,3202.2l165.9,143.1l-446.2-22.9L1981.1,3202.2z"/>
	<path style="fill:#67352E;fill-opacity:0.502;" d="M1815.2,2967.5l62.9,63l-62.9,126V2967.5z"/>
	<path style="fill:#E6E9E4;fill-opacity:0.502;" d="M1649.3,3030.5L2004,2916l-177.3-177.5L1649.3,3030.5z"/>
	<path style="fill:#D3A987;fill-opacity:0.502;" d="M1689.3,2383.4l177.3-126l-22.9-63L1689.3,2383.4z"/>
	<path style="fill:#684425;fill-opacity:0.502;" d="M1912.4,2526.6l22.9,320.6l188.8-40.1L1912.4,2526.6z"/>
	<path style="fill:#B1B0A9;fill-opacity:0.502;" d="M1906.7,2812.9l143-22.9l-171.6,440.9L1906.7,2812.9z"/>
	<path style="fill:#DCA786;fill-opacity:0.502;" d="M2307.1,2715.5l-228.8,750.1l337.5-395.1L2307.1,2715.5z"/>
	<path style="fill:#482813;fill-opacity:0.502;" d="M2112.7,2480.8l-143,332.1l-165.9-108.8L2112.7,2480.8z"/>
	<path style="fill:#605244;fill-opacity:0.502;" d="M2290,2435l-366.1-303.5l257.4,80.2L2290,2435z"/>
	<path style="fill-opacity:0.502;" d="M2318.6,2698.4l-188.8-80.2l-40,383.6L2318.6,2698.4z"/>
	<path style="fill:#F1C2A8;fill-opacity:0.502;" d="M2221.3,3116.3l108.7-154.6l228.8-45.8L2221.3,3116.3z"/>
	<path style="fill:#110E0D;fill-opacity:0.502;" d="M2381.5,2440.7l-154.4,206.1l-251.7-389.4L2381.5,2440.7z"/>
	<path style="fill:#D6A17E;fill-opacity:0.502;" d="M1820.9,2560.9l-45.8,292l-160.2-17.2L1820.9,2560.9z"/>
	<path style="fill:#90877B;fill-opacity:0.502;" d="M2021.1,2961.7l-108.7-80.2l34.3,63L2021.1,2961.7z"/>
	<path style="fill:#887F7D;fill-opacity:0.502;" d="M1655,3253.8l97.2-223.3L1512,3167.9L1655,3253.8z"/>
	<path style="fill:#D7D7D3;fill-opacity:0.502;" d="M1706.5,3282.4l80.1-309.2l5.7,223.3L1706.5,3282.4z"/>
	<path style="fill:#EEF0EB;fill-opacity:0.502;" d="M1655,3036.2l-74.4-154.6l-11.4,229L1655,3036.2z"/>
	<path style="fill:#D1CECD;fill-opacity:0.502;" d="M1763.7,3631.7l-234.5-314.9l17.2,526.8L1763.7,3631.7z"/>
	<path style="fill:#C5C2BD;fill-opacity:0.502;" d="M1735.1,3242.3l-194.5,85.9l131.6-355L1735.1,3242.3z"/>
	<path style="fill:#18100C;fill-opacity:0.502;" d="M1952.5,2618.2l74.4-297.7l-309,280.5L1952.5,2618.2z"/>
	<path style="fill:#B99270;fill-opacity:0.502;" d="M1901,2217.4l-228.8,246.2l91.5-194.7L1901,2217.4z"/>
	<path style="fill:#3F1A20;fill-opacity:0.502;" d="M1655,3339.6l-148.7,154.6l-22.9-200.4L1655,3339.6z"/>
	<path style="fill:#BEB4B1;fill-opacity:0.502;" d="M1683.6,3402.6l-160.2-11.5l57.2,406.5L1683.6,3402.6z"/>
	<path style="fill:#817D78;fill-opacity:0.502;" d="M1603.5,3225.1l80.1-68.7l34.3,131.7L1603.5,3225.1z"/>
	<path style="fill:#E9EBE6;fill-opacity:0.502;" d="M1866.7,2887.3L1941,2727l-291.7,194.7L1866.7,2887.3z"/>
	<path style="fill-opacity:0.502;" d="M1523.5,2749.9l120.1,11.5l-91.5,126L1523.5,2749.9z"/>
	<path style="fill:#B7AFA8;fill-opacity:0.502;" d="M1815.2,2893l11.4,143.1l-188.8,45.8L1815.2,2893z"/>
	<path style="fill:#EED5C3;fill-opacity:0.502;" d="M1895.3,3780.5l22.9,183.2l503.4-217.6L1895.3,3780.5z"/>
	<path style="fill:#D8B29A;fill-opacity:0.502;" d="M2004,4009.6l354.7,166l-417.6,91.6L2004,4009.6z"/>
	<path style="fill:#6F5A52;fill-opacity:0.502;" d="M1609.3,4095.4l451.9-532.5l11.4,618.4L1609.3,4095.4z"/>
	<path style="fill:#57381F;fill-opacity:0.502;" d="M2066.9,2847.2l-183.1-177.5l228.8,85.9L2066.9,2847.2z"/>
	<path style="fill:#584A41;fill-opacity:0.502;" d="M2204.2,3253.8l-291.7,543.9l697.9-738.6L2204.2,3253.8z"/>
	<path style="fill:#D0CFC8;fill-opacity:0.502;" d="M1815.2,2944.6l74.4-51.5l205.9,143.1L1815.2,2944.6z"/>
	<path style="fill:#432E21;fill-opacity:0.502;" d="M2152.7,3064.8l91.5-188.9l-34.3,280.6L2152.7,3064.8z"/>
	<path style="fill:#ECECE7;fill-opacity:0.502;" d="M2192.7,3047.6l-85.8,234.8l-148.7,68.7L2192.7,3047.6z"/>
	<path style="fill:#7A4D3F;fill-opacity:0.502;" d="M2032.6,3459.9l91.5-171.8l-74.4,45.8L2032.6,3459.9z"/>
	<path style="fill:#DFDBD8;fill-opacity:0.502;" d="M1975.4,3288.1l205.9-183.2l-291.7,503.9L1975.4,3288.1z"/>
	<path style="fill:#E5E4DF;fill-opacity:0.502;" d="M1986.8,2996.1l17.2,395.1l165.9-280.6L1986.8,2996.1z"/>
	<path style="fill:#C38B72;fill-opacity:0.502;" d="M2169.9,2612.5l-108.7,28.6l74.4-131.7L2169.9,2612.5z"/>
	<path style="fill:#000005;fill-opacity:0.502;" d="M2284.3,2543.8l-108.7-51.5l-17.2,223.3L2284.3,2543.8z"/>
	<path style="fill-opacity:0.502;" d="M2084,3019l297.5-400.8l-343.2,263.4L2084,3019z"/>
	<path style="fill:#94A4AD;fill-opacity:0.502;" d="M2158.4,2933.1v154.6l-62.9-85.9L2158.4,2933.1z"/>
	<path style="fill:#A3A4A6;fill-opacity:0.502;" d="M2318.6,2709.8l-257.4,360.7l303.2-200.4L2318.6,2709.8z"/>
	<path style="fill:#241A16;fill-opacity:0.502;" d="M2164.1,2538l-217.4,17.2l5.7-418L2164.1,2538z"/>
	<path style="fill:#170E0A;fill-opacity:0.502;" d="M2147,2440.7l-51.5-143.1l-343.2,395.1L2147,2440.7z"/>
	<path style="fill:#655046;fill-opacity:0.502;" d="M1946.8,2394.9l-5.7-114.5l-74.4,206.1L1946.8,2394.9z"/>
	<path style="fill:#58361D;fill-opacity:0.502;" d="M1786.6,2698.4l68.6-234.8l22.9,85.9L1786.6,2698.4z"/>
	<path style="fill:#110200;fill-opacity:0.502;" d="M1912.4,2749.9l-91.5-5.7l51.5-223.3L1912.4,2749.9z"/>
	<path style="fill:#2E2016;fill-opacity:0.502;" d="M1992.5,2887.3l-51.5-509.6l-62.9,211.9L1992.5,2887.3z"/>
	<path style="fill:#452A17;fill-opacity:0.502;" d="M1883.8,2698.4l171.6,103.1l-68.6-286.3L1883.8,2698.4z"/>
	<path style="fill:#C29073;fill-opacity:0.502;" d="M2089.8,2686.9l-51.5-45.8l28.6-137.4L2089.8,2686.9z"/>
	<path style="fill:#6A442F;fill-opacity:0.502;" d="M2044,2566.7l97.2-120.2l28.6,114.5L2044,2566.7z"/>
	<path style="fill:#0A0402;fill-opacity:0.502;" d="M1809.5,2767.1l114.4-360.7l22.9,148.9L1809.5,2767.1z"/>
	<path style="fill:#856E6D;fill-opacity:0.502;" d="M1643.6,2830.1l-40,120.2l194.5-171.8L1643.6,2830.1z"/>
	<path style="fill:#EFE2CB;fill-opacity:0.502;" d="M1700.8,2864.4l17.2-143.1l-120.1,108.8L1700.8,2864.4z"/>
	<path style="fill:#A69787;fill-opacity:0.502;" d="M1906.7,2807.2l40-68.7l-74.4,45.8L1906.7,2807.2z"/>
	<path style="fill:#A37A65;fill-opacity:0.502;" d="M2169.9,2526.6l5.7,40.1h-51.5L2169.9,2526.6z"/>
	<path style="fill:#130906;fill-opacity:0.502;" d="M2272.8,2910.2l-68.6-234.8l68.6,34.4V2910.2z"/>
	<path style="fill:#7A5939;fill-opacity:0.502;" d="M2072.6,2692.6l-11.4,171.8l40-91.6L2072.6,2692.6z"/>
	<path style="fill:#A46B47;fill-opacity:0.502;" d="M1866.7,2761.3l-74.4-28.6l-34.3-171.8L1866.7,2761.3z"/>
	<path style="fill:#22140C;fill-opacity:0.502;" d="M1597.8,2692.6l240.3-137.4l45.8-177.5L1597.8,2692.6z"/>
	<path style="fill:#16100E;fill-opacity:0.502;" d="M2032.6,2629.7l45.8-337.8l-125.8,5.7L2032.6,2629.7z"/>
	<path style="fill:#100C0B;fill-opacity:0.502;" d="M2095.5,2475.1l-234.5,68.7l85.8-131.7L2095.5,2475.1z"/>
	<path style="fill:#472E1A;fill-opacity:0.502;" d="M1758,2343.4l-80.1,269.1l177.3-171.8L1758,2343.4z"/>
	<path style="fill:#9B8069;fill-opacity:0.502;" d="M1729.4,2440.7l-45.8-22.9l-34.3,194.7L1729.4,2440.7z"/>
	<path style="fill:#D0A98D;fill-opacity:0.502;" d="M1769.4,2280.4l68.6,11.5l-5.7-85.9L1769.4,2280.4z"/>
	<path style="fill:#564338;fill-opacity:0.502;" d="M1963.9,2263.2l-40,137.4l-40-34.4L1963.9,2263.2z"/>
	<path style="fill:#3C2110;fill-opacity:0.502;" d="M2038.3,2618.2l-148.7,137.4l-85.8-45.8L2038.3,2618.2z"/>
	<path style="fill:#ECEFE9;fill-opacity:0.502;" d="M1666.5,2898.8l5.7-91.6l85.8,63L1666.5,2898.8z"/>
	<path style="fill:#FDFBF7;fill-opacity:0.502;" d="M1717.9,2761.3l274.6,131.7l-97.2-103.1L1717.9,2761.3z"/>
	<path style="fill:#06040C;fill-opacity:0.502;" d="M2089.8,2996.1l-57.2-45.8l125.8-28.6L2089.8,2996.1z"/>
	<path style="fill:#553D30;fill-opacity:0.502;" d="M2227.1,2898.8l34.3,45.8l-108.7,148.9L2227.1,2898.8z"/>
	<path style="fill:#DCD7D2;fill-opacity:0.502;" d="M2004,3041.9l-51.5,240.5l-108.7-166L2004,3041.9z"/>
	<path style="fill:#DAB8A2;fill-opacity:0.502;" d="M2267.1,3007.6l-91.5,206.1l394.7-343.5L2267.1,3007.6z"/>
	<path style="fill-opacity:0.502;" d="M2410.1,3270.9l45.8,566.8l-217.4-578.3L2410.1,3270.9z"/>
	<path style="fill:#BB957A;fill-opacity:0.502;" d="M1992.5,3391.2l205.9-206.1l91.5,80.2L1992.5,3391.2z"/>
	<path style="fill:#E4C2AB;fill-opacity:0.502;" d="M2124.1,3362.5l28.6-154.6l188.8-160.3L2124.1,3362.5z"/>
	<path style="fill:#D6D2CB;fill-opacity:0.502;" d="M2021.1,3190.8l165.9-51.5l-74.4-34.4L2021.1,3190.8z"/>
	<path style="fill:#573F41;fill-opacity:0.502;" d="M1786.6,3522.9l268.9,297.7l-280.3-618.4L1786.6,3522.9z"/>
	<path style="fill:#656253;fill-opacity:0.502;" d="M1935.3,3019l-45.8,11.5l57.2,40.1L1935.3,3019z"/>
	<path style="fill-opacity:0.502;" d="M2324.3,3500l-80.1-217.6l240.3,28.6L2324.3,3500z"/>
	<path style="fill:#1F1108;fill-opacity:0.502;" d="M2473,3001.8l-51.5,223.3l-154.4,51.5L2473,3001.8z"/>
	<path style="fill:#645A5F;fill-opacity:0.502;" d="M1683.6,4255.8l-165.9-452.3l371.8,257.7L1683.6,4255.8z"/>
	<path style="fill:#400014;fill-opacity:0.502;" d="M1803.8,3809.2l45.8-40.1l-62.9-74.4L1803.8,3809.2z"/>
	<path style="fill:#583137;fill-opacity:0.502;" d="M1929.6,3688.9l-68.6-389.4l-74.4,177.5L1929.6,3688.9z"/>
	<path style="fill:#B5B8B6;fill-opacity:0.502;" d="M1729.4,3179.3l91.5,286.3h-154.4L1729.4,3179.3z"/>
	<path style="fill:#7C6A68;fill-opacity:0.502;" d="M1723.7,3482.8l80.1,68.7l-74.4,137.4L1723.7,3482.8z"/>
	<path style="fill:#A2A4A0;fill-opacity:0.502;" d="M1580.7,3963.8l131.6-326.4l326.1-188.9L1580.7,3963.8z"/>
	<path style="fill:#C8CFD0;fill-opacity:0.502;" d="M1838.1,3946.6l-68.6-183.2l-74.4,211.9L1838.1,3946.6z"/>
	<path style="fill:#2E1D16;fill-opacity:0.502;" d="M2112.7,3923.7l-532,80.2l331.8,91.6L2112.7,3923.7z"/>
	<path style="fill:#857A7B;fill-opacity:0.502;" d="M1615,3608.8l-103,355l131.6-5.7L1615,3608.8z"/>
	<path style="fill:#969799;fill-opacity:0.502;" d="M1803.8,3259.5l125.8,34.4l-228.8,114.5L1803.8,3259.5z"/>
	<path style="fill:#68586A;fill-opacity:0.502;" d="M1780.9,3322.5l5.7,74.4l-57.2,5.7L1780.9,3322.5z"/>
	<path style="fill:#5D514B;fill-opacity:0.502;" d="M1849.5,3505.7l85.8,120.2l-274.6-154.6L1849.5,3505.7z"/>
	<path style="fill:#320F15;fill-opacity:0.502;" d="M1557.8,3866.4l103-22.9l-68.6-45.8L1557.8,3866.4z"/>
	<path style="fill:#E7E9E5;fill-opacity:0.502;" d="M1592.1,3792l148.7-160.3l-34.3-97.3L1592.1,3792z"/>
	<path style="fill:#947C77;fill-opacity:0.502;" d="M1666.5,3202.2l5.7-103.1l-45.8-63L1666.5,3202.2z"/>
	<path style="fill:#EBE6E2;fill-opacity:0.502;" d="M1557.8,3528.6l120.1-68.7l45.8-154.6L1557.8,3528.6z"/>
	<path style="fill:#7E7274;fill-opacity:0.502;" d="M1632.1,4038.2l228.8-34.4l-234.5,177.5L1632.1,4038.2z"/>
	<path style="fill:#807970;fill-opacity:0.502;" d="M1872.4,3654.6l80.1,34.4l-148.7,280.6L1872.4,3654.6z"/>
	<path style="fill:#B3A7A0;fill-opacity:0.502;" d="M1849.5,3855l-68.6-355l205.9,326.4L1849.5,3855z"/>
	<path style="fill:#6F645D;fill-opacity:0.502;" d="M1792.3,3946.6h74.4l45.8-251.9L1792.3,3946.6z"/>
	<path style="fill:#9F8978;fill-opacity:0.502;" d="M2364.3,4232.9L2072.6,3981l-188.8,183.2L2364.3,4232.9z"/>
	<path style="fill:#CFD8D7;fill-opacity:0.502;" d="M2038.3,3597.3l-125.8,63l177.3-240.5L2038.3,3597.3z"/>
	<path style="fill:#C6C0B8;fill-opacity:0.502;" d="M2038.3,3127.8l85.8,114.5l-28.6-91.6L2038.3,3127.8z"/>
	<path style="fill:#2D1614;fill-opacity:0.502;" d="M1946.8,3711.8l160.2-68.7l17.2,91.6L1946.8,3711.8z"/>
	<path style="fill:#C6AF9F;fill-opacity:0.502;" d="M1941,4158.4l137.3,68.7l154.4-45.8L1941,4158.4z"/>
	<path style="fill:#080000;fill-opacity:0.502;" d="M1809.5,4227.1l17.2-108.8l91.5,57.3L1809.5,4227.1z"/>
	<path style="fill:#AD9C8F;fill-opacity:0.502;" d="M2427.3,3557.2l-297.5,664.2l97.2-675.6L2427.3,3557.2z"/>
	<path style="fill:#B9BFBD;fill-opacity:0.502;" d="M2272.8,3282.4l-97.2,183.2l34.3,137.4L2272.8,3282.4z"/>
	<path style="fill:#000001;fill-opacity:0.502;" d="M2238.5,3322.5l165.9,343.5l-62.9-463.8L2238.5,3322.5z"/>
	<path style="fill:#8B7D77;fill-opacity:0.502;" d="M2198.5,3740.4l-91.5-223.3l486.2,51.5L2198.5,3740.4z"/>
	<path style="fill:#979990;fill-opacity:0.502;" d="M2341.5,3832.1l-34.3-355l103,257.7L2341.5,3832.1z"/>
	<path style="fill:#3C1F0E;fill-opacity:0.502;" d="M2152.7,3557.2l22.9-183.2l-68.6,85.9L2152.7,3557.2z"/>
	<path style="fill:#B8B6AF;fill-opacity:0.502;" d="M2249.9,3288.1l28.6,418l-97.2-120.2L2249.9,3288.1z"/>
	<path style="fill:#A1A6A0;fill-opacity:0.502;" d="M2347.2,3568.7l-22.9,91.6l-51.5-217.6L2347.2,3568.7z"/>
	<path style="fill:#E1CAB8;fill-opacity:0.502;" d="M2330,3826.3l-331.8-85.9l108.7,177.5L2330,3826.3z"/>
	<path style="fill:#FBE5D5;fill-opacity:0.502;" d="M2129.8,3585.9l34.3,171.8l11.4-85.9L2129.8,3585.9z"/>
	<path style="fill:#DCC4B1;fill-opacity:0.502;" d="M2078.3,3379.7l68.6,206.1l-62.9-57.3L2078.3,3379.7z"/>
	<path style="fill:#6C626E;fill-opacity:0.502;" d="M2055.4,3402.6l-314.6-166l120.1,126L2055.4,3402.6z"/>
	<path style="fill:#33172D;fill-opacity:0.502;" d="M1963.9,3419.8l-68.6-97.3l-11.4,57.3L1963.9,3419.8z"/>
	<path style="fill:#B66883;fill-opacity:0.502;" d="M1878.1,3459.9l51.5,5.7l-62.9-166L1878.1,3459.9z"/>
	<path style="fill:#CDB4A3;fill-opacity:0.502;" d="M1929.6,3969.5l234.5-240.5L1861,3837.8L1929.6,3969.5z"/>
	<path style="fill:#5A473A;fill-opacity:0.502;" d="M2009.7,4147l148.7-148.9l-34.3-68.7L2009.7,4147z"/>
	<path style="fill:#B7B7AD;fill-opacity:0.502;" d="M1763.7,3276.7l280.3,17.2l-223.1,45.8L1763.7,3276.7z"/>
	<path style="fill:#5E1A1B;fill-opacity:0.502;" d="M1689.3,2824.3l74.4,11.5l5.7-57.3L1689.3,2824.3z"/>
	<path style="fill:#B1AEA5;fill-opacity:0.502;" d="M2061.2,2990.4l-211.7-85.9l97.2,74.4L2061.2,2990.4z"/>
	<path style="fill:#ECEBE8;fill-opacity:0.502;" d="M1540.6,3219.4l125.8,45.8l-148.7,85.9L1540.6,3219.4z"/>
	<path style="fill:#EAECE7;fill-opacity:0.502;" d="M1569.2,3036.2l17.2-45.8l114.4,17.2L1569.2,3036.2z"/>
	<path style="fill:#BCB7B3;fill-opacity:0.502;" d="M1729.4,3116.3l-57.2,114.5l137.3-11.5L1729.4,3116.3z"/>
	<path style="fill:#9B9B95;fill-opacity:0.502;" d="M1677.9,3431.3l-34.3,246.2l-103,68.7L1677.9,3431.3z"/>
	<path style="fill:#D8D6D3;fill-opacity:0.502;" d="M1649.3,3849.2l-11.4-177.5L1758,3500L1649.3,3849.2z"/>
	<path style="fill:#BBBCB6;fill-opacity:0.502;" d="M1820.9,2938.8l-22.9-120.2l-40,34.4L1820.9,2938.8z"/>
	<path style="fill:#292C39;fill-opacity:0.502;" d="M1683.6,2463.6l-148.7,177.5l103-68.7L1683.6,2463.6z"/>
	<path style="fill:#06070C;fill-opacity:0.502;" d="M1889.6,2400.6l-45.8,28.6l11.4,57.3L1889.6,2400.6z"/>
	<path style="fill:#3C2A1B;fill-opacity:0.502;" d="M1866.7,2732.7l51.5-206.1l97.2,17.2L1866.7,2732.7z"/>
	<path style="fill-opacity:0.502;" d="M1895.3,2641.1l-5.7-143.1l-34.3,143.1H1895.3z"/>
	<path style="fill:#2E1100;fill-opacity:0.502;" d="M1843.8,2509.4l-171.6,126l-22.9,131.7L1843.8,2509.4z"/>
	<path style="fill:#090705;fill-opacity:0.502;" d="M1786.6,2486.5l22.9,154.6l22.9-166L1786.6,2486.5z"/>
	<path style="fill:#251D1B;fill-opacity:0.502;" d="M2072.6,2280.4l-68.6,160.3l-68.6-97.3L2072.6,2280.4z"/>
	<path style="fill:#332721;fill-opacity:0.502;" d="M2095.5,2389.2l97.2-63l148.7,91.6L2095.5,2389.2z"/>
	<path style="fill:#1C1614;fill-opacity:0.502;" d="M1826.6,2394.9l114.4-246.2l11.4,114.5L1826.6,2394.9z"/>
	<path style="fill:#DEDFDB;fill-opacity:0.502;" d="M2015.4,3001.8l91.5,68.7l-137.3-206.1L2015.4,3001.8z"/>
	<path style="fill:#7C5340;fill-opacity:0.502;" d="M2444.4,3013.3l-103,223.3l17.2-435.2L2444.4,3013.3z"/>
	<path style="fill:#D8B29E;fill-opacity:0.502;" d="M2290,2835.8l-85.8,366.4l194.5-200.4L2290,2835.8z"/>
	<path style="fill:#CFAF9C;fill-opacity:0.502;" d="M2284.3,3156.4l68.6-400.8l-143,246.2L2284.3,3156.4z"/>
	<path style="fill:#A07153;fill-opacity:0.502;" d="M2232.8,3322.5l-22.9-80.2l165.9-160.3L2232.8,3322.5z"/>
	<path style="fill:#D9DAD6;fill-opacity:0.502;" d="M2038.3,3379.7l-171.6,154.6l154.4-74.4L2038.3,3379.7z"/>
	<path style="fill:#A98366;fill-opacity:0.502;" d="M2330,3007.6l-51.5,229l143-217.6L2330,3007.6z"/>
	<path style="fill:#1B0C12;fill-opacity:0.502;" d="M2307.1,2973.2l228.8-137.4l-62.9,97.3L2307.1,2973.2z"/>
	<path style="fill:#DAB9AA;fill-opacity:0.502;" d="M2570.3,2864.4l-286,137.4l211.7-34.4L2570.3,2864.4z"/>
	<path style="fill:#7B4A42;fill-opacity:0.502;" d="M2484.5,2927.4l-137.3-91.6l-40,148.9L2484.5,2927.4z"/>
	<path style="fill:#BCA69E;fill-opacity:0.502;" d="M2249.9,2801.4l103,91.6l68.6-11.5L2249.9,2801.4z"/>
	<path style="fill:#CCAA92;fill-opacity:0.502;" d="M2438.7,2961.7l-114.4,114.5l-143-11.5L2438.7,2961.7z"/>
	<path style="fill:#EECDB4;fill-opacity:0.502;" d="M2347.2,2996.1l-125.8,114.5l-11.4,108.8L2347.2,2996.1z"/>
	<path style="fill:#F5DACB;fill-opacity:0.502;" d="M2461.6,2961.7l-103,17.2l97.2-45.8L2461.6,2961.7z"/>
	<path style="fill:#956950;fill-opacity:0.502;" d="M2221.3,3064.8l17.2-120.2l-74.4,137.4L2221.3,3064.8z"/>
	<path style="fill:#CCAE99;fill-opacity:0.502;" d="M2078.3,3379.7l148.7-166l-40-74.4L2078.3,3379.7z"/>
	<path style="fill:#503522;fill-opacity:0.502;" d="M2215.6,3391.2l28.6-103.1l-85.8,137.4L2215.6,3391.2z"/>
	<path style="fill:#F9D7BF;fill-opacity:0.502;" d="M2330,3047.6l-57.2-114.5l-17.2,34.4L2330,3047.6z"/>
	<path style="fill:#230500;fill-opacity:0.502;" d="M2484.5,2904.5l-97.2,22.9l-45.8-28.6L2484.5,2904.5z"/>
	<path style="fill:#C7A690;fill-opacity:0.502;" d="M2307.1,3087.7l-85.8-11.5l125.8-57.3L2307.1,3087.7z"/>
	<path style="fill:#A97F5E;fill-opacity:0.502;" d="M2175.6,3385.5l-97.2,91.6l91.5-188.9L2175.6,3385.5z"/>
	<path style="fill:#DCD8D5;fill-opacity:0.502;" d="M2044,3431.3l-85.8-22.9l-45.8,148.9L2044,3431.3z"/>
	<path style="fill:#6D615C;fill-opacity:0.502;" d="M2112.7,3288.1l-51.5,85.9l-57.2,11.5L2112.7,3288.1z"/>
	<path style="fill:#E9C7AF;fill-opacity:0.502;" d="M2198.5,3162.1l97.2-137.4l5.7,85.9L2198.5,3162.1z"/>
	<path style="fill:#CDAC96;fill-opacity:0.502;" d="M2221.3,3047.6l120.1-40.1l-85.8,85.9L2221.3,3047.6z"/>
	<path style="fill:#8D674F;fill-opacity:0.502;" d="M2215.6,3356.8l137.3-217.6l-120.1,97.3L2215.6,3356.8z"/>
	<path style="fill:#C1A18B;fill-opacity:0.502;" d="M2215.6,3190.8l-91.5,108.8l68.6-154.6L2215.6,3190.8z"/>
	<path style="fill:#593E2C;fill-opacity:0.502;" d="M2209.9,3150.7l-28.6-22.9l22.9-17.2L2209.9,3150.7z"/>
	<path style="fill:#7B413C;fill-opacity:0.502;" d="M2341.5,2938.8l-51.5-57.3l-45.8,11.5L2341.5,2938.8z"/>
	<path style="fill:#FDDEC8;fill-opacity:0.502;" d="M2290,2933.1l-45.8,40.1l40,5.7L2290,2933.1z"/>
	<path style="fill:#FDDEC9;fill-opacity:0.502;" d="M2352.9,2990.4l-57.2-5.7l34.3,22.9L2352.9,2990.4z"/>
	<path style="fill:#3E2D26;fill-opacity:0.502;" d="M2650.4,2898.8l-240.3,97.3l143,5.7L2650.4,2898.8z"/>
	<path style="fill:#A9A6A1;fill-opacity:0.502;" d="M2341.5,2784.2l-160.2,126l97.2-148.9L2341.5,2784.2z"/>
	<path style="fill-opacity:0.502;" d="M2398.7,3288.1V3500l-74.4,22.9L2398.7,3288.1z"/>
	<path style="fill:#000004;fill-opacity:0.502;" d="M2427.3,3093.4v-57.3l137.3-5.7L2427.3,3093.4z"/>
	<path style="fill:#6C5A51;fill-opacity:0.502;" d="M1855.2,3654.6l429,74.4l-80.1-108.8L1855.2,3654.6z"/>
	<path style="fill:#C5AD9B;fill-opacity:0.502;" d="M2129.8,3608.8v166l188.8,177.5L2129.8,3608.8z"/>
	<path style="fill:#42332E;fill-opacity:0.502;" d="M2078.3,3442.7l22.9,206.1l-74.4,131.7L2078.3,3442.7z"/>
	<path style="fill:#8A8D86;fill-opacity:0.502;" d="M2255.7,3362.5l11.4,320.6l154.4,80.2L2255.7,3362.5z"/>
	<path style="fill:#929089;fill-opacity:0.502;" d="M2238.5,3316.7l-51.5,126l137.3,68.7L2238.5,3316.7z"/>
	<path style="fill:#44332E;fill-opacity:0.502;" d="M1975.4,3814.9l85.8-108.8l-85.8-68.7L1975.4,3814.9L1975.4,3814.9z"/>
	<path style="fill:#3B2B1F;fill-opacity:0.502;" d="M1855.2,3980.9l-5.7,97.3l234.5-137.4L1855.2,3980.9z"/>
	<path style="fill:#B39D8E;fill-opacity:0.502;" d="M1952.5,3952.3l171.6-154.6h-154.4L1952.5,3952.3z"/>
	<path style="fill:#E9D5C6;fill-opacity:0.502;" d="M2101.2,3740.4l108.7,126l-194.5-97.3L2101.2,3740.4z"/>
	<path style="fill:#83807D;fill-opacity:0.502;" d="M2061.2,3414.1l-125.8,246.2l34.3-171.8L2061.2,3414.1z"/>
	<path style="fill:#EFF0EC;fill-opacity:0.502;" d="M2101.2,3248l-85.8,17.2v-240.5L2101.2,3248z"/>
	<path style="fill:#F7F7F3;fill-opacity:0.502;" d="M2021.1,2956l-51.5-45.8l-11.4-57.3L2021.1,2956z"/>
	<path style="fill:#523A2A;fill-opacity:0.502;" d="M1975.4,2761.3l-97.2,22.9l97.2,22.9V2761.3z"/>
	<path style="fill:#3B210F;fill-opacity:0.502;" d="M2055.4,2664l-143,148.9l114.4-217.6L2055.4,2664z"/>
	<path style="fill:#FFFFE3;fill-opacity:0.502;" d="M1912.4,2749.9l22.9-11.5l-5.7,22.9L1912.4,2749.9z"/>
	<path style="fill:#1E1512;fill-opacity:0.502;" d="M2129.8,2389.2l45.8,166l183.1-137.4L2129.8,2389.2z"/>
	<path style="fill:#B4AEA9;fill-opacity:0.502;" d="M2352.9,2658.3l5.7-171.8l-91.5,103.1L2352.9,2658.3z"/>
	<path style="fill:#1B1109;fill-opacity:0.502;" d="M2164.1,2698.4l-85.8-5.7l-45.8,45.8L2164.1,2698.4z"/>
	<path style="fill:#643B25;fill-opacity:0.502;" d="M1855.2,2744.2l-62.9,11.5l34.3-97.3L1855.2,2744.2z"/>
	<path style="fill:#1A1618;fill-opacity:0.502;" d="M2129.8,2841.5l11.4-229l-40,108.8L2129.8,2841.5z"/>
	<path style="fill:#1A191F;fill-opacity:0.502;" d="M2370.1,2778.5l-97.2-57.3h74.4L2370.1,2778.5z"/>
	<path style="fill:#020106;fill-opacity:0.502;" d="M2347.2,2652.6l-217.4,114.5l-5.7,206.1L2347.2,2652.6z"/>
	<path style="fill:#5B3B24;fill-opacity:0.502;" d="M2049.7,2692.6l-51.5,103.1l-85.8-11.5L2049.7,2692.6z"/>
	<path style="fill:#472B18;fill-opacity:0.502;" d="M2009.7,2709.8l-68.6-160.3l17.2,274.8L2009.7,2709.8z"/>
	<path style="fill:#B8BABA;fill-opacity:0.502;" d="M1986.8,2835.8l17.2-45.8l40,131.7L1986.8,2835.8z"/>
	<path style="fill:#452917;fill-opacity:0.502;" d="M2044,2686.9l-154.4-51.5l34.3,74.4L2044,2686.9z"/>
	<path style="fill:#070509;fill-opacity:0.502;" d="M2209.9,2704.1l-97.2-85.9l85.8,5.7L2209.9,2704.1z"/>
	<path style="fill:#533524;fill-opacity:0.502;" d="M2095.5,2475.1l-28.6,114.5l114.4-166L2095.5,2475.1z"/>
	<path style="fill:#060507;fill-opacity:0.502;" d="M2198.5,2778.5l-120.1,40.1l160.2-240.5L2198.5,2778.5z"/>
	<path style="fill:#000001;fill-opacity:0.502;" d="M2078.3,2870.1l-34.3,97.3l57.2-5.7L2078.3,2870.1z"/>
	<path style="fill:#D4A085;fill-opacity:0.502;" d="M2095.5,2595.3l-57.2,85.9l85.8-22.9L2095.5,2595.3z"/>
	<path style="fill:#25190F;fill-opacity:0.502;" d="M2021.1,2698.4l22.9-91.6l-51.5-51.5L2021.1,2698.4z"/>
	<path style="fill:#B8B8B2;fill-opacity:0.502;" d="M1918.2,2812.9l-57.2-40.1l40-5.7L1918.2,2812.9z"/>
	<path style="fill:#3C2817;fill-opacity:0.502;" d="M2055.4,2681.2l-74.4-91.6l-103,57.3L2055.4,2681.2z"/>
	<path style="fill:#D1A188;fill-opacity:0.502;" d="M2164.1,2589.6l-125.8,68.7l51.5-80.2L2164.1,2589.6z"/>
	<path style="fill:#000001;fill-opacity:0.502;" d="M2066.9,2950.3l205.9-269.1l-177.3,120.2L2066.9,2950.3z"/>
	<path style="fill:#4F341F;fill-opacity:0.502;" d="M1986.8,2560.9l-34.3,68.7l17.2,57.3L1986.8,2560.9z"/>
	<path style="fill:#0A080B;fill-opacity:0.502;" d="M2330,2492.2l-120.1-5.7l-45.8,234.8L2330,2492.2z"/>
	<path style="fill:#090805;fill-opacity:0.502;" d="M2066.9,2795.7l-22.9-51.5l-17.2,17.2L2066.9,2795.7z"/>
	<path style="fill:#8D6D49;fill-opacity:0.502;" d="M2078.3,2767.1l-5.7,34.4l34.3-22.9L2078.3,2767.1z"/>
	<path style="fill:#170C10;fill-opacity:0.502;" d="M2181.3,2681.2l34.3-34.4l-125.8,17.2L2181.3,2681.2z"/>
	<path style="fill:#0B0705;fill-opacity:0.502;" d="M1969.6,2566.7l-22.9-22.9l45.8-85.9L1969.6,2566.7z"/>
	<path style="fill:#66452A;fill-opacity:0.502;" d="M2055.4,2801.4l-40-5.7l28.6,57.3L2055.4,2801.4z"/>
	<path style="fill:#2C1E16;fill-opacity:0.502;" d="M2290,2412.1l-194.5,154.6l45.8-188.9L2290,2412.1z"/>
	<path style="fill:#1A110E;fill-opacity:0.502;" d="M2158.4,2435l-114.4,85.9l80.1-217.6L2158.4,2435z"/>
	<path style="fill:#DAAD8F;fill-opacity:0.502;" d="M2089.8,2589.6l-17.2,97.3l-11.4-74.4L2089.8,2589.6z"/>
	<path style="fill:#08080B;fill-opacity:0.502;" d="M2375.8,2417.8l-200.2,114.5l-5.7,177.5L2375.8,2417.8z"/>
	<path style="fill:#291E18;fill-opacity:0.502;" d="M1929.6,2446.4l-28.6,160.3l57.2-74.4L1929.6,2446.4z"/>
	<path style="fill:#000308;fill-opacity:0.502;" d="M2387.2,2446.4l-108.7-51.5l22.9,120.2L2387.2,2446.4z"/>
	<path style="fill:#170F0C;fill-opacity:0.502;" d="M2141.3,2515.1l45.8-63l97.2,114.5L2141.3,2515.1z"/>
	<path style="fill:#472C19;fill-opacity:0.502;" d="M1895.3,2698.4l34.3-68.7l114.4,22.9L1895.3,2698.4z"/>
	<path style="fill:#382615;fill-opacity:0.502;" d="M2101.2,2795.7l-85.8-40.1l40,57.3L2101.2,2795.7z"/>
	<path style="fill:#160A04;fill-opacity:0.502;" d="M1849.5,2646.8l62.9-5.7l-80.1,85.9L1849.5,2646.8z"/>
	<path style="fill:#63402D;fill-opacity:0.502;" d="M2072.6,2509.4l80.1-51.5l-91.5,137.4L2072.6,2509.4z"/>
	<path style="fill:#362417;fill-opacity:0.502;" d="M1963.9,2664l-5.7-85.9l-103,97.3L1963.9,2664z"/>
	<path style="fill:#1A120F;fill-opacity:0.502;" d="M2004,2572.4l143-160.3l-62.9-154.6L2004,2572.4z"/>
	<path style="fill:#261A13;fill-opacity:0.502;" d="M1992.5,2658.3l40-114.5l-40-137.4V2658.3z"/>
	<path style="fill-opacity:0.502;" d="M1906.7,2480.8l5.7,97.3l-80.1,68.7L1906.7,2480.8z"/>
	<path style="fill:#5F3821;fill-opacity:0.502;" d="M2009.7,2664l-45.8,68.7h-57.2L2009.7,2664z"/>
	<path style="fill:#FFC79D;fill-opacity:0.502;" d="M1815.2,2618.2h-40l-28.6,63L1815.2,2618.2z"/>
	<path style="fill:#47311F;fill-opacity:0.502;" d="M1683.6,2475.1l165.9-51.5h-114.4L1683.6,2475.1z"/>
	<path style="fill:#372E2A;fill-opacity:0.502;" d="M1832.4,2475.1l-103,5.7l194.5-183.2L1832.4,2475.1z"/>
	<path style="fill:#1A120F;fill-opacity:0.502;" d="M2032.6,2326.2l-11.4-103.1l-103,137.4L2032.6,2326.2z"/>
	<path style="fill:#574333;fill-opacity:0.502;" d="M1901,2389.2l-11.4,114.5l-57.2,51.5L1901,2389.2z"/>
	<path style="fill:#8E6742;fill-opacity:0.502;" d="M1700.8,2686.9l-22.9-97.3l-137.3,45.8L1700.8,2686.9z"/>
	<path style="fill:#424248;fill-opacity:0.502;" d="M1649.3,3019l17.2-126l-34.3-5.7L1649.3,3019z"/>
	<path style="fill:#29202F;fill-opacity:0.502;" d="M1620.7,2927.4l17.2-51.5l22.9,51.5H1620.7z"/>
	<path style="fill:#DDB389;fill-opacity:0.502;" d="M1660.7,2612.5l-62.9,22.9l74.4-68.7L1660.7,2612.5z"/>
	<path style="fill:#E3CAB0;fill-opacity:0.502;" d="M1798,2698.4L1620.7,2853l80.1-5.7L1798,2698.4z"/>
	<path style="fill-opacity:0.502;" d="M1489.1,3391.2l5.7-103.1l51.5,183.2L1489.1,3391.2z"/>
	<path style="fill:#D6D0CB;fill-opacity:0.502;" d="M1689.3,2961.7l-177.3,189l131.6-51.5L1689.3,2961.7z"/>
	<path style="fill:#783535;fill-opacity:0.502;" d="M1615,3293.8l-40,194.7l80.1-91.6L1615,3293.8z"/>
	<path style="fill:#D4E2D9;fill-opacity:0.502;" d="M1523.5,3282.4l28.6,120.2l-34.3,5.7L1523.5,3282.4z"/>
	<path style="fill:#E2E4E0;fill-opacity:0.502;" d="M1637.9,3322.5l45.8-63l-137.3-17.2L1637.9,3322.5z"/>
	<path style="fill:#B9B8B5;fill-opacity:0.502;" d="M1769.4,3780.5l34.3-234.8l51.5,63L1769.4,3780.5z"/>
	<path style="fill:#514C45;fill-opacity:0.502;" d="M1866.7,3545.8l5.7,183.2l97.2-171.8L1866.7,3545.8z"/>
	<path style="fill:#4E433F;fill-opacity:0.502;" d="M1935.3,3568.7l-108.7-51.5l85.8,194.7L1935.3,3568.7z"/>
	<path style="fill:#7F593F;fill-opacity:0.502;" d="M2427.3,2984.6l-28.6,126l-85.8,68.7L2427.3,2984.6z"/>
	<path style="fill:#9E7358;fill-opacity:0.502;" d="M2381.5,3070.5l-5.7-45.8l51.5-45.8L2381.5,3070.5z"/>
	<path style="fill:#AA846A;fill-opacity:0.502;" d="M2347.2,3082l-40,126l-131.6,85.9L2347.2,3082z"/>
	<path style="fill:#96918C;fill-opacity:0.502;" d="M2089.8,3591.6l-120.1,34.4l57.2,40.1L2089.8,3591.6z"/>
	<path style="fill:#E5CBB5;fill-opacity:0.502;" d="M2267.1,3740.4l-103-11.5l154.4,131.7L2267.1,3740.4z"/>
	<path style="fill:#98928B;fill-opacity:0.502;" d="M2187,3568.7l-17.2-126l57.2-51.5L2187,3568.7z"/>
	<path style="fill:#AFA9A3;fill-opacity:0.502;" d="M2049.7,3545.8L2044,3666l-34.3-91.6L2049.7,3545.8z"/>
	<path style="fill:#EBE3DC;fill-opacity:0.502;" d="M2112.7,3488.5l-34.3-97.3l-22.9,22.9L2112.7,3488.5z"/>
	<path style="fill:#C6C7C3;fill-opacity:0.502;" d="M2272.8,3585.9l-57.2-80.2l-22.9,40.1L2272.8,3585.9z"/>
	<path style="fill:#A58F7F;fill-opacity:0.502;" d="M1992.5,3797.7l34.3,103.1l-45.8,40.1L1992.5,3797.7z"/>
	<path style="fill:#5B4D42;fill-opacity:0.502;" d="M2187,3528.6l-34.3,11.5l68.6,74.4L2187,3528.6z"/>
	<path style="fill:#D1BCAD;fill-opacity:0.502;" d="M2158.4,3688.9l-45.8,5.7l11.4-126L2158.4,3688.9z"/>
	<path style="fill:#D0CEC7;fill-opacity:0.502;" d="M2095.5,3459.9l-22.9-11.5l-45.8,17.2L2095.5,3459.9z"/>
	<path style="fill:#C2BCB0;fill-opacity:0.502;" d="M2158.4,3190.8l17.2-85.9l22.9,120.2L2158.4,3190.8z"/>
	<path style="fill:#010001;fill-opacity:0.502;" d="M2398.7,3328.2v200.4L2250,3293.8L2398.7,3328.2z"/>
	<path style="fill-opacity:0.502;" d="M2478.8,3053.4H2433l103-108.8L2478.8,3053.4z"/>
	<path style="fill-opacity:0.502;" d="M2570.3,3013.3l57.2,74.4l-22.9-131.7L2570.3,3013.3z"/>
	<path style="fill:#5E4F4C;fill-opacity:0.502;" d="M2444.4,2927.4l-62.9,40.1l22.9-34.4L2444.4,2927.4z"/>
	<path style="fill:#C8BDB5;fill-opacity:0.502;" d="M2364.3,2950.3l-68.6-51.5v-126L2364.3,2950.3z"/>
	<path style="fill:#653820;fill-opacity:0.502;" d="M2415.8,3041.9l17.2-40.1l40-5.7L2415.8,3041.9z"/>
	<path style="fill-opacity:0.502;" d="M2553.1,2950.3l57.2-68.7l5.7-74.4L2553.1,2950.3z"/>
	<path style="fill:#524E46;fill-opacity:0.502;" d="M2604.6,2778.5l-40-97.3l-5.7,177.5L2604.6,2778.5z"/>
	<path style="fill:#BC8C75;fill-opacity:0.502;" d="M2209.9,2978.9l85.8-85.9l-45.8,5.7L2209.9,2978.9z"/>
	<path style="fill:#DAB59D;fill-opacity:0.502;" d="M2261.4,3001.8l62.9,120.2l-28.6-160.3L2261.4,3001.8z"/>
	<path style="fill:#A4B1B6;fill-opacity:0.502;" d="M2284.3,2887.3l-5.7-131.7l80.1,17.2L2284.3,2887.3z"/>
	<path style="fill-opacity:0.502;" d="M2461.6,2904.5l114.4-103.1l-148.7,57.3L2461.6,2904.5z"/>
	<path style="fill:#48413D;fill-opacity:0.502;" d="M2249.9,2938.8l-17.2-57.3l-51.5,131.7L2249.9,2938.8z"/>
	<path style="fill:#A8ABA7;fill-opacity:0.502;" d="M2272.8,2578.1l-40,74.4l125.8-114.5L2272.8,2578.1z"/>
	<path style="fill:#010002;fill-opacity:0.502;" d="M2455.9,2767.1l-34.3,108.8l-28.6-28.6L2455.9,2767.1z"/>
	<path style="fill:#A5A9A9;fill-opacity:0.502;" d="M2358.6,2870.1l-85.8,11.5l17.2-63L2358.6,2870.1z"/>
	<path style="fill:#AB755A;fill-opacity:0.502;" d="M2238.5,2915.9l-28.6,108.8l57.2-97.3L2238.5,2915.9z"/>
	<path style="fill:#9F7D64;fill-opacity:0.502;" d="M2198.5,3007.6l28.6-34.4l-34.3,74.4L2198.5,3007.6z"/>
	<path style="fill:#B1896F;fill-opacity:0.502;" d="M2341.5,3041.9l114.4-68.7l-103,28.6L2341.5,3041.9z"/>
	<path style="fill:#010002;fill-opacity:0.502;" d="M2461.6,2778.5l-22.9,137.4l120.1-131.7L2461.6,2778.5z"/>
	<path style="fill:#0F0907;fill-opacity:0.502;" d="M1872.4,2520.9l22.9-68.7l51.5-11.5L1872.4,2520.9z"/>
	<path style="fill:#54473E;fill-opacity:0.502;" d="M1872.4,2143l274.6,40l143,206.1L1872.4,2143z"/>
	<path style="fill:#3A2F29;fill-opacity:0.502;" d="M2232.8,2492.2l17.2-143.1l45.8,57.3L2232.8,2492.2z"/>
	<path style="fill:#55433A;fill-opacity:0.502;" d="M1952.5,2309l-80.1-45.8l40,108.8L1952.5,2309z"/>
	<path style="fill:#110C0B;fill-opacity:0.502;" d="M2009.7,2337.6l-28.6,103.1v-85.9L2009.7,2337.6z"/>
	<path style="fill:#1E1410;fill-opacity:0.502;" d="M2055.4,2457.9l74.4,28.6l-97.2-5.7L2055.4,2457.9z"/>
	<path style="fill:#FFFFFF;fill-opacity:0.502;" d="M2209.9,2051.4l57.2,91.6l5.7-131.7L2209.9,2051.4z"/>
	<path style="fill:#60544C;fill-opacity:0.502;" d="M2158.4,2268.9l-211.7-229v97.3L2158.4,2268.9z"/>
	<path style="fill:#1D2027;fill-opacity:0.502;" d="M1952.5,2120.1l28.6-57.3l62.9,34.4L1952.5,2120.1z"/>
</g>
</svg>
