<?xml version="1.0" encoding="utf-8"?>
<svg version="1.1" id="beeld" xmlns="http://www.w3.org/2000/svg" xmlns:xlink="http://www.w3.org/1999/xlink" x="0px" y="0px"
	 viewBox="0 0 3725.1 4497.6" style="enable-background:new 0 0 3725.1 4497.6;" xml:space="preserve">
<g id="women_background">
	<polygon style="fill:#313131;fill-opacity:0.502;" points="3651.1,0,3611.1,3010.4,0,4497.6"></polygon>
	<polygon style="fill:#99938F;fill-opacity:0.502;" points="2962,3715.5,3351,3961.7,3499.7,3497.9"></polygon>
	<polygon style="fill-opacity:0.502;" points="2841.9,3875.9,2390,4047.6,2527.3,3354.8"></polygon>
	<polygon style="fill-opacity:0.502;" points="3564.4,4414.5,3620.9,2273.2,2052.5,4465.6"></polygon>
	<polygon style="fill:#565455;fill-opacity:0.502;" points="3623.8,985,2487.2,2066.5,2647.4,1436.7"></polygon>
	<polygon style="fill-opacity:0.502;" points="576.6,4465.6,1486.1,3543.8,1674.9,4419.8"></polygon>
	<polygon style="fill:#40322A;fill-opacity:0.502;" points="2372.8,2742.2,2881.9,2123.8,3110.7,4465.6"></polygon>
	<polygon style="fill:#47372B;fill-opacity:0.502;" points="1343.2,3125.8,1806.5,2129.5,2018.2,2352.8"></polygon>
	<polygon style="fill:#877B71;fill-opacity:0.502;" points="3648.5,3830.1,3013.5,3154.5,2441.5,4116.4"></polygon>
	<polygon style="fill:#BCABA8;fill-opacity:0.502;" points="2355.7,2324.2,2029.6,2123.8,2166.9,1648.6"></polygon>
	<polygon style="fill:#DDDAC9;fill-opacity:0.502;" points="1245.9,2851,1228.7,3429.3,1491.8,3503.7"></polygon>
	<polygon style="fill-opacity:0.502;" points="1022.8,3423.5,1240.2,2833.7,1137.2,4053.3"></polygon>
	<polygon style="fill:#938D7E;fill-opacity:0.502;" points="1343.2,3268.9,1537.7,3589.5,1085.8,3560.9"></polygon>
	<polygon style="fill-opacity:0.502;" points="1652.1,4465.6,1509.1,3595.3,1103,3686.9"></polygon>
	<polygon style="fill-opacity:0.502;" points="1531.9,3646.8,1480.4,4465.6,1291.6,3652.5"></polygon>
	<polygon style="fill:#CBBAAC;fill-opacity:0.502;" points="2344.2,3910.2,2367.1,3646.8,1457.6,3938.8"></polygon>
	<polygon style="fill:#0D0A0A;fill-opacity:0.502;" points="2561.6,2003.5,2458.6,3102.8,2956.3,2845.1"></polygon>
	<polygon style="fill:#D0CACE;fill-opacity:0.502;" points="3640.4,2052.6,3492.1,865.1,2983.6,2349.5"></polygon>
	<polygon style="fill:#565D5F;fill-opacity:0.502;" points="2877.7,2582.8,3153.1,2476.8,2729.4,1480.1"></polygon>
	<polygon style="fill:#EDAF84;fill-opacity:0.502;" points="3343.8,3431,3704,1967.8,3110.8,3028.1"></polygon>
	<polygon style="fill-opacity:0.502;" points="2681.7,3996.1,2876.2,4408.4,1692.1,4448.5"></polygon>
	<polygon style="fill-opacity:0.502;" points="473.7,4465.6,1680.7,4351.1,1469,3858.7"></polygon>
	<polygon style="fill-opacity:0.502;" points="1451.9,4465.6,1589.2,3978.9,1663.6,4419.8"></polygon>
	<polygon style="fill:#342E2B;fill-opacity:0.502;" points="1366.1,4024.7,1028.6,3875.8,1480.5,4259.4"></polygon>
	<polygon style="fill:#040204;fill-opacity:0.502;" points="1537.7,4104.9,1314.6,4282.4,1509.1,3423.5"></polygon>
	<polygon style="fill-opacity:0.502;" points="1589.2,4288.1,1434.8,4156.4,1612.1,3973.2"></polygon>
	<polygon style="fill-opacity:0.502;" points="2144,4465.6,1915.2,4265.2,2841.9,4219.4"></polygon>
	<polygon style="fill:#171416;fill-opacity:0.502;" points="1354.6,3978.9,1537.7,4333.9,1337.5,4465.6"></polygon>
	<polygon style="fill:#767871;fill-opacity:0.502;" points="2332.8,4053.4,2887.7,3916,3185.2,4271"></polygon>
	<polygon style="fill:#B0A88F;fill-opacity:0.502;" points="1102.9,3658.3,1228.7,3635.4,1148.6,3498"></polygon>
	<polygon style="fill-opacity:0.502;" points="1526.2,3034.2,1497.6,3349.1,1457.6,3211.7"></polygon>
	<polygon style="fill:#121213;fill-opacity:0.502;" points="1520.5,4362.6,1045.7,4179.4,1045.7,3721.3"></polygon>
	<polygon style="fill-opacity:0.502;" points="1257.4,4059.1,1223.1,4391.2,1371.8,4465.6"></polygon>
	<polygon style="fill:#0E0D0E;fill-opacity:0.502;" points="1543.4,4282.4,1429,4156.4,1205.9,4448.4"></polygon>
	<polygon style="fill:#2D2927;fill-opacity:0.502;" points="1451.9,4099.2,1131.6,4001.9,1377.6,4190.8"></polygon>
	<polygon style="fill:#000003;fill-opacity:0.502;" points="1280.3,3698.4,1314.6,3990.4,1532,3749.9"></polygon>
	<polygon style="fill-opacity:0.502;" points="1320.3,3824.3,1617.8,4144.9,1572,3978.9"></polygon>
	<polygon style="fill:#000001;fill-opacity:0.502;" points="1594.9,3990.4,1617.8,4179.3,1348.9,3835.8"></polygon>
	<polygon style="fill-opacity:0.502;" points="834.1,4339.6,1051.5,4041.9,1154.5,4465.6"></polygon>
	<polygon style="fill:#908A80;fill-opacity:0.502;" points="1457.6,3595.3,1183,3400.6,1480.5,3360.5"></polygon>
	<polygon style="fill:#8D9BA4;fill-opacity:0.502;" points="1491.9,3005.6,1417.5,2845.3,1509,2856.8"></polygon>
	<polygon style="fill:#000003;fill-opacity:0.502;" points="1371.8,3646.8,1532,3870.1,1520.6,3629.6"></polygon>
	<polygon style="fill:#010103;fill-opacity:0.502;" points="1480.5,4208,1308.9,3641.2,1537.7,3778.6"></polygon>
	<polygon style="fill-opacity:0.502;" points="1606.3,4093.4,1297.4,3887.3,1629.2,4368.3"></polygon>
	<polygon style="fill:#9CA3AA;fill-opacity:0.502;" points="3514.1,3037,3233.8,2120.9,3045,3197.4"></polygon>
	<polygon style="fill:#0B090B;fill-opacity:0.502;" points="2395.7,3068.5,2904.8,3045.6,2830.4,2616.2"></polygon>
	<polygon style="fill:#020206;fill-opacity:0.502;" points="2447.2,2925.4,2378.6,2742.2,2687.5,2576.2"></polygon>
	<polygon style="fill:#0D0A0B;fill-opacity:0.502;" points="2498.7,2913.9,2653.1,2919.6,2681.7,2828"></polygon>
	<polygon style="fill:#292627;fill-opacity:0.502;" points="2578.8,2885.3,2733.2,2959.7,2498.7,3091.4"></polygon>
	<polygon style="fill:#0B070A;fill-opacity:0.502;" points="2452.9,3343.4,2475.8,3520.9,2756.1,3549.5"></polygon>
	<polygon style="fill:#1A0E09;fill-opacity:0.502;" points="2721.8,3274.7,3190.9,3332,3053.6,2954"></polygon>
	<polygon style="fill:#393B3B;fill-opacity:0.502;" points="2412.9,3950.3,2693.2,3795.7,2372.9,3767.1"></polygon>
	<polygon style="fill:#413A35;fill-opacity:0.502;" points="3598,4024.7,3598,3325,3725.1,3579.5"></polygon>
	<polygon style="fill-opacity:0.502;" points="2533,2066.5,2733.2,2072.2,2390,2158.1"></polygon>
	<polygon style="fill:#D9DADB;fill-opacity:0.502;" points="2189.8,1929.1,2435.8,1889,2172.7,2020.7"></polygon>
	<polygon style="fill:#52585D;fill-opacity:0.502;" points="1497.6,2885.3,1406.1,2994.1,1600.6,3234.6"></polygon>
	<polygon style="fill:#121212;fill-opacity:0.502;" points="1554.8,4465.6,1509,4219.4,1297.3,4351.1"></polygon>
	<polygon style="fill:#131313;fill-opacity:0.502;" points="1572,4425.5,1497.6,4316.7,1343.2,4402.6"></polygon>
	<polygon style="fill:#131112;fill-opacity:0.502;" points="1531.9,4437,1394.6,4213.7,1520.4,4236.6"></polygon>
	<polygon style="fill:#7F6D60;fill-opacity:0.502;" points="2498.7,2954,2578.8,2713.5,2676,2736.4"></polygon>
	<polygon style="fill:#000005;fill-opacity:0.502;" points="2538.7,2788,2670.3,2902.5,2595.9,2908.2"></polygon>
	<polygon style="fill:#090A0A;fill-opacity:0.502;" points="2378.6,2770.8,2407.2,2868.1,2658.9,2747.9"></polygon>
	<polygon style="fill-opacity:0.502;" points="2738.9,2730.7,2962,3137.2,2841.9,3154.4"></polygon>
	<polygon style="fill-opacity:0.502;" points="2647.4,2885.3,2584.5,2822.3,2555.9,2845.2"></polygon>
	<polygon style="fill:#020000;fill-opacity:0.502;" points="2710.3,2925.4,2681.7,3028.5,2916.2,2977"></polygon>
	<polygon style="fill:#A6A2A2;fill-opacity:0.502;" points="3333.9,2309.9,2973.5,2103.8,2984.9,2613.4"></polygon>
	<polygon style="fill:#140000;fill-opacity:0.502;" points="1618,1892.5,2087.1,3031.9,2367.4,2396.3"></polygon>
	<polygon style="fill:#987C63;fill-opacity:0.502;" points="1909.8,2236,1824,2121.5,1595.2,2608.2"></polygon>
	<polygon style="fill-opacity:0.502;" points="2081.4,2991.8,1995.6,2745.6,2396,2631.1"></polygon>
	<polygon style="fill:#1A1109;fill-opacity:0.502;" points="2407.5,2419.3,1972.8,2281.9,1801.2,2677"></polygon>
	<polygon style="fill:#22150D;fill-opacity:0.502;" points="1686.7,2619.7,2401.7,2436.5,1726.7,2419.3"></polygon>
	<polygon style="fill:#3F1400;fill-opacity:0.502;" points="2504.7,1944,2407.5,2321.9,2361.7,2127.2"></polygon>
	<polygon style="fill:#000002;fill-opacity:0.502;" points="2161.5,2550.9,2224.4,2602.4,2418.9,2407.7"></polygon>
	<polygon style="fill:#261C18;fill-opacity:0.502;" points="1892.6,2579.6,2430.3,2402.1,2069.9,2373.5"></polygon>
	<polygon style="fill:#9B7858;fill-opacity:0.502;" points="1663.8,2413.5,1692.4,2568.1,1600.9,2757"></polygon>
	<polygon style="fill:#9B7E6F;fill-opacity:0.502;" points="2544.7,3427,2630.5,3375.5,2327.3,3146.5"></polygon>
	<polygon style="fill:#B49EA5;fill-opacity:0.502;" points="1669.5,4177.1,1886.9,4280.2,1738.2,4326"></polygon>
	<polygon style="fill:#0B0106;fill-opacity:0.502;" points="1698.1,4274.4,1801.1,4343.1,1675.3,4343.1"></polygon>
	<polygon style="fill:#8C7A80;fill-opacity:0.502;" points="1869.7,4457.6,1858.3,4228.6,1755.3,4194.2"></polygon>
	<polygon style="fill:#402E2E;fill-opacity:0.502;" points="1835.4,3942.3,1881.2,4457.6,2007,4388.9"></polygon>
	<polygon style="fill:#77696E;fill-opacity:0.502;" points="1595.2,4457.6,1824,4457.6,1944.1,4325.9"></polygon>
	<polygon style="fill:#5E4F44;fill-opacity:0.502;" points="2321.7,4274.4,2613.4,3730.5,2207.3,4022.5"></polygon>
	<polygon style="fill:#6C5645;fill-opacity:0.502;" points="2190.1,4228.6,2418.9,3936.6,2464.7,4154.2"></polygon>
	<polygon style="fill:#443630;fill-opacity:0.502;" points="2235.8,4245.8,2247.2,4371.8,2069.9,4411.9"></polygon>
	<polygon style="fill:#5C4F50;fill-opacity:0.502;" points="1824,4096.9,1623.8,4142.7,1818.3,4274.4"></polygon>
	<polygon style="fill:#5E5C64;fill-opacity:0.502;" points="1635.2,4257.2,1686.7,4406.1,1783.9,4457.6"></polygon>
	<polygon style="fill:#101B21;fill-opacity:0.502;" points="1623.8,4165.6,1618.1,4406.1,1669.6,4343.1"></polygon>
	<polygon style="fill:#211518;fill-opacity:0.502;" points="1812.5,4343.1,1692.4,4457.6,1909.8,4457.6"></polygon>
	<polygon style="fill:#584E45;fill-opacity:0.502;" points="2024.2,2213.1,2218.7,2390.6,2115.7,2075.7"></polygon>
	<polygon style="fill-opacity:0.502;" points="2356,2768.5,2459,2905.9,2642.1,2550.9"></polygon>
	<polygon style="fill-opacity:0.502;" points="2499,2625.4,2539,2854.4,2361.7,2848.7"></polygon>
	<polygon style="fill:#C9BBB3;fill-opacity:0.502;" points="2544.7,3089.2,2458.9,3261,2424.6,3077.8"></polygon>
	<polygon style="fill:#363133;fill-opacity:0.502;" points="2304.5,2717,2396,2470.8,2413.2,2843"></polygon>
	<polygon style="fill:#947F79;fill-opacity:0.502;" points="2413.2,3564.4,2413.2,3341.1,2561.9,3604.5"></polygon>
	<polygon style="fill:#010511;fill-opacity:0.502;" points="1492.2,2837.2,1578,2877.3,1578,2659.7"></polygon>
	<polygon style="fill:#5E4227;fill-opacity:0.502;" points="1543.7,2579.6,1663.8,2676.9,1560.8,2705.5"></polygon>
	<polygon style="fill-opacity:0.502;" points="1566.6,4262.9,1492.2,4451.8,1646.6,4400.3"></polygon>
	<polygon style="fill-opacity:0.502;" points="1566.6,4297.3,1538,4366,1721.1,4457.6"></polygon>
	<polygon style="fill:#000003;fill-opacity:0.502;" points="2527.6,2860.1,2338.8,2842.9,2590.5,2648.2"></polygon>
	<polygon style="fill:#151316;fill-opacity:0.502;" points="2384.6,2837.2,2487.6,2745.6,2499,2562.4"></polygon>
	<polygon style="fill:#010105;fill-opacity:0.502;" points="2567.6,2688.4,2396,2785.7,2527.6,2860.1"></polygon>
	<polygon style="fill:#9F9988;fill-opacity:0.502;" points="2493.3,2613.9,2527.6,2619.6,2521.9,2516.5"></polygon>
	<polygon style="fill:#504C4A;fill-opacity:0.502;" points="2350.3,2562.4,2401.8,2694.1,2361.8,2854.4"></polygon>
	<polygon style="fill:#0A090D;fill-opacity:0.502;" points="2504.7,2694.1,2396,2825.8,2464.6,2654"></polygon>
	<polygon style="fill:#050509;fill-opacity:0.502;" points="2556.2,2802.9,2556.2,2722.7,2476.1,2888.7"></polygon>
	<polygon style="fill:#DCC1AC;fill-opacity:0.502;" points="2270.2,2379.2,2218.7,2173.1,2327.4,2167.4"></polygon>
	<polygon style="fill:#524336;fill-opacity:0.502;" points="2035.6,2133,2064.2,2007,1898.3,2138.7"></polygon>
</g>
<g id="women_light">
	
		<linearGradient id="SVGID_1_" gradientUnits="userSpaceOnUse" x1="3532.7451" y1="2016.1798" x2="3741.3491" y2="2433.3879" gradientTransform="matrix(0.7809 -0.6246 -0.6246 -0.7809 865.8124 6774.6748)">
		<stop  offset="0" style="stop-color:#FFD26F"/>
		<stop  offset="1" style="stop-color:#FFD26F;stop-opacity:0"/>
	</linearGradient>
	<polyline style="fill:url(#SVGID_1_);" points="2294.3,2997.1 1851.1,2525.3 2635.1,2321.7 2559.1,2899.8 2294.3,2997.1 	"/>
</g>
<g id="women_figure">
	<polygon style="fill:#FFCC9F;fill-opacity:0.502;" points="2038.3,2738.4,2061.2,2549.5,2181.3,2566.7"></polygon>
	<polygon style="fill:#100200;fill-opacity:0.502;" points="2198.5,2360.5,1866.7,2755.6,1723.7,2463.6"></polygon>
	<polygon style="fill:#DFD9D1;fill-opacity:0.502;" points="2049.7,2807.2,1517.7,3385.5,1700.8,2709.9"></polygon>
	<polygon style="fill:#D6B9A5;fill-opacity:0.502;" points="2164.1,2915.9,2473,4227.1,1855.2,3912.2"></polygon>
	<polygon style="fill:#F5FAF4;fill-opacity:0.502;" points="1941,2841.5,2227,3219.4,1815.1,3322.5"></polygon>
	<polygon style="fill:#6E5446;fill-opacity:0.502;" points="2055.4,2938.8,1820.9,3127.7,1798,3007.5"></polygon>
	<polygon style="fill:#C9C4C2;fill-opacity:0.502;" points="2129.8,3339.6,1609.2,2910.2,1529.1,3145"></polygon>
	<polygon style="fill:#EEECE8;fill-opacity:0.502;" points="2135.5,3328.2,2038.3,3030.5,1838.1,3150.7"></polygon>
	<polygon style="fill:#390D1C;fill-opacity:0.502;" points="1901,3740.4,1946.8,3316.7,1769.5,3316.7"></polygon>
	<polygon style="fill:#BFBAB2;fill-opacity:0.502;" points="1981.1,3202.2,2147,3345.3,1700.8,3322.4"></polygon>
	<polygon style="fill:#67352E;fill-opacity:0.502;" points="1815.2,2967.5,1878.1,3030.5,1815.2,3156.5"></polygon>
	<polygon style="fill:#E6E9E4;fill-opacity:0.502;" points="1649.3,3030.5,2004,2916,1826.7,2738.5"></polygon>
	<polygon style="fill:#D3A987;fill-opacity:0.502;" points="1689.3,2383.4,1866.6,2257.4,1843.7,2194.4"></polygon>
	<polygon style="fill:#684425;fill-opacity:0.502;" points="1912.4,2526.6,1935.3,2847.2,2124.1,2807.1"></polygon>
	<polygon style="fill:#B1B0A9;fill-opacity:0.502;" points="1906.7,2812.9,2049.7,2790,1878.1,3230.9"></polygon>
	<polygon style="fill:#DCA786;fill-opacity:0.502;" points="2307.1,2715.5,2078.3,3465.6,2415.8,3070.5"></polygon>
	<polygon style="fill:#482813;fill-opacity:0.502;" points="2112.7,2480.8,1969.7,2812.9,1803.8,2704.1"></polygon>
	<polygon style="fill:#605244;fill-opacity:0.502;" points="2290,2435,1923.9,2131.5,2181.3,2211.7"></polygon>
	<polygon style="fill-opacity:0.502;" points="2318.6,2698.4,2129.8,2618.2,2089.8,3001.8"></polygon>
	<polygon style="fill:#F1C2A8;fill-opacity:0.502;" points="2221.3,3116.3,2330,2961.7,2558.8,2915.9"></polygon>
	<polygon style="fill:#110E0D;fill-opacity:0.502;" points="2381.5,2440.7,2227.1,2646.8,1975.4,2257.4"></polygon>
	<polygon style="fill:#D6A17E;fill-opacity:0.502;" points="1820.9,2560.9,1775.1,2852.9,1614.9,2835.7"></polygon>
	<polygon style="fill:#90877B;fill-opacity:0.502;" points="2021.1,2961.7,1912.4,2881.5,1946.7,2944.5"></polygon>
	<polygon style="fill:#887F7D;fill-opacity:0.502;" points="1655,3253.8,1752.2,3030.5,1512,3167.9"></polygon>
	<polygon style="fill:#D7D7D3;fill-opacity:0.502;" points="1706.5,3282.4,1786.6,2973.2,1792.3,3196.5"></polygon>
	<polygon style="fill:#EEF0EB;fill-opacity:0.502;" points="1655,3036.2,1580.6,2881.6,1569.2,3110.6"></polygon>
	<polygon style="fill:#D1CECD;fill-opacity:0.502;" points="1763.7,3631.7,1529.2,3316.8,1546.4,3843.6"></polygon>
	<polygon style="fill:#C5C2BD;fill-opacity:0.502;" points="1735.1,3242.3,1540.6,3328.2,1672.2,2973.2"></polygon>
	<polygon style="fill:#18100C;fill-opacity:0.502;" points="1952.5,2618.2,2026.9,2320.5,1717.9,2601"></polygon>
	<polygon style="fill:#B99270;fill-opacity:0.502;" points="1901,2217.4,1672.2,2463.6,1763.7,2268.9"></polygon>
	<polygon style="fill:#3F1A20;fill-opacity:0.502;" points="1655,3339.6,1506.3,3494.2,1483.4,3293.8"></polygon>
	<polygon style="fill:#BEB4B1;fill-opacity:0.502;" points="1683.6,3402.6,1523.4,3391.1,1580.6,3797.6"></polygon>
	<polygon style="fill:#817D78;fill-opacity:0.502;" points="1603.5,3225.1,1683.6,3156.4,1717.9,3288.1"></polygon>
	<polygon style="fill:#E9EBE6;fill-opacity:0.502;" points="1866.7,2887.3,1941,2727,1649.3,2921.7"></polygon>
	<polygon style="fill-opacity:0.502;" points="1523.5,2749.9,1643.6,2761.4,1552.1,2887.4"></polygon>
	<polygon style="fill:#B7AFA8;fill-opacity:0.502;" points="1815.2,2893,1826.6,3036.1,1637.8,3081.9"></polygon>
	<polygon style="fill:#EED5C3;fill-opacity:0.502;" points="1895.3,3780.5,1918.2,3963.7,2421.6,3746.1"></polygon>
	<polygon style="fill:#D8B29A;fill-opacity:0.502;" points="2004,4009.6,2358.7,4175.6,1941.1,4267.2"></polygon>
	<polygon style="fill:#6F5A52;fill-opacity:0.502;" points="1609.3,4095.4,2061.2,3562.9,2072.6,4181.3"></polygon>
	<polygon style="fill:#57381F;fill-opacity:0.502;" points="2066.9,2847.2,1883.8,2669.7,2112.6,2755.6"></polygon>
	<polygon style="fill:#584A41;fill-opacity:0.502;" points="2204.2,3253.8,1912.5,3797.7,2610.4,3059.1"></polygon>
	<polygon style="fill:#D0CFC8;fill-opacity:0.502;" points="1815.2,2944.6,1889.6,2893.1,2095.5,3036.2"></polygon>
	<polygon style="fill:#432E21;fill-opacity:0.502;" points="2152.7,3064.8,2244.2,2875.9,2209.9,3156.5"></polygon>
	<polygon style="fill:#ECECE7;fill-opacity:0.502;" points="2192.7,3047.6,2106.9,3282.4,1958.2,3351.1"></polygon>
	<polygon style="fill:#7A4D3F;fill-opacity:0.502;" points="2032.6,3459.9,2124.1,3288.1,2049.7,3333.9"></polygon>
	<polygon style="fill:#DFDBD8;fill-opacity:0.502;" points="1975.4,3288.1,2181.3,3104.9,1889.6,3608.8"></polygon>
	<polygon style="fill:#E5E4DF;fill-opacity:0.502;" points="1986.8,2996.1,2004,3391.2,2169.9,3110.6"></polygon>
	<polygon style="fill:#C38B72;fill-opacity:0.502;" points="2169.9,2612.5,2061.2,2641.1,2135.6,2509.4"></polygon>
	<polygon style="fill:#000005;fill-opacity:0.502;" points="2284.3,2543.8,2175.6,2492.3,2158.4,2715.6"></polygon>
	<polygon style="fill-opacity:0.502;" points="2084,3019,2381.5,2618.2,2038.3,2881.6"></polygon>
	<polygon style="fill:#94A4AD;fill-opacity:0.502;" points="2158.4,2933.1,2158.4,3087.7,2095.5,3001.8"></polygon>
	<polygon style="fill:#A3A4A6;fill-opacity:0.502;" points="2318.6,2709.8,2061.2,3070.5,2364.4,2870.1"></polygon>
	<polygon style="fill:#241A16;fill-opacity:0.502;" points="2164.1,2538,1946.7,2555.2,1952.4,2137.2"></polygon>
	<polygon style="fill:#170E0A;fill-opacity:0.502;" points="2147,2440.7,2095.5,2297.6,1752.3,2692.7"></polygon>
	<polygon style="fill:#655046;fill-opacity:0.502;" points="1946.8,2394.9,1941.1,2280.4,1866.7,2486.5"></polygon>
	<polygon style="fill:#58361D;fill-opacity:0.502;" points="1786.6,2698.4,1855.2,2463.6,1878.1,2549.5"></polygon>
	<polygon style="fill:#110200;fill-opacity:0.502;" points="1912.4,2749.9,1820.9,2744.2,1872.4,2520.9"></polygon>
	<polygon style="fill:#2E2016;fill-opacity:0.502;" points="1992.5,2887.3,1941,2377.7,1878.1,2589.6"></polygon>
	<polygon style="fill:#452A17;fill-opacity:0.502;" points="1883.8,2698.4,2055.4,2801.5,1986.8,2515.2"></polygon>
	<polygon style="fill:#C29073;fill-opacity:0.502;" points="2089.8,2686.9,2038.3,2641.1,2066.9,2503.7"></polygon>
	<polygon style="fill:#6A442F;fill-opacity:0.502;" points="2044,2566.7,2141.2,2446.5,2169.8,2561"></polygon>
	<polygon style="fill:#0A0402;fill-opacity:0.502;" points="1809.5,2767.1,1923.9,2406.4,1946.8,2555.3"></polygon>
	<polygon style="fill:#856E6D;fill-opacity:0.502;" points="1643.6,2830.1,1603.6,2950.3,1798.1,2778.5"></polygon>
	<polygon style="fill:#EFE2CB;fill-opacity:0.502;" points="1700.8,2864.4,1718,2721.3,1597.9,2830.1"></polygon>
	<polygon style="fill:#A69787;fill-opacity:0.502;" points="1906.7,2807.2,1946.7,2738.5,1872.3,2784.3"></polygon>
	<polygon style="fill:#A37A65;fill-opacity:0.502;" points="2169.9,2526.6,2175.6,2566.7,2124.1,2566.7"></polygon>
	<polygon style="fill:#130906;fill-opacity:0.502;" points="2272.8,2910.2,2204.2,2675.4,2272.8,2709.8"></polygon>
	<polygon style="fill:#7A5939;fill-opacity:0.502;" points="2072.6,2692.6,2061.2,2864.4,2101.2,2772.8"></polygon>
	<polygon style="fill:#A46B47;fill-opacity:0.502;" points="1866.7,2761.3,1792.3,2732.7,1758,2560.9"></polygon>
	<polygon style="fill:#22140C;fill-opacity:0.502;" points="1597.8,2692.6,1838.1,2555.2,1883.9,2377.7"></polygon>
	<polygon style="fill:#16100E;fill-opacity:0.502;" points="2032.6,2629.7,2078.4,2291.9,1952.6,2297.6"></polygon>
	<polygon style="fill:#100C0B;fill-opacity:0.502;" points="2095.5,2475.1,1861,2543.8,1946.8,2412.1"></polygon>
	<polygon style="fill:#472E1A;fill-opacity:0.502;" points="1758,2343.4,1677.9,2612.5,1855.2,2440.7"></polygon>
	<polygon style="fill:#9B8069;fill-opacity:0.502;" points="1729.4,2440.7,1683.6,2417.8,1649.3,2612.5"></polygon>
	<polygon style="fill:#D0A98D;fill-opacity:0.502;" points="1769.4,2280.4,1838,2291.9,1832.3,2206"></polygon>
	<polygon style="fill:#564338;fill-opacity:0.502;" points="1963.9,2263.2,1923.9,2400.6,1883.9,2366.2"></polygon>
	<polygon style="fill:#3C2110;fill-opacity:0.502;" points="2038.3,2618.2,1889.6,2755.6,1803.8,2709.8"></polygon>
	<polygon style="fill:#ECEFE9;fill-opacity:0.502;" points="1666.5,2898.8,1672.2,2807.2,1758,2870.2"></polygon>
	<polygon style="fill:#FDFBF7;fill-opacity:0.502;" points="1717.9,2761.3,1992.5,2893,1895.3,2789.9"></polygon>
	<polygon style="fill:#06040C;fill-opacity:0.502;" points="2089.8,2996.1,2032.6,2950.3,2158.4,2921.7"></polygon>
	<polygon style="fill:#553D30;fill-opacity:0.502;" points="2227.1,2898.8,2261.4,2944.6,2152.7,3093.5"></polygon>
	<polygon style="fill:#DCD7D2;fill-opacity:0.502;" points="2004,3041.9,1952.5,3282.4,1843.8,3116.4"></polygon>
	<polygon style="fill:#DAB8A2;fill-opacity:0.502;" points="2267.1,3007.6,2175.6,3213.7,2570.3,2870.2"></polygon>
	<polygon style="fill-opacity:0.502;" points="2410.1,3270.9,2455.9,3837.7,2238.5,3259.4"></polygon>
	<polygon style="fill:#BB957A;fill-opacity:0.502;" points="1992.5,3391.2,2198.4,3185.1,2289.9,3265.3"></polygon>
	<polygon style="fill:#E4C2AB;fill-opacity:0.502;" points="2124.1,3362.5,2152.7,3207.9,2341.5,3047.6"></polygon>
	<polygon style="fill:#D6D2CB;fill-opacity:0.502;" points="2021.1,3190.8,2187,3139.3,2112.6,3104.9"></polygon>
	<polygon style="fill:#573F41;fill-opacity:0.502;" points="1786.6,3522.9,2055.5,3820.6,1775.2,3202.2"></polygon>
	<polygon style="fill:#656253;fill-opacity:0.502;" points="1935.3,3019,1889.5,3030.5,1946.7,3070.6"></polygon>
	<polygon style="fill-opacity:0.502;" points="2324.3,3500,2244.2,3282.4,2484.5,3311"></polygon>
	<polygon style="fill:#1F1108;fill-opacity:0.502;" points="2473,3001.8,2421.5,3225.1,2267.1,3276.6"></polygon>
	<polygon style="fill:#645A5F;fill-opacity:0.502;" points="1683.6,4255.8,1517.7,3803.5,1889.5,4061.2"></polygon>
	<polygon style="fill:#400014;fill-opacity:0.502;" points="1803.8,3809.2,1849.6,3769.1,1786.7,3694.7"></polygon>
	<polygon style="fill:#583137;fill-opacity:0.502;" points="1929.6,3688.9,1861,3299.5,1786.6,3477"></polygon>
	<polygon style="fill:#B5B8B6;fill-opacity:0.502;" points="1729.4,3179.3,1820.9,3465.6,1666.5,3465.6"></polygon>
	<polygon style="fill:#7C6A68;fill-opacity:0.502;" points="1723.7,3482.8,1803.8,3551.5,1729.4,3688.9"></polygon>
	<polygon style="fill:#A2A4A0;fill-opacity:0.502;" points="1580.7,3963.8,1712.3,3637.4,2038.4,3448.5"></polygon>
	<polygon style="fill:#C8CFD0;fill-opacity:0.502;" points="1838.1,3946.6,1769.5,3763.4,1695.1,3975.3"></polygon>
	<polygon style="fill:#2E1D16;fill-opacity:0.502;" points="2112.7,3923.7,1580.7,4003.9,1912.5,4095.5"></polygon>
	<polygon style="fill:#857A7B;fill-opacity:0.502;" points="1615,3608.8,1512,3963.8,1643.6,3958.1"></polygon>
	<polygon style="fill:#969799;fill-opacity:0.502;" points="1803.8,3259.5,1929.6,3293.9,1700.8,3408.4"></polygon>
	<polygon style="fill:#68586A;fill-opacity:0.502;" points="1780.9,3322.5,1786.6,3396.9,1729.4,3402.6"></polygon>
	<polygon style="fill:#5D514B;fill-opacity:0.502;" points="1849.5,3505.7,1935.3,3625.9,1660.7,3471.3"></polygon>
	<polygon style="fill:#320F15;fill-opacity:0.502;" points="1557.8,3866.4,1660.8,3843.5,1592.2,3797.7"></polygon>
	<polygon style="fill:#E7E9E5;fill-opacity:0.502;" points="1592.1,3792,1740.8,3631.7,1706.5,3534.4"></polygon>
	<polygon style="fill:#947C77;fill-opacity:0.502;" points="1666.5,3202.2,1672.2,3099.1,1626.4,3036.1"></polygon>
	<polygon style="fill:#EBE6E2;fill-opacity:0.502;" points="1557.8,3528.6,1677.9,3459.9,1723.7,3305.3"></polygon>
	<polygon style="fill:#7E7274;fill-opacity:0.502;" points="1632.1,4038.2,1860.9,4003.8,1626.4,4181.3"></polygon>
	<polygon style="fill:#807970;fill-opacity:0.502;" points="1872.4,3654.6,1952.5,3689,1803.8,3969.6"></polygon>
	<polygon style="fill:#B3A7A0;fill-opacity:0.502;" points="1849.5,3855,1780.9,3500,1986.8,3826.4"></polygon>
	<polygon style="fill:#6F645D;fill-opacity:0.502;" points="1792.3,3946.6,1866.7,3946.6,1912.5,3694.7"></polygon>
	<polygon style="fill:#9F8978;fill-opacity:0.502;" points="2364.3,4232.9,2072.6,3981,1883.8,4164.2"></polygon>
	<polygon style="fill:#CFD8D7;fill-opacity:0.502;" points="2038.3,3597.3,1912.5,3660.3,2089.8,3419.8"></polygon>
	<polygon style="fill:#C6C0B8;fill-opacity:0.502;" points="2038.3,3127.8,2124.1,3242.3,2095.5,3150.7"></polygon>
	<polygon style="fill:#2D1614;fill-opacity:0.502;" points="1946.8,3711.8,2107,3643.1,2124.2,3734.7"></polygon>
	<polygon style="fill:#C6AF9F;fill-opacity:0.502;" points="1941,4158.4,2078.3,4227.1,2232.7,4181.3"></polygon>
	<polygon style="fill:#080000;fill-opacity:0.502;" points="1809.5,4227.1,1826.7,4118.3,1918.2,4175.6"></polygon>
	<polygon style="fill:#AD9C8F;fill-opacity:0.502;" points="2427.3,3557.2,2129.8,4221.4,2227,3545.8"></polygon>
	<polygon style="fill:#B9BFBD;fill-opacity:0.502;" points="2272.8,3282.4,2175.6,3465.6,2209.9,3603"></polygon>
	<polygon style="fill:#000001;fill-opacity:0.502;" points="2238.5,3322.5,2404.4,3666,2341.5,3202.2"></polygon>
	<polygon style="fill:#8B7D77;fill-opacity:0.502;" points="2198.5,3740.4,2107,3517.1,2593.2,3568.6"></polygon>
	<polygon style="fill:#979990;fill-opacity:0.502;" points="2341.5,3832.1,2307.2,3477.1,2410.2,3734.8"></polygon>
	<polygon style="fill:#3C1F0E;fill-opacity:0.502;" points="2152.7,3557.2,2175.6,3374,2107,3459.9"></polygon>
	<polygon style="fill:#B8B6AF;fill-opacity:0.502;" points="2249.9,3288.1,2278.5,3706.1,2181.3,3585.9"></polygon>
	<polygon style="fill:#A1A6A0;fill-opacity:0.502;" points="2347.2,3568.7,2324.3,3660.3,2272.8,3442.7"></polygon>
	<polygon style="fill:#E1CAB8;fill-opacity:0.502;" points="2330,3826.3,1998.2,3740.4,2106.9,3917.9"></polygon>
	<polygon style="fill:#FBE5D5;fill-opacity:0.502;" points="2129.8,3585.9,2164.1,3757.7,2175.5,3671.8"></polygon>
	<polygon style="fill:#DCC4B1;fill-opacity:0.502;" points="2078.3,3379.7,2146.9,3585.8,2084,3528.5"></polygon>
	<polygon style="fill:#6C626E;fill-opacity:0.502;" points="2055.4,3402.6,1740.8,3236.6,1860.9,3362.6"></polygon>
	<polygon style="fill:#33172D;fill-opacity:0.502;" points="1963.9,3419.8,1895.3,3322.5,1883.9,3379.8"></polygon>
	<polygon style="fill:#B66883;fill-opacity:0.502;" points="1878.1,3459.9,1929.6,3465.6,1866.7,3299.6"></polygon>
	<polygon style="fill:#CDB4A3;fill-opacity:0.502;" points="1929.6,3969.5,2164.1,3729,1861,3837.8"></polygon>
	<polygon style="fill:#5A473A;fill-opacity:0.502;" points="2009.7,4147,2158.4,3998.1,2124.1,3929.4"></polygon>
	<polygon style="fill:#B7B7AD;fill-opacity:0.502;" points="1763.7,3276.7,2044,3293.9,1820.9,3339.7"></polygon>
	<polygon style="fill:#5E1A1B;fill-opacity:0.502;" points="1689.3,2824.3,1763.7,2835.8,1769.4,2778.5"></polygon>
	<polygon style="fill:#B1AEA5;fill-opacity:0.502;" points="2061.2,2990.4,1849.5,2904.5,1946.7,2978.9"></polygon>
	<polygon style="fill:#ECEBE8;fill-opacity:0.502;" points="1540.6,3219.4,1666.4,3265.2,1517.7,3351.1"></polygon>
	<polygon style="fill:#EAECE7;fill-opacity:0.502;" points="1569.2,3036.2,1586.4,2990.4,1700.8,3007.6"></polygon>
	<polygon style="fill:#BCB7B3;fill-opacity:0.502;" points="1729.4,3116.3,1672.2,3230.8,1809.5,3219.3"></polygon>
	<polygon style="fill:#9B9B95;fill-opacity:0.502;" points="1677.9,3431.3,1643.6,3677.5,1540.6,3746.2"></polygon>
	<polygon style="fill:#D8D6D3;fill-opacity:0.502;" points="1649.3,3849.2,1637.9,3671.7,1758,3500"></polygon>
	<polygon style="fill:#BBBCB6;fill-opacity:0.502;" points="1820.9,2938.8,1798,2818.6,1758,2853"></polygon>
	<polygon style="fill:#292C39;fill-opacity:0.502;" points="1683.6,2463.6,1534.9,2641.1,1637.9,2572.4"></polygon>
	<polygon style="fill:#06070C;fill-opacity:0.502;" points="1889.6,2400.6,1843.8,2429.2,1855.2,2486.5"></polygon>
	<polygon style="fill:#3C2A1B;fill-opacity:0.502;" points="1866.7,2732.7,1918.2,2526.6,2015.4,2543.8"></polygon>
	<polygon style="fill-opacity:0.502;" points="1895.3,2641.1,1889.6,2498,1855.3,2641.1"></polygon>
	<polygon style="fill:#2E1100;fill-opacity:0.502;" points="1843.8,2509.4,1672.2,2635.4,1649.3,2767.1"></polygon>
	<polygon style="fill:#090705;fill-opacity:0.502;" points="1786.6,2486.5,1809.5,2641.1,1832.4,2475.1"></polygon>
	<polygon style="fill:#251D1B;fill-opacity:0.502;" points="2072.6,2280.4,2004,2440.7,1935.4,2343.4"></polygon>
	<polygon style="fill:#332721;fill-opacity:0.502;" points="2095.5,2389.2,2192.7,2326.2,2341.4,2417.8"></polygon>
	<polygon style="fill:#1C1614;fill-opacity:0.502;" points="1826.6,2394.9,1941,2148.7,1952.4,2263.2"></polygon>
	<polygon style="fill:#DEDFDB;fill-opacity:0.502;" points="2015.4,3001.8,2106.9,3070.5,1969.6,2864.4"></polygon>
	<polygon style="fill:#7C5340;fill-opacity:0.502;" points="2444.4,3013.3,2341.4,3236.6,2358.6,2801.4"></polygon>
	<polygon style="fill:#D8B29E;fill-opacity:0.502;" points="2290,2835.8,2204.2,3202.2,2398.7,3001.8"></polygon>
	<polygon style="fill:#CFAF9C;fill-opacity:0.502;" points="2284.3,3156.4,2352.9,2755.6,2209.9,3001.8"></polygon>
	<polygon style="fill:#A07153;fill-opacity:0.502;" points="2232.8,3322.5,2209.9,3242.3,2375.8,3082"></polygon>
	<polygon style="fill:#D9DAD6;fill-opacity:0.502;" points="2038.3,3379.7,1866.7,3534.3,2021.1,3459.9"></polygon>
	<polygon style="fill:#A98366;fill-opacity:0.502;" points="2330,3007.6,2278.5,3236.6,2421.5,3019"></polygon>
	<polygon style="fill:#1B0C12;fill-opacity:0.502;" points="2307.1,2973.2,2535.9,2835.8,2473,2933.1"></polygon>
	<polygon style="fill:#DAB9AA;fill-opacity:0.502;" points="2570.3,2864.4,2284.3,3001.8,2496,2967.4"></polygon>
	<polygon style="fill:#7B4A42;fill-opacity:0.502;" points="2484.5,2927.4,2347.2,2835.8,2307.2,2984.7"></polygon>
	<polygon style="fill:#BCA69E;fill-opacity:0.502;" points="2249.9,2801.4,2352.9,2893,2421.5,2881.5"></polygon>
	<polygon style="fill:#CCAA92;fill-opacity:0.502;" points="2438.7,2961.7,2324.3,3076.2,2181.3,3064.7"></polygon>
	<polygon style="fill:#EECDB4;fill-opacity:0.502;" points="2347.2,2996.1,2221.4,3110.6,2210,3219.4"></polygon>
	<polygon style="fill:#F5DACB;fill-opacity:0.502;" points="2461.6,2961.7,2358.6,2978.9,2455.8,2933.1"></polygon>
	<polygon style="fill:#956950;fill-opacity:0.502;" points="2221.3,3064.8,2238.5,2944.6,2164.1,3082"></polygon>
	<polygon style="fill:#CCAE99;fill-opacity:0.502;" points="2078.3,3379.7,2227,3213.7,2187,3139.3"></polygon>
	<polygon style="fill:#503522;fill-opacity:0.502;" points="2215.6,3391.2,2244.2,3288.1,2158.4,3425.5"></polygon>
	<polygon style="fill:#F9D7BF;fill-opacity:0.502;" points="2330,3047.6,2272.8,2933.1,2255.6,2967.5"></polygon>
	<polygon style="fill:#230500;fill-opacity:0.502;" points="2484.5,2904.5,2387.3,2927.4,2341.5,2898.8"></polygon>
	<polygon style="fill:#C7A690;fill-opacity:0.502;" points="2307.1,3087.7,2221.3,3076.2,2347.1,3018.9"></polygon>
	<polygon style="fill:#A97F5E;fill-opacity:0.502;" points="2175.6,3385.5,2078.4,3477.1,2169.9,3288.2"></polygon>
	<polygon style="fill:#DCD8D5;fill-opacity:0.502;" points="2044,3431.3,1958.2,3408.4,1912.4,3557.3"></polygon>
	<polygon style="fill:#6D615C;fill-opacity:0.502;" points="2112.7,3288.1,2061.2,3374,2004,3385.5"></polygon>
	<polygon style="fill:#E9C7AF;fill-opacity:0.502;" points="2198.5,3162.1,2295.7,3024.7,2301.4,3110.6"></polygon>
	<polygon style="fill:#CDAC96;fill-opacity:0.502;" points="2221.3,3047.6,2341.4,3007.5,2255.6,3093.4"></polygon>
	<polygon style="fill:#8D674F;fill-opacity:0.502;" points="2215.6,3356.8,2352.9,3139.2,2232.8,3236.5"></polygon>
	<polygon style="fill:#C1A18B;fill-opacity:0.502;" points="2215.6,3190.8,2124.1,3299.6,2192.7,3145"></polygon>
	<polygon style="fill:#593E2C;fill-opacity:0.502;" points="2209.9,3150.7,2181.3,3127.8,2204.2,3110.6"></polygon>
	<polygon style="fill:#7B413C;fill-opacity:0.502;" points="2341.5,2938.8,2290,2881.5,2244.2,2893"></polygon>
	<polygon style="fill:#FDDEC8;fill-opacity:0.502;" points="2290,2933.1,2244.2,2973.2,2284.2,2978.9"></polygon>
	<polygon style="fill:#FDDEC9;fill-opacity:0.502;" points="2352.9,2990.4,2295.7,2984.7,2330,3007.6"></polygon>
	<polygon style="fill:#3E2D26;fill-opacity:0.502;" points="2650.4,2898.8,2410.1,2996.1,2553.1,3001.8"></polygon>
	<polygon style="fill:#A9A6A1;fill-opacity:0.502;" points="2341.5,2784.2,2181.3,2910.2,2278.5,2761.3"></polygon>
	<polygon style="fill-opacity:0.502;" points="2398.7,3288.1,2398.7,3500,2324.3,3522.9"></polygon>
	<polygon style="fill:#000004;fill-opacity:0.502;" points="2427.3,3093.4,2427.3,3036.1,2564.6,3030.4"></polygon>
	<polygon style="fill:#6C5A51;fill-opacity:0.502;" points="1855.2,3654.6,2284.2,3729,2204.1,3620.2"></polygon>
	<polygon style="fill:#C5AD9B;fill-opacity:0.502;" points="2129.8,3608.8,2129.8,3774.8,2318.6,3952.3"></polygon>
	<polygon style="fill:#42332E;fill-opacity:0.502;" points="2078.3,3442.7,2101.2,3648.8,2026.8,3780.5"></polygon>
	<polygon style="fill:#8A8D86;fill-opacity:0.502;" points="2255.7,3362.5,2267.1,3683.1,2421.5,3763.3"></polygon>
	<polygon style="fill:#929089;fill-opacity:0.502;" points="2238.5,3316.7,2187,3442.7,2324.3,3511.4"></polygon>
	<polygon style="fill:#44332E;fill-opacity:0.502;" points="1975.4,3814.9,2061.2,3706.1,1975.4,3637.4"></polygon>
	<polygon style="fill:#3B2B1F;fill-opacity:0.502;" points="1855.2,3980.9,1849.5,4078.2,2084,3940.8"></polygon>
	<polygon style="fill:#B39D8E;fill-opacity:0.502;" points="1952.5,3952.3,2124.1,3797.7,1969.7,3797.7"></polygon>
	<polygon style="fill:#E9D5C6;fill-opacity:0.502;" points="2101.2,3740.4,2209.9,3866.4,2015.4,3769.1"></polygon>
	<polygon style="fill:#83807D;fill-opacity:0.502;" points="2061.2,3414.1,1935.4,3660.3,1969.7,3488.5"></polygon>
	<polygon style="fill:#EFF0EC;fill-opacity:0.502;" points="2101.2,3248,2015.4,3265.2,2015.4,3024.7"></polygon>
	<polygon style="fill:#F7F7F3;fill-opacity:0.502;" points="2021.1,2956,1969.6,2910.2,1958.2,2852.9"></polygon>
	<polygon style="fill:#523A2A;fill-opacity:0.502;" points="1975.4,2761.3,1878.2,2784.2,1975.4,2807.1"></polygon>
	<polygon style="fill:#3B210F;fill-opacity:0.502;" points="2055.4,2664,1912.4,2812.9,2026.8,2595.3"></polygon>
	<polygon style="fill:#FFFFE3;fill-opacity:0.502;" points="1912.4,2749.9,1935.3,2738.4,1929.6,2761.3"></polygon>
	<polygon style="fill:#1E1512;fill-opacity:0.502;" points="2129.8,2389.2,2175.6,2555.2,2358.7,2417.8"></polygon>
	<polygon style="fill:#B4AEA9;fill-opacity:0.502;" points="2352.9,2658.3,2358.6,2486.5,2267.1,2589.6"></polygon>
	<polygon style="fill:#1B1109;fill-opacity:0.502;" points="2164.1,2698.4,2078.3,2692.7,2032.5,2738.5"></polygon>
	<polygon style="fill:#643B25;fill-opacity:0.502;" points="1855.2,2744.2,1792.3,2755.7,1826.6,2658.4"></polygon>
	<polygon style="fill:#1A1618;fill-opacity:0.502;" points="2129.8,2841.5,2141.2,2612.5,2101.2,2721.3"></polygon>
	<polygon style="fill:#1A191F;fill-opacity:0.502;" points="2370.1,2778.5,2272.9,2721.2,2347.3,2721.2"></polygon>
	<polygon style="fill:#020106;fill-opacity:0.502;" points="2347.2,2652.6,2129.8,2767.1,2124.1,2973.2"></polygon>
	<polygon style="fill:#5B3B24;fill-opacity:0.502;" points="2049.7,2692.6,1998.2,2795.7,1912.4,2784.2"></polygon>
	<polygon style="fill:#472B18;fill-opacity:0.502;" points="2009.7,2709.8,1941.1,2549.5,1958.3,2824.3"></polygon>
	<polygon style="fill:#B8BABA;fill-opacity:0.502;" points="1986.8,2835.8,2004,2790,2044,2921.7"></polygon>
	<polygon style="fill:#452917;fill-opacity:0.502;" points="2044,2686.9,1889.6,2635.4,1923.9,2709.8"></polygon>
	<polygon style="fill:#070509;fill-opacity:0.502;" points="2209.9,2704.1,2112.7,2618.2,2198.5,2623.9"></polygon>
	<polygon style="fill:#533524;fill-opacity:0.502;" points="2095.5,2475.1,2066.9,2589.6,2181.3,2423.6"></polygon>
	<polygon style="fill:#060507;fill-opacity:0.502;" points="2198.5,2778.5,2078.4,2818.6,2238.6,2578.1"></polygon>
	<polygon style="fill:#000001;fill-opacity:0.502;" points="2078.3,2870.1,2044,2967.4,2101.2,2961.7"></polygon>
	<polygon style="fill:#D4A085;fill-opacity:0.502;" points="2095.5,2595.3,2038.3,2681.2,2124.1,2658.3"></polygon>
	<polygon style="fill:#25190F;fill-opacity:0.502;" points="2021.1,2698.4,2044,2606.8,1992.5,2555.3"></polygon>
	<polygon style="fill:#B8B8B2;fill-opacity:0.502;" points="1918.2,2812.9,1861,2772.8,1901,2767.1"></polygon>
	<polygon style="fill:#3C2817;fill-opacity:0.502;" points="2055.4,2681.2,1981,2589.6,1878,2646.9"></polygon>
	<polygon style="fill:#D1A188;fill-opacity:0.502;" points="2164.1,2589.6,2038.3,2658.3,2089.8,2578.1"></polygon>
	<polygon style="fill:#000001;fill-opacity:0.502;" points="2066.9,2950.3,2272.8,2681.2,2095.5,2801.4"></polygon>
	<polygon style="fill:#4F341F;fill-opacity:0.502;" points="1986.8,2560.9,1952.5,2629.6,1969.7,2686.9"></polygon>
	<polygon style="fill:#0A080B;fill-opacity:0.502;" points="2330,2492.2,2209.9,2486.5,2164.1,2721.3"></polygon>
	<polygon style="fill:#090805;fill-opacity:0.502;" points="2066.9,2795.7,2044,2744.2,2026.8,2761.4"></polygon>
	<polygon style="fill:#8D6D49;fill-opacity:0.502;" points="2078.3,2767.1,2072.6,2801.5,2106.9,2778.6"></polygon>
	<polygon style="fill:#170C10;fill-opacity:0.502;" points="2181.3,2681.2,2215.6,2646.8,2089.8,2664"></polygon>
	<polygon style="fill:#0B0705;fill-opacity:0.502;" points="1969.6,2566.7,1946.7,2543.8,1992.5,2457.9"></polygon>
	<polygon style="fill:#66452A;fill-opacity:0.502;" points="2055.4,2801.4,2015.4,2795.7,2044,2853"></polygon>
	<polygon style="fill:#2C1E16;fill-opacity:0.502;" points="2290,2412.1,2095.5,2566.7,2141.3,2377.8"></polygon>
	<polygon style="fill:#1A110E;fill-opacity:0.502;" points="2158.4,2435,2044,2520.9,2124.1,2303.3"></polygon>
	<polygon style="fill:#DAAD8F;fill-opacity:0.502;" points="2089.8,2589.6,2072.6,2686.9,2061.2,2612.5"></polygon>
	<polygon style="fill:#08080B;fill-opacity:0.502;" points="2375.8,2417.8,2175.6,2532.3,2169.9,2709.8"></polygon>
	<polygon style="fill:#291E18;fill-opacity:0.502;" points="1929.6,2446.4,1901,2606.7,1958.2,2532.3"></polygon>
	<polygon style="fill:#000308;fill-opacity:0.502;" points="2387.2,2446.4,2278.5,2394.9,2301.4,2515.1"></polygon>
	<polygon style="fill:#170F0C;fill-opacity:0.502;" points="2141.3,2515.1,2187.1,2452.1,2284.3,2566.6"></polygon>
	<polygon style="fill:#472C19;fill-opacity:0.502;" points="1895.3,2698.4,1929.6,2629.7,2044,2652.6"></polygon>
	<polygon style="fill:#382615;fill-opacity:0.502;" points="2101.2,2795.7,2015.4,2755.6,2055.4,2812.9"></polygon>
	<polygon style="fill:#160A04;fill-opacity:0.502;" points="1849.5,2646.8,1912.4,2641.1,1832.3,2727"></polygon>
	<polygon style="fill:#63402D;fill-opacity:0.502;" points="2072.6,2509.4,2152.7,2457.9,2061.2,2595.3"></polygon>
	<polygon style="fill:#362417;fill-opacity:0.502;" points="1963.9,2664,1958.2,2578.1,1855.2,2675.4"></polygon>
	<polygon style="fill:#1A120F;fill-opacity:0.502;" points="2004,2572.4,2147,2412.1,2084.1,2257.5"></polygon>
	<polygon style="fill:#261A13;fill-opacity:0.502;" points="1992.5,2658.3,2032.5,2543.8,1992.5,2406.4"></polygon>
	<polygon style="fill-opacity:0.502;" points="1906.7,2480.8,1912.4,2578.1,1832.3,2646.8"></polygon>
	<polygon style="fill:#5F3821;fill-opacity:0.502;" points="2009.7,2664,1963.9,2732.7,1906.7,2732.7"></polygon>
	<polygon style="fill:#FFC79D;fill-opacity:0.502;" points="1815.2,2618.2,1775.2,2618.2,1746.6,2681.2"></polygon>
	<polygon style="fill:#47311F;fill-opacity:0.502;" points="1683.6,2475.1,1849.5,2423.6,1735.1,2423.6"></polygon>
	<polygon style="fill:#372E2A;fill-opacity:0.502;" points="1832.4,2475.1,1729.4,2480.8,1923.9,2297.6"></polygon>
	<polygon style="fill:#1A120F;fill-opacity:0.502;" points="2032.6,2326.2,2021.2,2223.1,1918.2,2360.5"></polygon>
	<polygon style="fill:#574333;fill-opacity:0.502;" points="1901,2389.2,1889.6,2503.7,1832.4,2555.2"></polygon>
	<polygon style="fill:#8E6742;fill-opacity:0.502;" points="1700.8,2686.9,1677.9,2589.6,1540.6,2635.4"></polygon>
	<polygon style="fill:#424248;fill-opacity:0.502;" points="1649.3,3019,1666.5,2893,1632.2,2887.3"></polygon>
	<polygon style="fill:#29202F;fill-opacity:0.502;" points="1620.7,2927.4,1637.9,2875.9,1660.8,2927.4"></polygon>
	<polygon style="fill:#DDB389;fill-opacity:0.502;" points="1660.7,2612.5,1597.8,2635.4,1672.2,2566.7"></polygon>
	<polygon style="fill:#E3CAB0;fill-opacity:0.502;" points="1798,2698.4,1620.7,2853,1700.8,2847.3"></polygon>
	<polygon style="fill-opacity:0.502;" points="1489.1,3391.2,1494.8,3288.1,1546.3,3471.3"></polygon>
	<polygon style="fill:#D6D0CB;fill-opacity:0.502;" points="1689.3,2961.7,1512,3150.7,1643.6,3099.2"></polygon>
	<polygon style="fill:#783535;fill-opacity:0.502;" points="1615,3293.8,1575,3488.5,1655.1,3396.9"></polygon>
	<polygon style="fill:#D4E2D9;fill-opacity:0.502;" points="1523.5,3282.4,1552.1,3402.6,1517.8,3408.3"></polygon>
	<polygon style="fill:#E2E4E0;fill-opacity:0.502;" points="1637.9,3322.5,1683.7,3259.5,1546.4,3242.3"></polygon>
	<polygon style="fill:#B9B8B5;fill-opacity:0.502;" points="1769.4,3780.5,1803.7,3545.7,1855.2,3608.7"></polygon>
	<polygon style="fill:#514C45;fill-opacity:0.502;" points="1866.7,3545.8,1872.4,3729,1969.6,3557.2"></polygon>
	<polygon style="fill:#4E433F;fill-opacity:0.502;" points="1935.3,3568.7,1826.6,3517.2,1912.4,3711.9"></polygon>
	<polygon style="fill:#7F593F;fill-opacity:0.502;" points="2427.3,2984.6,2398.7,3110.6,2312.9,3179.3"></polygon>
	<polygon style="fill:#9E7358;fill-opacity:0.502;" points="2381.5,3070.5,2375.8,3024.7,2427.3,2978.9"></polygon>
	<polygon style="fill:#AA846A;fill-opacity:0.502;" points="2347.2,3082,2307.2,3208,2175.6,3293.9"></polygon>
	<polygon style="fill:#96918C;fill-opacity:0.502;" points="2089.8,3591.6,1969.7,3626,2026.9,3666.1"></polygon>
	<polygon style="fill:#E5CBB5;fill-opacity:0.502;" points="2267.1,3740.4,2164.1,3728.9,2318.5,3860.6"></polygon>
	<polygon style="fill:#98928B;fill-opacity:0.502;" points="2187,3568.7,2169.8,3442.7,2227,3391.2"></polygon>
	<polygon style="fill:#AFA9A3;fill-opacity:0.502;" points="2049.7,3545.8,2044,3666,2009.7,3574.4"></polygon>
	<polygon style="fill:#EBE3DC;fill-opacity:0.502;" points="2112.7,3488.5,2078.4,3391.2,2055.5,3414.1"></polygon>
	<polygon style="fill:#C6C7C3;fill-opacity:0.502;" points="2272.8,3585.9,2215.6,3505.7,2192.7,3545.8"></polygon>
	<polygon style="fill:#A58F7F;fill-opacity:0.502;" points="1992.5,3797.7,2026.8,3900.8,1981,3940.9"></polygon>
	<polygon style="fill:#5B4D42;fill-opacity:0.502;" points="2187,3528.6,2152.7,3540.1,2221.3,3614.5"></polygon>
	<polygon style="fill:#D1BCAD;fill-opacity:0.502;" points="2158.4,3688.9,2112.6,3694.6,2124,3568.6"></polygon>
	<polygon style="fill:#D0CEC7;fill-opacity:0.502;" points="2095.5,3459.9,2072.6,3448.4,2026.8,3465.6"></polygon>
	<polygon style="fill:#C2BCB0;fill-opacity:0.502;" points="2158.4,3190.8,2175.6,3104.9,2198.5,3225.1"></polygon>
	<polygon style="fill:#010001;fill-opacity:0.502;" points="2398.7,3328.2,2398.7,3528.6,2250,3293.8"></polygon>
	<polygon style="fill-opacity:0.502;" points="2478.8,3053.4,2433,3053.4,2536,2944.6"></polygon>
	<polygon style="fill-opacity:0.502;" points="2570.3,3013.3,2627.5,3087.7,2604.6,2956"></polygon>
	<polygon style="fill:#5E4F4C;fill-opacity:0.502;" points="2444.4,2927.4,2381.5,2967.5,2404.4,2933.1"></polygon>
	<polygon style="fill:#C8BDB5;fill-opacity:0.502;" points="2364.3,2950.3,2295.7,2898.8,2295.7,2772.8"></polygon>
	<polygon style="fill:#653820;fill-opacity:0.502;" points="2415.8,3041.9,2433,3001.8,2473,2996.1"></polygon>
	<polygon style="fill-opacity:0.502;" points="2553.1,2950.3,2610.3,2881.6,2616,2807.2"></polygon>
	<polygon style="fill:#524E46;fill-opacity:0.502;" points="2604.6,2778.5,2564.6,2681.2,2558.9,2858.7"></polygon>
	<polygon style="fill:#BC8C75;fill-opacity:0.502;" points="2209.9,2978.9,2295.7,2893,2249.9,2898.7"></polygon>
	<polygon style="fill:#DAB59D;fill-opacity:0.502;" points="2261.4,3001.8,2324.3,3122,2295.7,2961.7"></polygon>
	<polygon style="fill:#A4B1B6;fill-opacity:0.502;" points="2284.3,2887.3,2278.6,2755.6,2358.7,2772.8"></polygon>
	<polygon style="fill-opacity:0.502;" points="2461.6,2904.5,2576,2801.4,2427.3,2858.7"></polygon>
	<polygon style="fill:#48413D;fill-opacity:0.502;" points="2249.9,2938.8,2232.7,2881.5,2181.2,3013.2"></polygon>
	<polygon style="fill:#A8ABA7;fill-opacity:0.502;" points="2272.8,2578.1,2232.8,2652.5,2358.6,2538"></polygon>
	<polygon style="fill:#010002;fill-opacity:0.502;" points="2455.9,2767.1,2421.6,2875.9,2393,2847.3"></polygon>
	<polygon style="fill:#A5A9A9;fill-opacity:0.502;" points="2358.6,2870.1,2272.8,2881.6,2290,2818.6"></polygon>
	<polygon style="fill:#AB755A;fill-opacity:0.502;" points="2238.5,2915.9,2209.9,3024.7,2267.1,2927.4"></polygon>
	<polygon style="fill:#9F7D64;fill-opacity:0.502;" points="2198.5,3007.6,2227.1,2973.2,2192.8,3047.6"></polygon>
	<polygon style="fill:#B1896F;fill-opacity:0.502;" points="2341.5,3041.9,2455.9,2973.2,2352.9,3001.8"></polygon>
	<polygon style="fill:#010002;fill-opacity:0.502;" points="2461.6,2778.5,2438.7,2915.9,2558.8,2784.2"></polygon>
	<polygon style="fill:#0F0907;fill-opacity:0.502;" points="1872.4,2520.9,1895.3,2452.2,1946.8,2440.7"></polygon>
	<polygon style="fill:#54473E;fill-opacity:0.502;" points="1872.4,2143,2147,2183,2290,2389.1"></polygon>
	<polygon style="fill:#3A2F29;fill-opacity:0.502;" points="2232.8,2492.2,2250,2349.1,2295.8,2406.4"></polygon>
	<polygon style="fill:#55433A;fill-opacity:0.502;" points="1952.5,2309,1872.4,2263.2,1912.4,2372"></polygon>
	<polygon style="fill:#110C0B;fill-opacity:0.502;" points="2009.7,2337.6,1981.1,2440.7,1981.1,2354.8"></polygon>
	<polygon style="fill:#1E1410;fill-opacity:0.502;" points="2055.4,2457.9,2129.8,2486.5,2032.6,2480.8"></polygon>
	<polygon style="fill:#FFFFFF;fill-opacity:0.502;" points="2209.9,2051.4,2267.1,2143,2272.8,2011.3"></polygon>
	<polygon style="fill:#60544C;fill-opacity:0.502;" points="2158.4,2268.9,1946.7,2039.9,1946.7,2137.2"></polygon>
	<polygon style="fill:#1D2027;fill-opacity:0.502;" points="1952.5,2120.1,1981.1,2062.8,2044,2097.2"></polygon>
</g>
</svg>
